SplineFontDB: 3.0
FontName: Boon-300i
FullName: Boon 300 Oblique
FamilyName: Boon
Weight: 300
Copyright: Copyright 2013-2015, Sungsit Sawaiwan (https://fontuni.com | uni@fontuni.com). This Font Software is licensed under the SIL Open Font License, Version 1.1 (http://scripts.sil.org/OFL).
Version: 1.0
ItalicAngle: -9
UnderlinePosition: -120
UnderlineWidth: 60
Ascent: 960
Descent: 240
InvalidEm: 0
sfntRevision: 0x00010000
LayerCount: 2
Layer: 0 0 "Back" 1
Layer: 1 0 "Fore" 0
XUID: [1021 556 -266790205 8675523]
StyleMap: 0x0000
FSType: 0
OS2Version: 3
OS2_WeightWidthSlopeOnly: 0
OS2_UseTypoMetrics: 0
CreationTime: 1369324892
ModificationTime: 1445624907
PfmFamily: 17
TTFWeight: 300
TTFWidth: 5
LineGap: 90
VLineGap: 0
Panose: 2 0 5 3 0 0 0 0 0 0
OS2TypoAscent: 960
OS2TypoAOffset: 0
OS2TypoDescent: -240
OS2TypoDOffset: 0
OS2TypoLinegap: 90
OS2WinAscent: 1320
OS2WinAOffset: 0
OS2WinDescent: 480
OS2WinDOffset: 0
HheadAscent: 1320
HheadAOffset: 0
HheadDescent: -480
HheadDOffset: 0
OS2SubXSize: 780
OS2SubYSize: 840
OS2SubXOff: 26
OS2SubYOff: 168
OS2SupXSize: 780
OS2SupYSize: 840
OS2SupXOff: -90
OS2SupYOff: 576
OS2StrikeYSize: 59
OS2StrikeYPos: 310
OS2CapHeight: 780
OS2XHeight: 600
OS2Vendor: 'FUni'
OS2CodePages: 20010193.00000000
OS2UnicodeRanges: a30000ff.5000207b.00000000.00000000
Lookup: 1 0 0 "ThaiRC.rd" { "ThaiRC.rd subtable"  } ['ccmp' ('thai' <'PAL ' 'SAN ' > ) 'locl' ('thai' <'PAL ' 'SAN ' > ) 'ss01' ('thai' <'dflt' > ) ]
Lookup: 6 0 0 "ThaiContextRC.rd" { "ThaiContextRC.rd subtable"  } ['ccmp' ('thai' <'dflt' > ) ]
Lookup: 2 0 0 "ThaiDecomp" { "ThaiDecomp subtable"  } ['ccmp' ('thai' <'dflt' > ) ]
Lookup: 1 0 0 "ThaiT.0E4D" { "ThaiT.0E4D subtable"  } []
Lookup: 1 0 0 "Thai0E4D.0E48" { "Thai0E4D.0E48 subtable"  } []
Lookup: 1 0 0 "Thai0E4D.0E49" { "Thai0E4D.0E49 subtable"  } []
Lookup: 1 0 0 "Thai0E4D.0E4A" { "Thai0E4D.0E4A subtable"  } []
Lookup: 1 0 0 "Thai0E4D.0E4B" { "Thai0E4D.0E4B subtable"  } []

StartChar: .notdef
Encoding: 65536 -1 0
Width: 660
Flags: W
LayerCount: 2
Fore
SplineSet
50 0 m 1
 145 600 l 1
 365 600 l 1
 585 600 l 1
 490 0 l 1
 270 0 l 1
 50 0 l 1
278 52 m 1
 435 52 l 1
 514 548 l 1
 357 548 l 1
 200 548 l 1
 121 52 l 1
 278 52 l 1
EndSplineSet
EndChar

StartChar: exclam
Encoding: 33 33 5
Width: 330
GlyphClass: 2
Flags: W
LayerCount: 2
Fore
SplineSet
124 120 m 0
 157 120 180 101 180 70 c 0
 180 66 180 63 179 59 c 0
 173 22 142 -2 105 -2 c 0
 72 -2 48 17 48 48 c 0
 48 51 48 55 49 59 c 0
 55 96 87 120 124 120 c 0
191 810 m 1
 275 810 l 1
 172 270 l 1
 124 270 l 1
 191 810 l 1
EndSplineSet
EndChar

StartChar: quotedbl
Encoding: 34 34 6
Width: 540
GlyphClass: 2
Flags: W
LayerCount: 2
Fore
SplineSet
209 900 m 1
 277 900 l 1
 208 540 l 1
 163 540 l 1
 209 900 l 1
429 900 m 1
 497 900 l 1
 428 540 l 1
 383 540 l 1
 429 900 l 1
EndSplineSet
EndChar

StartChar: numbersign
Encoding: 35 35 7
Width: 810
GlyphClass: 2
Flags: W
LayerCount: 2
Fore
SplineSet
45 221 m 1
 53 269 l 1
 180 269 l 1
 284 511 l 1
 151 511 l 1
 159 559 l 1
 305 559 l 1
 399 780 l 1
 456 780 l 1
 361 559 l 1
 597 559 l 1
 692 780 l 1
 749 780 l 1
 655 559 l 1
 769 559 l 1
 761 511 l 1
 634 511 l 1
 530 269 l 1
 663 269 l 1
 655 221 l 1
 509 221 l 1
 415 0 l 1
 358 0 l 1
 453 221 l 1
 216 221 l 1
 122 0 l 1
 65 0 l 1
 159 221 l 1
 45 221 l 1
341 511 m 1
 237 269 l 1
 473 269 l 1
 577 511 l 1
 341 511 l 1
EndSplineSet
EndChar

StartChar: dollar
Encoding: 36 36 8
Width: 660
GlyphClass: 2
Flags: W
LayerCount: 2
Fore
SplineSet
43 178 m 1
 113 183 l 1
 113 181 l 2
 113 119 157 49 255 40 c 1
 309 376 l 1
 283 387 256 398 234 407 c 0
 181 430 125 476 125 558 c 0
 125 568 125 578 127 589 c 0
 144 698 237 783 374 791 c 1
 392 900 l 1
 444 900 l 1
 426 791 l 1
 558 778 604 677 604 608 c 2
 604 606 l 1
 534 601 l 1
 534 603 l 2
 534 663 497 726 418 739 c 1
 368 420 l 1
 396 409 423 398 445 391 c 0
 502 372 559 324 559 234 c 0
 559 222 558 209 556 196 c 0
 539 87 448 -1 299 -11 c 1
 282 -120 l 1
 230 -120 l 1
 247 -11 l 1
 94 -2 43 103 43 176 c 2
 43 178 l 1
319 440 m 1
 366 740 l 1
 279 732 209 679 195 589 c 0
 194 582 193 575 193 568 c 0
 193 505 242 472 282 455 c 0
 293 450 306 445 319 440 c 1
357 356 m 1
 307 40 l 1
 407 49 473 106 487 196 c 0
 488 206 489 214 489 223 c 0
 489 294 441 326 404 339 c 0
 390 344 374 350 357 356 c 1
EndSplineSet
EndChar

StartChar: percent
Encoding: 37 37 9
Width: 780
GlyphClass: 2
Flags: W
LayerCount: 2
Fore
SplineSet
30 0 m 1
 31 4 l 1
 706 780 l 1
 754 780 l 1
 753 776 l 1
 78 0 l 1
 30 0 l 1
65 577 m 2
 68 593 l 2
 82 683 124 789 230 789 c 0
 312 789 335 726 335 656 c 0
 335 635 333 614 330 593 c 2
 327 577 l 2
 313 487 271 381 165 381 c 0
 83 381 60 444 60 514 c 0
 60 535 62 556 65 577 c 2
171 416 m 0
 225 416 265 479 281 577 c 2
 284 593 l 2
 287 614 289 633 289 651 c 0
 289 715 266 754 224 754 c 0
 170 754 130 691 114 593 c 2
 111 577 l 2
 108 556 106 537 106 519 c 0
 106 455 129 416 171 416 c 0
454 187 m 2
 456 203 l 2
 470 293 512 399 618 399 c 0
 700 399 723 336 723 266 c 0
 723 245 721 224 718 203 c 2
 716 187 l 2
 702 97 660 -9 554 -9 c 0
 472 -9 449 54 449 124 c 0
 449 145 451 166 454 187 c 2
559 26 m 0
 613 26 654 89 670 187 c 2
 672 203 l 2
 676 224 677 244 677 262 c 0
 677 326 655 364 613 364 c 0
 559 364 518 301 502 203 c 2
 500 187 l 2
 496 166 495 146 495 128 c 0
 495 64 517 26 559 26 c 0
EndSplineSet
EndChar

StartChar: ampersand
Encoding: 38 38 10
Width: 810
GlyphClass: 2
Flags: W
LayerCount: 2
Fore
SplineSet
600 145 m 1
 664 66 716 4 716 4 c 1
 715 0 l 1
 635 0 l 1
 635 0 602 42 555 100 c 1
 476 30 374 -17 254 -17 c 0
 113 -17 44 47 44 133 c 0
 44 142 44 152 46 161 c 0
 65 280 194 361 300 424 c 1
 267 475 240 539 240 599 c 0
 240 609 240 618 242 628 c 0
 258 732 334 796 433 797 c 0
 528 797 568 742 568 680 c 0
 568 672 567 664 566 656 c 0
 550 552 477 481 379 419 c 1
 427 358 502 266 568 184 c 1
 619 247 655 324 676 400 c 1
 735 391 l 1
 712 306 666 218 600 145 c 1
525 137 m 1
 460 219 379 319 327 387 c 1
 222 322 128 250 114 161 c 0
 113 154 112 147 112 140 c 0
 112 75 164 36 263 36 c 0
 371 36 458 76 525 137 c 1
426 750 m 0
 354 750 314 693 304 627 c 0
 303 619 302 611 302 602 c 0
 302 554 322 500 352 455 c 1
 436 510 493 574 506 656 c 0
 507 663 508 670 508 676 c 0
 508 720 480 750 426 750 c 0
EndSplineSet
EndChar

StartChar: quotesingle
Encoding: 39 39 11
Width: 330
GlyphClass: 2
Flags: W
LayerCount: 2
Fore
SplineSet
214 900 m 1
 282 900 l 1
 213 540 l 1
 168 540 l 1
 214 900 l 1
EndSplineSet
EndChar

StartChar: parenleft
Encoding: 40 40 12
Width: 390
GlyphClass: 2
Flags: W
LayerCount: 2
Fore
SplineSet
82 390 m 0
 117 611 212 783 344 907 c 1
 385 890 l 1
 261 772 178 600 145 390 c 0
 136 333 132 280 132 229 c 0
 132 91 164 -24 227 -110 c 1
 180 -127 l 1
 110 -33 70 90 70 240 c 0
 70 287 74 337 82 390 c 0
EndSplineSet
Substitution2: "Latin.subs subtable" parenleft.subs
Substitution2: "Latin.sups subtable" parenleft.sups
EndChar

StartChar: parenright
Encoding: 41 41 13
Width: 390
GlyphClass: 2
Flags: W
LayerCount: 2
Fore
SplineSet
312 390 m 0
 277 169 182 -3 50 -127 c 1
 9 -110 l 1
 133 8 216 180 249 390 c 0
 258 447 262 500 262 551 c 0
 262 689 230 804 167 890 c 1
 214 907 l 1
 284 813 324 690 324 540 c 0
 324 493 320 443 312 390 c 0
EndSplineSet
Substitution2: "Latin.subs subtable" parenright.subs
Substitution2: "Latin.sups subtable" parenright.sups
EndChar

StartChar: asterisk
Encoding: 42 42 14
Width: 570
GlyphClass: 2
Flags: W
LayerCount: 2
Fore
SplineSet
110 713 m 1
 138 770 l 1
 317 695 l 1
 338 900 l 1
 398 900 l 1
 353 695 l 1
 557 770 l 1
 566 713 l 1
 360 660 l 1
 465 502 l 1
 411 466 l 1
 326 639 l 1
 188 466 l 1
 145 502 l 1
 301 660 l 1
 110 713 l 1
EndSplineSet
EndChar

StartChar: plus
Encoding: 43 43 15
Width: 600
GlyphClass: 2
Flags: W
LayerCount: 2
Fore
SplineSet
98 336 m 1
 106 384 l 1
 270 384 l 1
 296 550 l 1
 359 550 l 1
 333 384 l 1
 496 384 l 1
 488 336 l 1
 325 336 l 1
 299 170 l 1
 236 170 l 1
 262 336 l 1
 98 336 l 1
EndSplineSet
EndChar

StartChar: comma
Encoding: 44 44 16
Width: 330
GlyphClass: 2
Flags: W
LayerCount: 2
Fore
SplineSet
49 57 m 0
 55 94 85 121 124 121 c 0
 171 121 190 89 190 46 c 0
 190 37 189 28 188 19 c 0
 173 -78 100 -147 32 -190 c 1
 15 -160 l 1
 71 -124 122 -70 138 6 c 1
 127 1 115 -2 103 -2 c 0
 71 -2 48 16 48 46 c 0
 48 49 48 53 49 57 c 0
EndSplineSet
EndChar

StartChar: hyphen
Encoding: 45 45 17
Width: 600
GlyphClass: 2
Flags: W
LayerCount: 2
Fore
SplineSet
106 386 m 1
 496 386 l 1
 488 334 l 1
 98 334 l 1
 106 386 l 1
EndSplineSet
EndChar

StartChar: period
Encoding: 46 46 18
Width: 330
GlyphClass: 2
Flags: W
LayerCount: 2
Fore
SplineSet
124 120 m 0
 157 120 180 101 180 70 c 0
 180 66 180 63 179 59 c 0
 173 22 142 -2 105 -2 c 0
 72 -2 48 17 48 48 c 0
 48 51 48 55 49 59 c 0
 55 96 87 120 124 120 c 0
EndSplineSet
EndChar

StartChar: slash
Encoding: 47 47 19
Width: 510
GlyphClass: 2
Flags: W
LayerCount: 2
Fore
SplineSet
0 0 m 1
 1 4 l 1
 453 780 l 1
 514 780 l 1
 513 776 l 1
 60 0 l 1
 0 0 l 1
EndSplineSet
Substitution2: "LatinSlash.frac subtable" fraction
EndChar

StartChar: zero
Encoding: 48 48 20
Width: 660
GlyphClass: 2
Flags: W
LayerCount: 2
Fore
SplineSet
74 376 m 2
 78 404 l 2
 108 592 193 797 395 797 c 0
 551 797 599 675 599 533 c 0
 599 491 595 447 588 404 c 2
 584 376 l 2
 554 188 468 -17 266 -17 c 0
 110 -17 63 104 63 246 c 0
 63 288 67 333 74 376 c 2
275 36 m 0
 400 36 482 177 514 376 c 2
 518 404 l 2
 525 448 529 489 529 527 c 0
 529 658 484 744 387 744 c 0
 262 744 180 603 148 404 c 2
 144 376 l 2
 137 332 133 291 133 253 c 0
 133 122 178 36 275 36 c 0
EndSplineSet
Substitution2: "Latin.dnom subtable" zero.dnom
Substitution2: "Latin.numr subtable" zero.numr
Substitution2: "Latin.subs subtable" zero.subs
Substitution2: "Latin.sups subtable" zero.sups
Substitution2: "Latin.pnum subtable" zero.pnum
EndChar

StartChar: one
Encoding: 49 49 21
Width: 660
GlyphClass: 2
Flags: W
LayerCount: 2
Fore
SplineSet
150 630 m 1
 434 786 l 1
 483 781 l 1
 368 56 l 1
 524 56 l 1
 515 0 l 1
 90 0 l 1
 99 56 l 1
 299 56 l 1
 402 706 l 1
 172 579 l 1
 150 630 l 1
EndSplineSet
Substitution2: "Latin.dnom subtable" one.dnom
Substitution2: "Latin.numr subtable" one.numr
Substitution2: "Latin.subs subtable" one.subs
Substitution2: "Latin.sups subtable" one.sups
Substitution2: "Latin.pnum subtable" one.pnum
EndChar

StartChar: two
Encoding: 50 50 22
Width: 660
GlyphClass: 2
Flags: W
LayerCount: 2
Fore
SplineSet
29 27 m 0
 57 203 216 302 338 377 c 0
 427 431 515 487 530 583 c 0
 532 593 532 603 532 614 c 0
 532 674 504 744 388 744 c 0
 292 744 224 671 202 610 c 1
 132 617 l 1
 156 688 245 797 395 797 c 0
 566 797 601 691 601 618 c 0
 601 605 600 593 598 583 c 0
 579 460 460 385 374 332 c 0
 260 262 141 186 110 55 c 1
 524 55 l 1
 515 0 l 1
 28 0 l 1
 28 0 26 11 29 27 c 0
EndSplineSet
Substitution2: "Latin.dnom subtable" two.dnom
Substitution2: "Latin.numr subtable" two.numr
Substitution2: "Latin.subs subtable" two.subs
Substitution2: "Latin.sups subtable" two.sups
Substitution2: "Latin.pnum subtable" two.pnum
EndChar

StartChar: three
Encoding: 51 51 23
Width: 660
GlyphClass: 2
Flags: W
LayerCount: 2
Fore
SplineSet
15 126 m 1
 85 139 l 1
 92 104 123 35 249 35 c 0
 413 35 462 141 473 210 c 0
 474 219 475 228 475 237 c 0
 475 299 442 369 312 369 c 2
 217 369 l 1
 226 421 l 1
 312 421 l 2
 388 421 485 478 502 583 c 0
 504 593 505 604 505 615 c 0
 505 675 476 744 361 744 c 0
 265 744 196 671 174 610 c 1
 104 617 l 1
 128 688 217 797 367 797 c 0
 538 797 573 691 573 618 c 0
 573 605 572 593 570 583 c 0
 555 489 488 432 422 403 c 1
 518 377 546 304 546 243 c 0
 546 232 545 222 544 213 c 0
 532 137 467 -17 240 -17 c 0
 69 -17 24 82 15 126 c 1
EndSplineSet
Substitution2: "Latin.dnom subtable" three.dnom
Substitution2: "Latin.numr subtable" three.numr
Substitution2: "Latin.subs subtable" three.subs
Substitution2: "Latin.sups subtable" three.sups
Substitution2: "Latin.pnum subtable" three.pnum
EndChar

StartChar: four
Encoding: 52 52 24
Width: 660
GlyphClass: 2
Flags: W
LayerCount: 2
Fore
SplineSet
397 214 m 1
 24 214 l 1
 24 246 l 1
 497 786 l 1
 553 781 l 1
 471 266 l 1
 597 266 l 1
 589 214 l 1
 463 214 l 1
 429 0 l 1
 363 0 l 1
 397 214 l 1
406 266 m 1
 473 688 l 1
 105 266 l 1
 406 266 l 1
EndSplineSet
Substitution2: "Latin.dnom subtable" four.dnom
Substitution2: "Latin.numr subtable" four.numr
Substitution2: "Latin.subs subtable" four.subs
Substitution2: "Latin.sups subtable" four.sups
Substitution2: "Latin.pnum subtable" four.pnum
EndChar

StartChar: five
Encoding: 53 53 25
Width: 660
GlyphClass: 2
Flags: W
LayerCount: 2
Fore
SplineSet
35 126 m 1
 105 139 l 1
 112 104 142 35 268 35 c 0
 432 35 482 149 495 228 c 0
 497 243 499 259 499 275 c 0
 499 347 469 423 349 423 c 0
 267 423 185 367 152 326 c 1
 103 353 l 1
 184 780 l 1
 612 780 l 1
 603 728 l 1
 240 728 l 1
 179 406 l 1
 224 439 291 473 368 473 c 0
 534 473 571 360 571 277 c 0
 571 260 569 245 567 232 c 0
 554 148 486 -17 259 -17 c 0
 88 -17 44 82 35 126 c 1
EndSplineSet
Substitution2: "Latin.dnom subtable" five.dnom
Substitution2: "Latin.numr subtable" five.numr
Substitution2: "Latin.subs subtable" five.subs
Substitution2: "Latin.sups subtable" five.sups
Substitution2: "Latin.pnum subtable" five.pnum
EndChar

StartChar: six
Encoding: 54 54 26
Width: 660
GlyphClass: 2
Flags: W
LayerCount: 2
Fore
SplineSet
81 292 m 2
 105 439 l 2
 127 576 190 797 409 797 c 0
 571 797 605 689 612 645 c 1
 543 634 l 1
 536 674 511 744 401 744 c 0
 258 744 199 592 175 439 c 2
 165 381 l 1
 211 433 281 471 368 471 c 0
 525 471 570 368 570 275 c 0
 570 259 568 242 566 227 c 0
 544 91 438 -17 280 -17 c 0
 144 -17 73 60 73 204 c 0
 73 231 76 260 81 292 c 2
148 263 m 1
 146 242 144 223 144 205 c 0
 144 78 205 36 289 36 c 0
 394 36 478 104 497 227 c 0
 499 242 501 257 501 272 c 0
 501 348 466 421 350 421 c 0
 253 421 178 351 148 263 c 1
EndSplineSet
Substitution2: "Latin.dnom subtable" six.dnom
Substitution2: "Latin.numr subtable" six.numr
Substitution2: "Latin.subs subtable" six.subs
Substitution2: "Latin.sups subtable" six.sups
Substitution2: "Latin.pnum subtable" six.pnum
EndChar

StartChar: seven
Encoding: 55 55 27
Width: 660
GlyphClass: 2
Flags: W
LayerCount: 2
Fore
SplineSet
135 724 m 1
 144 780 l 1
 629 780 l 1
 627 740 l 1
 487 582 314 280 276 40 c 2
 270 0 l 1
 197 0 l 1
 203 40 l 2
 239 270 407 560 541 724 c 1
 135 724 l 1
EndSplineSet
Substitution2: "Latin.dnom subtable" seven.dnom
Substitution2: "Latin.numr subtable" seven.numr
Substitution2: "Latin.subs subtable" seven.subs
Substitution2: "Latin.sups subtable" seven.sups
Substitution2: "Latin.pnum subtable" seven.pnum
EndChar

StartChar: eight
Encoding: 56 56 28
Width: 660
GlyphClass: 2
Flags: W
LayerCount: 2
Fore
SplineSet
267 -17 m 0
 119 -17 33 59 33 163 c 0
 33 173 34 184 36 195 c 0
 58 332 166 384 242 401 c 1
 183 423 131 471 131 555 c 0
 131 566 132 578 134 591 c 0
 153 709 258 797 396 797 c 0
 520 797 597 725 597 625 c 0
 597 614 596 603 594 591 c 0
 577 485 501 426 426 401 c 1
 489 386 569 343 569 235 c 0
 569 223 568 209 566 195 c 0
 547 75 430 -17 267 -17 c 0
275 34 m 0
 395 34 480 97 496 195 c 0
 498 207 499 218 499 229 c 0
 499 313 442 350 385 362 c 0
 369 366 350 371 330 376 c 1
 308 371 287 366 269 362 c 0
 201 348 123 304 106 195 c 0
 104 185 104 176 104 167 c 0
 104 85 167 34 275 34 c 0
388 747 m 0
 297 747 219 691 203 591 c 0
 201 581 201 571 201 562 c 0
 201 489 247 447 297 435 c 0
 310 432 323 428 337 424 c 1
 353 428 368 432 381 435 c 0
 441 448 511 500 525 591 c 0
 527 602 528 611 528 621 c 0
 528 702 469 747 388 747 c 0
EndSplineSet
Substitution2: "Latin.dnom subtable" eight.dnom
Substitution2: "Latin.numr subtable" eight.numr
Substitution2: "Latin.subs subtable" eight.subs
Substitution2: "Latin.sups subtable" eight.sups
Substitution2: "Latin.pnum subtable" eight.pnum
EndChar

StartChar: nine
Encoding: 57 57 29
Width: 660
GlyphClass: 2
Flags: W
LayerCount: 2
Fore
SplineSet
582 488 m 2
 559 341 l 2
 537 204 473 -17 254 -17 c 0
 92 -17 58 91 51 135 c 1
 120 146 l 1
 127 106 153 36 263 36 c 0
 406 36 465 188 489 341 c 2
 498 399 l 1
 452 347 383 309 296 309 c 0
 139 309 94 412 94 505 c 0
 94 521 96 538 98 553 c 0
 120 689 225 797 383 797 c 0
 519 797 590 720 590 576 c 0
 590 549 587 520 582 488 c 2
516 517 m 1
 518 538 520 557 520 575 c 0
 520 702 459 744 375 744 c 0
 270 744 186 676 167 553 c 0
 165 538 163 523 163 508 c 0
 163 432 198 359 314 359 c 0
 411 359 486 429 516 517 c 1
EndSplineSet
Substitution2: "Latin.dnom subtable" nine.dnom
Substitution2: "Latin.numr subtable" nine.numr
Substitution2: "Latin.subs subtable" nine.subs
Substitution2: "Latin.sups subtable" nine.sups
Substitution2: "Latin.pnum subtable" nine.pnum
EndChar

StartChar: colon
Encoding: 58 58 30
Width: 330
GlyphClass: 2
Flags: W
LayerCount: 2
Fore
SplineSet
124 120 m 0
 157 120 180 101 180 70 c 0
 180 66 180 63 179 59 c 0
 173 22 142 -2 105 -2 c 0
 72 -2 48 17 48 48 c 0
 48 51 48 55 49 59 c 0
 55 96 87 120 124 120 c 0
191 540 m 0
 224 540 247 521 247 490 c 0
 247 486 247 483 246 479 c 0
 240 442 208 418 171 418 c 0
 138 418 115 437 115 468 c 0
 115 472 115 475 116 479 c 0
 122 516 154 540 191 540 c 0
EndSplineSet
EndChar

StartChar: semicolon
Encoding: 59 59 31
Width: 330
GlyphClass: 2
Flags: W
LayerCount: 2
Fore
SplineSet
191 540 m 0
 224 540 247 521 247 490 c 0
 247 486 247 483 246 479 c 0
 240 442 208 418 171 418 c 0
 138 418 115 437 115 468 c 0
 115 472 115 475 116 479 c 0
 122 516 154 540 191 540 c 0
49 57 m 0
 55 94 85 121 124 121 c 0
 171 121 190 89 190 46 c 0
 190 37 189 28 188 19 c 0
 173 -78 100 -147 32 -190 c 1
 15 -160 l 1
 71 -124 122 -70 138 6 c 1
 127 1 115 -2 103 -2 c 0
 71 -2 48 16 48 46 c 0
 48 49 48 53 49 57 c 0
EndSplineSet
EndChar

StartChar: less
Encoding: 60 60 32
Width: 600
GlyphClass: 2
Flags: W
LayerCount: 2
Fore
SplineSet
99 341 m 1
 102 360 l 1
 105 379 l 1
 519 605 l 1
 522 552 l 1
 168 360 l 1
 462 168 l 1
 441 115 l 1
 99 341 l 1
EndSplineSet
EndChar

StartChar: equal
Encoding: 61 61 33
Width: 600
GlyphClass: 2
Flags: W
LayerCount: 2
Fore
SplineSet
112 423 m 1
 120 473 l 1
 510 473 l 1
 502 423 l 1
 112 423 l 1
84 247 m 1
 92 297 l 1
 482 297 l 1
 474 247 l 1
 84 247 l 1
EndSplineSet
EndChar

StartChar: greater
Encoding: 62 62 34
Width: 600
GlyphClass: 2
Flags: W
LayerCount: 2
Fore
SplineSet
495 379 m 1
 492 360 l 1
 489 341 l 1
 75 115 l 1
 72 168 l 1
 426 360 l 1
 132 552 l 1
 153 605 l 1
 495 379 l 1
EndSplineSet
EndChar

StartChar: question
Encoding: 63 63 35
Width: 570
GlyphClass: 2
Flags: W
LayerCount: 2
Fore
SplineSet
244 120 m 0
 277 120 300 101 300 70 c 0
 300 66 300 63 299 59 c 0
 293 22 262 -2 225 -2 c 0
 192 -2 168 17 168 48 c 0
 168 51 168 55 169 59 c 0
 175 96 207 120 244 120 c 0
113 653 m 0
 129 754 226 827 356 827 c 0
 464 827 534 771 534 674 c 0
 534 662 533 651 531 638 c 0
 505 473 289 430 269 302 c 0
 268 294 267 286 267 277 c 0
 267 264 269 251 273 238 c 1
 216 232 l 1
 210 250 206 268 206 286 c 0
 206 292 207 299 208 305 c 0
 233 462 439 498 461 636 c 0
 463 647 464 658 464 668 c 0
 464 744 412 773 346 773 c 0
 262 773 196 729 184 653 c 0
 182 644 182 634 182 625 c 0
 182 610 184 597 188 583 c 1
 119 565 l 1
 114 584 111 603 111 623 c 0
 111 633 111 643 113 653 c 0
EndSplineSet
EndChar

StartChar: at
Encoding: 64 64 36
Width: 1020
GlyphClass: 2
Flags: W
LayerCount: 2
Fore
SplineSet
67 235 m 0
 108 491 325 780 623 780 c 0
 841 780 939 643 939 475 c 0
 939 451 937 425 933 400 c 0
 907 234 782 42 647 42 c 0
 596 42 580 71 580 112 c 0
 580 121 581 130 582 139 c 1
 539 80 485 38 419 38 c 0
 315 38 277 109 277 187 c 0
 277 201 278 215 280 229 c 0
 302 369 432 560 617 560 c 0
 690 560 718 513 718 464 c 0
 718 457 717 449 716 442 c 0
 709 400 691 356 669 301 c 0
 645 234 632 186 627 152 c 0
 625 138 624 126 624 117 c 0
 624 88 634 79 653 79 c 0
 742 79 865 236 891 400 c 0
 895 425 897 449 897 472 c 0
 897 627 808 743 617 743 c 0
 354 743 148 481 109 235 c 0
 105 207 102 180 102 153 c 0
 102 -17 196 -153 418 -153 c 0
 491 -153 580 -115 610 -98 c 1
 630 -129 l 1
 594 -150 499 -190 412 -190 c 0
 162 -190 60 -34 60 149 c 0
 60 177 62 206 67 235 c 0
426 80 m 0
 510 80 574 178 622 307 c 0
 643 360 661 408 666 442 c 0
 667 449 668 455 668 461 c 0
 668 497 647 518 610 518 c 0
 479 518 355 365 333 229 c 0
 331 216 330 203 330 191 c 0
 330 123 364 80 426 80 c 0
EndSplineSet
EndChar

StartChar: A
Encoding: 65 65 37
Width: 750
GlyphClass: 2
Flags: W
AnchorPoint: "LatinOgonek.mark" 610 0 basechar 0
AnchorPoint: "LatinBelow.mark" 315 0 basechar 0
AnchorPoint: "LatinAbove.mark" 339 150 basechar 0
LayerCount: 2
Fore
SplineSet
660 0 m 1
 580 0 l 1
 539 184 l 1
 149 184 l 1
 50 0 l 1
 -30 0 l 1
 -29 5 l 1
 408 780 l 1
 470 780 l 1
 661 5 l 1
 660 0 l 1
527 236 m 1
 426 698 l 1
 177 236 l 1
 527 236 l 1
EndSplineSet
EndChar

StartChar: B
Encoding: 66 66 38
Width: 745
GlyphClass: 2
Flags: W
AnchorPoint: "LatinBelow.mark" 260 0 basechar 0
AnchorPoint: "LatinAbove.mark" 284 150 basechar 0
LayerCount: 2
Fore
SplineSet
485 426 m 1
 586 404 652 345 652 251 c 0
 652 240 651 228 649 216 c 0
 626 68 482 -9 308 -9 c 0
 205 -9 82 -3 45 0 c 1
 169 780 l 1
 201 783 308 789 399 789 c 0
 533 789 637 735 637 626 c 0
 637 616 636 606 634 595 c 0
 620 509 560 454 485 426 c 1
378 437 m 1
 463 446 550 494 565 590 c 0
 566 599 567 607 567 615 c 0
 567 699 493 737 385 737 c 0
 326 737 263 735 228 733 c 1
 180 432 l 1
 233 435 309 437 378 437 c 1
119 47 m 1
 165 45 244 43 310 43 c 0
 447 43 561 94 580 216 c 0
 582 226 582 236 582 245 c 0
 582 346 490 388 364 388 c 0
 298 388 219 386 173 384 c 1
 119 47 l 1
EndSplineSet
EndChar

StartChar: C
Encoding: 67 67 39
Width: 755
GlyphClass: 2
Flags: W
AnchorPoint: "LatinCedilla.mark" 352 0 basechar 0
AnchorPoint: "LatinBelow.mark" 350 0 basechar 0
AnchorPoint: "LatinAbove.mark" 374 150 basechar 0
LayerCount: 2
Fore
SplineSet
79 407 m 2
 109 599 224 797 479 797 c 0
 666 797 733 674 734 595 c 1
 660 588 l 1
 658 653 606 742 471 742 c 0
 287 742 183 597 153 407 c 2
 148 373 l 2
 143 341 140 312 140 283 c 0
 140 139 206 38 359 38 c 0
 494 38 575 127 597 192 c 1
 669 185 l 1
 642 106 537 -17 350 -17 c 0
 137 -17 66 122 66 279 c 0
 66 310 69 341 74 373 c 2
 79 407 l 2
EndSplineSet
EndChar

StartChar: D
Encoding: 68 68 40
Width: 770
GlyphClass: 2
Flags: W
AnchorPoint: "LatinBelow.mark" 260 0 basechar 0
AnchorPoint: "LatinAbove.mark" 284 150 basechar 0
LayerCount: 2
Fore
SplineSet
123 48 m 1
 155 46 202 44 234 44 c 0
 484 44 594 188 623 372 c 2
 629 408 l 2
 633 435 635 460 635 485 c 0
 635 630 558 736 344 736 c 0
 312 736 263 734 231 732 c 1
 123 48 l 1
169 780 m 1
 169 780 278 789 352 789 c 0
 615 789 707 649 707 486 c 0
 707 460 704 434 700 408 c 2
 694 372 l 2
 663 179 531 -9 226 -9 c 0
 152 -9 45 0 45 0 c 1
 169 780 l 1
EndSplineSet
EndChar

StartChar: E
Encoding: 69 69 41
Width: 675
GlyphClass: 2
Flags: W
AnchorPoint: "LatinOgonek.mark" 485 0 basechar 0
AnchorPoint: "LatinBelow.mark" 290 0 basechar 0
AnchorPoint: "LatinAbove.mark" 314 150 basechar 0
LayerCount: 2
Fore
SplineSet
45 0 m 1
 169 780 l 1
 654 780 l 1
 645 725 l 1
 231 725 l 1
 181 411 l 1
 563 411 l 1
 555 359 l 1
 173 359 l 1
 125 55 l 1
 554 55 l 1
 545 0 l 1
 45 0 l 1
EndSplineSet
EndChar

StartChar: F
Encoding: 70 70 42
Width: 640
GlyphClass: 2
Flags: W
AnchorPoint: "LatinBelow.mark" 100 0 basechar 0
AnchorPoint: "LatinAbove.mark" 304 150 basechar 0
LayerCount: 2
Fore
SplineSet
45 0 m 1
 169 780 l 1
 644 780 l 1
 635 725 l 1
 231 725 l 1
 181 413 l 1
 553 413 l 1
 545 357 l 1
 173 357 l 1
 116 0 l 1
 45 0 l 1
EndSplineSet
EndChar

StartChar: G
Encoding: 71 71 43
Width: 770
GlyphClass: 2
Flags: W
AnchorPoint: "LatinBelow.mark" 350 0 basechar 0
AnchorPoint: "LatinAbove.mark" 374 150 basechar 0
LayerCount: 2
Fore
SplineSet
415 320 m 1
 423 371 l 1
 694 371 l 1
 657 139 l 1
 621 76 521 -17 350 -17 c 0
 137 -17 66 122 66 279 c 0
 66 310 69 341 74 373 c 2
 79 407 l 2
 109 599 224 797 479 797 c 0
 666 797 733 674 734 595 c 1
 661 588 l 1
 659 653 606 743 471 743 c 0
 285 743 182 599 152 407 c 2
 147 373 l 2
 142 341 139 310 139 281 c 0
 139 137 204 37 359 37 c 0
 487 37 557 93 593 143 c 1
 621 320 l 1
 415 320 l 1
EndSplineSet
EndChar

StartChar: H
Encoding: 72 72 44
Width: 790
GlyphClass: 2
Flags: W
AnchorPoint: "LatinBelow.mark" 335 0 basechar 0
AnchorPoint: "LatinAbove.mark" 359 150 basechar 0
LayerCount: 2
Fore
SplineSet
45 0 m 1
 169 780 l 1
 240 780 l 1
 182 418 l 1
 620 418 l 1
 678 780 l 1
 749 780 l 1
 625 0 l 1
 554 0 l 1
 611 362 l 1
 173 362 l 1
 116 0 l 1
 45 0 l 1
EndSplineSet
EndChar

StartChar: I
Encoding: 73 73 45
Width: 320
GlyphClass: 2
Flags: W
AnchorPoint: "LatinOgonek.mark" 105 0 basechar 0
AnchorPoint: "LatinBelow.mark" 100 0 basechar 0
AnchorPoint: "LatinAbove.mark" 124 150 basechar 0
LayerCount: 2
Fore
SplineSet
65 0 m 1
 189 780 l 1
 259 780 l 1
 135 0 l 1
 65 0 l 1
EndSplineSet
EndChar

StartChar: J
Encoding: 74 74 46
Width: 520
GlyphClass: 2
Flags: W
AnchorPoint: "LatinBelow.mark" 170 0 basechar 0
AnchorPoint: "LatinAbove.mark" 324 150 basechar 0
LayerCount: 2
Fore
SplineSet
-4 132 m 1
 68 138 l 1
 68 76 103 36 171 36 c 0
 238 36 296 74 309 158 c 2
 408 780 l 1
 479 780 l 1
 380 158 l 2
 364 58 281 -17 162 -17 c 0
 45 -17 -4 56 -4 130 c 2
 -4 132 l 1
EndSplineSet
EndChar

StartChar: K
Encoding: 75 75 47
Width: 715
GlyphClass: 2
Flags: W
AnchorPoint: "LatinBelow.mark" 300 0 basechar 0
AnchorPoint: "LatinAbove.mark" 324 150 basechar 0
LayerCount: 2
Fore
SplineSet
45 0 m 1
 169 780 l 1
 237 780 l 1
 168 350 l 1
 628 780 l 1
 705 774 l 1
 704 770 l 1
 355 454 l 1
 636 4 l 1
 635 0 l 1
 551 0 l 1
 302 407 l 1
 156 274 l 1
 113 0 l 1
 45 0 l 1
EndSplineSet
EndChar

StartChar: L
Encoding: 76 76 48
Width: 570
GlyphClass: 2
Flags: W
AnchorPoint: "LatinBelow.mark" 260 0 basechar 0
AnchorPoint: "LatinAbove.mark" 124 150 basechar 0
LayerCount: 2
Fore
SplineSet
45 0 m 1
 169 780 l 1
 240 780 l 1
 125 55 l 1
 479 55 l 1
 470 0 l 1
 45 0 l 1
EndSplineSet
EndChar

StartChar: M
Encoding: 77 77 49
Width: 880
GlyphClass: 2
Flags: W
AnchorPoint: "LatinBelow.mark" 380 0 basechar 0
AnchorPoint: "LatinAbove.mark" 404 150 basechar 0
LayerCount: 2
Fore
SplineSet
715 0 m 1
 646 0 l 1
 748 647 l 1
 430 195 l 1
 392 195 l 1
 216 647 l 1
 114 0 l 1
 45 0 l 1
 167 773 l 1
 228 780 l 1
 422 267 l 1
 780 780 l 1
 837 773 l 1
 715 0 l 1
EndSplineSet
EndChar

StartChar: N
Encoding: 78 78 50
Width: 790
GlyphClass: 2
Flags: W
AnchorPoint: "LatinBelow.mark" 335 0 basechar 0
AnchorPoint: "LatinAbove.mark" 359 150 basechar 0
LayerCount: 2
Fore
SplineSet
45 0 m 1
 167 773 l 1
 230 780 l 1
 574 113 l 1
 680 780 l 1
 749 780 l 1
 625 0 l 1
 564 0 l 1
 220 667 l 1
 114 0 l 1
 45 0 l 1
EndSplineSet
EndChar

StartChar: O
Encoding: 79 79 51
Width: 820
GlyphClass: 2
Flags: W
AnchorPoint: "LatinOgonek.mark" 420 0 basechar 0
AnchorPoint: "LatinBelow.mark" 350 0 basechar 0
AnchorPoint: "LatinAbove.mark" 374 150 basechar 0
LayerCount: 2
Fore
SplineSet
74 372 m 2
 80 408 l 2
 110 599 222 797 476 797 c 0
 688 797 758 659 758 503 c 0
 758 472 755 440 750 408 c 2
 744 372 l 2
 714 181 601 -17 347 -17 c 0
 136 -17 66 120 66 276 c 0
 66 307 69 340 74 372 c 2
356 37 m 0
 541 37 641 183 671 372 c 2
 677 408 l 2
 682 440 685 471 685 500 c 0
 685 642 621 743 468 743 c 0
 283 743 183 597 153 408 c 2
 147 372 l 2
 142 340 139 309 139 280 c 0
 139 138 203 37 356 37 c 0
EndSplineSet
EndChar

StartChar: P
Encoding: 80 80 52
Width: 710
GlyphClass: 2
Flags: W
AnchorPoint: "LatinBelow.mark" 100 0 basechar 0
AnchorPoint: "LatinAbove.mark" 324 150 basechar 0
LayerCount: 2
Fore
SplineSet
176 394 m 1
 217 392 281 390 345 390 c 0
 482 390 595 442 614 564 c 0
 616 574 616 585 616 594 c 0
 616 695 525 737 400 737 c 0
 336 737 271 735 230 733 c 1
 176 394 l 1
168 343 m 1
 114 0 l 1
 45 0 l 1
 100 347 l 1
 169 780 l 1
 206 783 311 789 414 789 c 0
 574 789 687 724 687 599 c 0
 687 588 686 576 684 564 c 0
 661 416 517 338 343 338 c 0
 280 338 216 341 168 343 c 1
EndSplineSet
EndChar

StartChar: Q
Encoding: 81 81 53
Width: 820
GlyphClass: 2
Flags: W
AnchorPoint: "LatinBelow.mark" 350 0 basechar 0
AnchorPoint: "LatinAbove.mark" 374 150 basechar 0
LayerCount: 2
Fore
SplineSet
74 372 m 2
 80 408 l 2
 110 599 222 797 476 797 c 0
 688 797 758 659 758 503 c 0
 758 472 755 440 750 408 c 2
 744 372 l 2
 729 279 696 186 635 113 c 1
 734 23 l 1
 695 -19 l 1
 597 73 l 1
 536 18 454 -17 347 -17 c 0
 136 -17 66 120 66 276 c 0
 66 307 69 340 74 372 c 2
379 276 m 1
 415 314 l 1
 589 155 l 1
 631 213 658 288 671 372 c 2
 677 408 l 2
 682 440 685 471 685 500 c 0
 685 642 621 743 468 743 c 0
 283 743 183 597 153 408 c 2
 147 372 l 2
 142 340 139 309 139 280 c 0
 139 138 203 37 356 37 c 0
 438 37 503 66 553 114 c 1
 379 276 l 1
EndSplineSet
EndChar

StartChar: R
Encoding: 82 82 54
Width: 730
GlyphClass: 2
Flags: W
AnchorPoint: "LatinBelow.mark" 300 0 basechar 0
AnchorPoint: "LatinAbove.mark" 324 150 basechar 0
LayerCount: 2
Fore
SplineSet
176 394 m 1
 217 392 281 390 345 390 c 0
 482 390 595 442 614 564 c 0
 616 574 616 585 616 594 c 0
 616 695 525 737 400 737 c 0
 336 737 271 735 230 733 c 1
 176 394 l 1
323 338 m 1
 267 338 211 341 168 343 c 1
 114 0 l 1
 45 0 l 1
 100 347 l 1
 169 780 l 1
 206 783 311 789 414 789 c 0
 574 789 687 724 687 599 c 0
 687 588 686 576 684 564 c 0
 663 432 546 356 399 341 c 1
 626 4 l 1
 625 0 l 1
 544 0 l 1
 323 338 l 1
EndSplineSet
EndChar

StartChar: S
Encoding: 83 83 55
Width: 710
GlyphClass: 2
Flags: W
AnchorPoint: "LatinCedilla.mark" 320 0 basechar 0
AnchorPoint: "LatinBelow.mark" 295 0 basechar 0
AnchorPoint: "LatinAbove.mark" 319 150 basechar 0
LayerCount: 2
Fore
SplineSet
38 175 m 1
 108 184 l 1
 109 119 164 36 302 36 c 0
 444 36 528 99 543 194 c 0
 544 203 545 211 545 219 c 0
 545 290 491 322 446 336 c 0
 391 352 308 381 251 403 c 0
 193 426 121 472 121 560 c 0
 121 569 121 578 123 588 c 0
 142 710 262 797 422 797 c 0
 588 797 654 687 656 609 c 1
 585 600 l 1
 583 665 532 744 414 744 c 0
 292 744 208 684 193 591 c 0
 192 584 191 577 191 571 c 0
 191 509 243 479 291 460 c 0
 346 439 427 411 480 395 c 0
 545 375 614 326 614 231 c 0
 614 220 613 208 611 196 c 0
 592 73 473 -17 293 -17 c 0
 109 -17 40 96 38 175 c 1
EndSplineSet
EndChar

StartChar: T
Encoding: 84 84 56
Width: 620
GlyphClass: 2
Flags: W
AnchorPoint: "LatinCedilla.mark" 260 0 basechar 0
AnchorPoint: "LatinBelow.mark" 250 0 basechar 0
AnchorPoint: "LatinAbove.mark" 274 150 basechar 0
LayerCount: 2
Fore
SplineSet
100 726 m 1
 109 780 l 1
 639 780 l 1
 630 726 l 1
 400 726 l 1
 285 0 l 1
 215 0 l 1
 330 726 l 1
 100 726 l 1
EndSplineSet
EndChar

StartChar: U
Encoding: 85 85 57
Width: 770
GlyphClass: 2
Flags: W
AnchorPoint: "LatinOgonek.mark" 420 0 basechar 0
AnchorPoint: "LatinBelow.mark" 325 0 basechar 0
AnchorPoint: "LatinAbove.mark" 349 150 basechar 0
LayerCount: 2
Fore
SplineSet
72 232 m 2
 159 780 l 1
 230 780 l 1
 143 232 l 2
 141 219 140 207 140 195 c 0
 140 94 215 37 331 37 c 0
 461 37 561 108 581 232 c 2
 668 780 l 1
 739 780 l 1
 652 232 l 2
 629 86 497 -17 322 -17 c 0
 164 -17 69 67 69 191 c 0
 69 204 70 218 72 232 c 2
EndSplineSet
EndChar

StartChar: V
Encoding: 86 86 58
Width: 750
GlyphClass: 2
Flags: W
AnchorPoint: "LatinBelow.mark" 315 0 basechar 0
AnchorPoint: "LatinAbove.mark" 339 150 basechar 0
LayerCount: 2
Fore
SplineSet
97 769 m 1
 98 774 l 1
 182 780 l 1
 328 84 l 1
 696 780 l 1
 778 774 l 1
 777 769 l 1
 346 0 l 1
 284 0 l 1
 97 769 l 1
EndSplineSet
EndChar

StartChar: W
Encoding: 87 87 59
Width: 1060
GlyphClass: 2
Flags: W
AnchorPoint: "LatinBelow.mark" 470 0 basechar 0
AnchorPoint: "LatinAbove.mark" 494 150 basechar 0
LayerCount: 2
Fore
SplineSet
1082 769 m 1
 728 0 l 1
 665 0 l 1
 574 659 l 1
 275 0 l 1
 212 0 l 1
 102 769 l 1
 102 773 l 1
 182 780 l 1
 263 96 l 1
 560 760 l 1
 620 760 l 1
 707 96 l 1
 1006 780 l 1
 1082 773 l 1
 1082 769 l 1
EndSplineSet
EndChar

StartChar: X
Encoding: 88 88 60
Width: 740
GlyphClass: 2
Flags: W
AnchorPoint: "LatinBelow.mark" 310 0 basechar 0
AnchorPoint: "LatinAbove.mark" 334 150 basechar 0
LayerCount: 2
Fore
SplineSet
132 768 m 1
 132 773 l 1
 211 780 l 1
 383 459 l 1
 657 780 l 1
 732 773 l 1
 732 768 l 1
 416 415 l 1
 661 5 l 1
 660 0 l 1
 578 0 l 1
 367 361 l 1
 42 0 l 1
 -40 0 l 1
 -39 5 l 1
 336 415 l 1
 132 768 l 1
EndSplineSet
EndChar

StartChar: Y
Encoding: 89 89 61
Width: 670
GlyphClass: 2
Flags: W
AnchorPoint: "LatinBelow.mark" 275 0 basechar 0
AnchorPoint: "LatinAbove.mark" 299 150 basechar 0
LayerCount: 2
Fore
SplineSet
87 769 m 1
 88 774 l 1
 168 780 l 1
 334 373 l 1
 630 780 l 1
 708 774 l 1
 707 769 l 1
 358 304 l 1
 310 0 l 1
 240 0 l 1
 288 304 l 1
 87 769 l 1
EndSplineSet
EndChar

StartChar: Z
Encoding: 90 90 62
Width: 670
GlyphClass: 2
Flags: W
AnchorPoint: "LatinBelow.mark" 275 0 basechar 0
AnchorPoint: "LatinAbove.mark" 299 150 basechar 0
LayerCount: 2
Fore
SplineSet
-4 41 m 1
 570 724 l 1
 127 724 l 1
 136 780 l 1
 668 780 l 1
 667 739 l 1
 94 56 l 1
 569 56 l 1
 560 0 l 1
 -5 0 l 1
 -4 41 l 1
EndSplineSet
EndChar

StartChar: bracketleft
Encoding: 91 91 63
Width: 435
GlyphClass: 2
Flags: W
LayerCount: 2
Fore
SplineSet
56 -120 m 1
 218 900 l 1
 413 900 l 1
 406 856 l 1
 269 856 l 1
 121 -76 l 1
 256 -76 l 1
 249 -120 l 1
 56 -120 l 1
EndSplineSet
EndChar

StartChar: backslash
Encoding: 92 92 64
Width: 510
GlyphClass: 2
Flags: W
LayerCount: 2
Fore
SplineSet
390 0 m 1
 330 0 l 1
 123 776 l 1
 124 780 l 1
 185 780 l 1
 391 4 l 1
 390 0 l 1
EndSplineSet
EndChar

StartChar: bracketright
Encoding: 93 93 65
Width: 435
GlyphClass: 2
Flags: W
LayerCount: 2
Fore
SplineSet
383 900 m 1
 221 -120 l 1
 26 -120 l 1
 33 -76 l 1
 170 -76 l 1
 318 856 l 1
 183 856 l 1
 190 900 l 1
 383 900 l 1
EndSplineSet
EndChar

StartChar: asciicircum
Encoding: 94 94 66
Width: 630
GlyphClass: 2
Flags: W
LayerCount: 2
Fore
SplineSet
77 582 m 1
 379 877 l 1
 409 877 l 1
 617 582 l 1
 578 557 l 1
 382 805 l 1
 108 557 l 1
 77 582 l 1
EndSplineSet
EndChar

StartChar: underscore
Encoding: 95 95 67
Width: 600
GlyphClass: 2
Flags: W
LayerCount: 2
Fore
SplineSet
-60 0 m 1
 540 0 l 1
 532 -52 l 1
 -68 -52 l 1
 -60 0 l 1
EndSplineSet
EndChar

StartChar: grave
Encoding: 96 96 68
Width: 390
GlyphClass: 2
Flags: W
LayerCount: 2
Fore
SplineSet
88 837 m 1
 146 875 l 1
 377 582 l 1
 338 557 l 1
 88 837 l 1
EndSplineSet
EndChar

StartChar: a
Encoding: 97 97 69
Width: 625
GlyphClass: 2
Flags: W
AnchorPoint: "LatinOgonek.mark" 455 0 basechar 0
AnchorPoint: "LatinBelow.mark" 270 0 basechar 0
AnchorPoint: "LatinAbove.mark" 250 0 basechar 0
LayerCount: 2
Fore
SplineSet
37 171 m 0
 49 249 122 316 240 316 c 0
 321 316 397 309 448 302 c 1
 467 425 l 2
 469 435 469 444 469 453 c 0
 469 528 414 567 330 567 c 0
 238 567 176 513 151 433 c 1
 84 438 l 1
 112 531 200 617 338 617 c 0
 461 617 535 553 535 457 c 0
 535 447 534 436 532 425 c 2
 486 132 l 2
 484 120 483 110 483 100 c 0
 483 58 502 38 545 33 c 1
 521 -12 l 1
 476 -6 426 16 426 90 c 2
 426 103 l 1
 382 43 315 -12 215 -12 c 0
 104 -12 34 43 34 138 c 0
 34 149 35 159 37 171 c 0
444 259 m 1
 399 265 327 275 237 275 c 0
 168 275 112 236 102 171 c 0
 100 161 100 152 100 143 c 0
 100 68 155 31 228 31 c 0
 341 31 406 126 435 204 c 1
 444 259 l 1
EndSplineSet
Substitution2: "Latin.ss20 subtable" uni0251
Substitution2: "Latin.ss19 subtable" uni0251
EndChar

StartChar: b
Encoding: 98 98 70
Width: 675
GlyphClass: 2
Flags: W
AnchorPoint: "LatinBelow.mark" 300 0 basechar 0
AnchorPoint: "LatinAbove.mark" 104 180 basechar 0
LayerCount: 2
Fore
SplineSet
595 313 m 2
 590 287 l 1
 567 142 480 -12 295 -12 c 0
 197 -12 146 50 122 118 c 1
 97 0 l 1
 40 0 l 1
 168 810 l 1
 233 810 l 1
 182 489 l 1
 229 554 300 612 394 612 c 0
 548 612 601 505 601 385 c 0
 601 361 599 337 595 313 c 2
166 385 m 1
 139 215 l 1
 146 134 188 38 296 38 c 0
 424 38 500 141 523 287 c 1
 528 313 l 2
 532 338 534 361 534 383 c 0
 534 491 485 562 379 562 c 0
 271 562 199 466 166 385 c 1
EndSplineSet
EndChar

StartChar: c
Encoding: 99 99 71
Width: 605
GlyphClass: 2
Flags: W
AnchorPoint: "LatinCedilla.mark" 270 0 basechar 0
AnchorPoint: "LatinBelow.mark" 270 0 basechar 0
AnchorPoint: "LatinAbove.mark" 270 0 basechar 0
LayerCount: 2
Fore
SplineSet
55 287 m 2
 60 313 l 1
 83 460 169 617 369 617 c 0
 516 617 567 520 567 457 c 1
 499 451 l 1
 498 500 458 567 361 567 c 0
 228 567 151 459 128 313 c 1
 123 287 l 2
 119 262 117 239 117 217 c 0
 117 108 165 33 276 33 c 0
 373 33 435 100 452 149 c 1
 518 143 l 1
 498 80 415 -17 268 -17 c 0
 102 -17 49 91 49 212 c 0
 49 237 51 262 55 287 c 2
EndSplineSet
EndChar

StartChar: d
Encoding: 100 100 72
Width: 680
GlyphClass: 2
Flags: W
AnchorPoint: "LatinBelow.mark" 300 0 basechar 0
AnchorPoint: "LatinAbove.mark" 494 180 basechar 0
LayerCount: 2
Fore
SplineSet
55 287 m 2
 60 313 l 1
 83 458 170 612 355 612 c 0
 451 612 501 552 527 486 c 1
 578 810 l 1
 643 810 l 1
 536 132 l 2
 534 120 533 110 533 100 c 0
 533 58 552 38 595 33 c 1
 571 -12 l 1
 526 -7 475 15 475 89 c 0
 475 99 476 110 478 121 c 1
 474 120 l 1
 427 51 355 -12 256 -12 c 0
 102 -12 49 95 49 215 c 0
 49 239 51 263 55 287 c 2
511 385 m 1
 504 466 462 562 354 562 c 0
 226 562 150 459 127 313 c 1
 122 287 l 2
 118 262 116 239 116 217 c 0
 116 109 165 38 271 38 c 0
 379 38 451 134 484 215 c 1
 511 385 l 1
EndSplineSet
EndChar

StartChar: e
Encoding: 101 101 73
Width: 640
GlyphClass: 2
Flags: W
AnchorPoint: "LatinOgonek.mark" 350 0 basechar 0
AnchorPoint: "LatinBelow.mark" 270 0 basechar 0
AnchorPoint: "LatinAbove.mark" 270 0 basechar 0
LayerCount: 2
Fore
SplineSet
55 286 m 2
 60 314 l 2
 83 460 170 617 365 617 c 0
 504 617 572 528 572 414 c 0
 572 398 571 381 568 364 c 0
 564 341 558 316 549 293 c 1
 121 293 l 1
 120 286 l 2
 116 261 114 237 114 214 c 0
 114 106 161 32 272 32 c 0
 372 32 432 99 449 148 c 1
 513 142 l 1
 492 78 409 -17 264 -17 c 0
 101 -17 49 91 49 211 c 0
 49 236 51 261 55 286 c 2
129 337 m 1
 499 337 l 1
 501 346 504 355 505 364 c 0
 508 381 509 396 509 411 c 0
 509 511 452 569 357 569 c 0
 231 569 156 470 129 337 c 1
EndSplineSet
EndChar

StartChar: f
Encoding: 102 102 74
Width: 400
GlyphClass: 2
Flags: W
AnchorPoint: "LatinBelow.mark" 120 0 basechar 0
AnchorPoint: "LatinAbove.mark" 239 180 basechar 0
LayerCount: 2
Fore
SplineSet
68 556 m 1
 75 600 l 1
 175 600 l 1
 189 688 l 2
 199 748 247 827 354 827 c 0
 429 827 467 795 479 785 c 1
 442 748 l 1
 430 757 403 779 350 779 c 0
 294 779 262 737 254 688 c 2
 240 600 l 1
 405 600 l 1
 398 556 l 1
 235 556 l 1
 147 0 l 1
 80 0 l 1
 168 556 l 1
 68 556 l 1
EndSplineSet
EndChar

StartChar: g
Encoding: 103 103 75
Width: 670
GlyphClass: 2
Flags: W
AnchorPoint: "LatinBelow.mark" 271 -180 basechar 0
AnchorPoint: "LatinAbove.mark" 300 0 basechar 0
LayerCount: 2
Fore
SplineSet
60 315 m 0
 82 455 170 612 355 612 c 0
 453 612 503 548 528 479 c 1
 553 600 l 1
 610 600 l 1
 509 -36 l 2
 491 -149 390 -227 253 -227 c 0
 117 -227 54 -159 47 -112 c 1
 112 -95 l 1
 117 -127 160 -179 261 -179 c 0
 358 -179 431 -129 446 -36 c 2
 476 151 l 1
 430 82 359 18 261 18 c 0
 106 18 54 128 54 246 c 0
 54 269 56 292 60 315 c 0
510 381 m 1
 503 463 462 562 354 562 c 0
 226 562 149 456 127 315 c 0
 123 292 122 269 122 248 c 0
 122 142 169 68 276 68 c 0
 384 68 456 167 489 249 c 1
 510 381 l 1
EndSplineSet
Substitution2: "Latin.ss20 subtable" g.alt
Substitution2: "Latin.ss18 subtable" g.alt
EndChar

StartChar: h
Encoding: 104 104 76
Width: 665
GlyphClass: 2
Flags: W
AnchorPoint: "LatinBelow.mark" 300 0 basechar 0
AnchorPoint: "LatinAbove.mark" 104 180 basechar 0
LayerCount: 2
Fore
SplineSet
40 0 m 1
 168 810 l 1
 233 810 l 1
 171 414 l 1
 227 512 320 612 445 612 c 0
 545 612 590 551 590 467 c 0
 590 454 589 440 587 426 c 2
 520 0 l 1
 453 0 l 1
 520 424 l 2
 522 437 523 448 523 459 c 0
 523 527 483 558 421 558 c 0
 299 558 191 418 155 305 c 1
 107 0 l 1
 40 0 l 1
EndSplineSet
EndChar

StartChar: i
Encoding: 105 105 77
Width: 300
GlyphClass: 3
Flags: W
AnchorPoint: "LatinOgonek.mark" 95 0 basechar 0
AnchorPoint: "LatinBelow.mark" 90 0 basechar 0
AnchorPoint: "LatinAbove.mark" 119 180 basechar 0
LayerCount: 2
Fore
SplineSet
56 0 m 1
 151 600 l 1
 219 600 l 1
 124 0 l 1
 56 0 l 1
223 841 m 0
 256 841 280 822 280 791 c 0
 280 788 280 784 279 780 c 0
 273 743 241 719 204 719 c 0
 171 719 148 738 148 769 c 0
 148 773 148 776 149 780 c 0
 155 817 186 841 223 841 c 0
EndSplineSet
Substitution2: "Latin.ij.dotless subtable" dotlessi
Ligature2: "Latin.ij subtable" dotlessi uni0307
EndChar

StartChar: j
Encoding: 106 106 78
Width: 310
GlyphClass: 3
Flags: W
AnchorPoint: "LatinBelow.mark" 61 -180 basechar 0
AnchorPoint: "LatinAbove.mark" 119 180 basechar 0
LayerCount: 2
Fore
SplineSet
-83 -178 m 1
 -9 -151 50 -109 63 -24 c 2
 162 600 l 1
 228 600 l 1
 129 -27 l 2
 112 -132 26 -191 -69 -222 c 1
 -83 -178 l 1
233 841 m 0
 266 841 290 822 290 791 c 0
 290 788 290 784 289 780 c 0
 283 743 251 719 214 719 c 0
 181 719 158 738 158 769 c 0
 158 773 158 776 159 780 c 0
 165 817 196 841 233 841 c 0
EndSplineSet
Substitution2: "Latin.ij.dotless subtable" uni0237
Ligature2: "Latin.ij subtable" uni0237 uni0307
Ligature2: "Latin.ij subtable" uni0237 uni200D uni0307
Ligature2: "Latin.ij subtable" dotlessi uni200D uni0307
EndChar

StartChar: k
Encoding: 107 107 79
Width: 605
GlyphClass: 2
Flags: W
AnchorPoint: "LatinBelow.mark" 300 0 basechar 0
AnchorPoint: "LatinAbove.mark" 104 180 basechar 0
LayerCount: 2
Fore
SplineSet
50 0 m 1
 178 810 l 1
 242 810 l 1
 158 280 l 1
 508 600 l 1
 579 595 l 1
 579 592 l 1
 303 347 l 1
 525 3 l 1
 525 0 l 1
 448 0 l 1
 254 304 l 1
 147 208 l 1
 114 0 l 1
 50 0 l 1
EndSplineSet
EndChar

StartChar: l
Encoding: 108 108 80
Width: 315
GlyphClass: 2
Flags: W
AnchorPoint: "LatinBelow.mark" 130 0 basechar 0
AnchorPoint: "LatinAbove.mark" 109 180 basechar 0
LayerCount: 2
Fore
SplineSet
69 117 m 2
 178 810 l 1
 245 810 l 1
 136 122 l 2
 135 116 135 110 135 105 c 0
 135 54 177 39 240 34 c 1
 219 -12 l 1
 150 -6 67 13 67 95 c 0
 67 102 68 109 69 117 c 2
EndSplineSet
EndChar

StartChar: m
Encoding: 109 109 81
Width: 945
GlyphClass: 2
Flags: W
AnchorPoint: "LatinBelow.mark" 420 0 basechar 0
AnchorPoint: "LatinAbove.mark" 420 0 basechar 0
LayerCount: 2
Fore
SplineSet
125 597 m 1
 186 603 l 1
 175 447 l 1
 219 528 288 604 389 604 c 0
 481 604 524 546 524 465 c 0
 524 460 523 455 523 449 c 1
 567 530 635 604 736 604 c 0
 828 604 870 546 870 466 c 0
 870 453 869 439 867 425 c 2
 800 0 l 1
 733 0 l 1
 800 423 l 2
 802 435 803 447 803 457 c 0
 803 522 767 551 712 551 c 0
 607 551 533 425 504 322 c 1
 453 0 l 1
 387 0 l 1
 454 423 l 2
 456 435 457 447 457 457 c 0
 457 522 420 551 365 551 c 0
 260 551 187 425 158 322 c 1
 107 0 l 1
 40 0 l 1
 107 420 l 1
 125 597 l 1
EndSplineSet
EndChar

StartChar: n
Encoding: 110 110 82
Width: 655
GlyphClass: 2
Flags: W
AnchorPoint: "LatinBelow.mark" 300 0 basechar 0
AnchorPoint: "LatinAbove.mark" 270 0 basechar 0
LayerCount: 2
Fore
SplineSet
40 0 m 1
 107 420 l 1
 125 597 l 1
 186 603 l 1
 174 421 l 1
 229 517 320 612 439 612 c 0
 536 612 580 551 580 468 c 0
 580 455 579 440 577 426 c 2
 510 0 l 1
 443 0 l 1
 510 424 l 2
 512 437 513 448 513 459 c 0
 513 527 474 558 415 558 c 0
 296 558 190 418 155 305 c 1
 107 0 l 1
 40 0 l 1
EndSplineSet
Substitution2: "Latin.sups subtable" n.sups
EndChar

StartChar: o
Encoding: 111 111 83
Width: 660
GlyphClass: 2
Flags: W
AnchorPoint: "LatinOgonek.mark" 340 0 basechar 0
AnchorPoint: "LatinBelow.mark" 270 0 basechar 0
AnchorPoint: "LatinAbove.mark" 270 0 basechar 0
LayerCount: 2
Fore
SplineSet
55 286 m 2
 60 314 l 2
 83 460 168 617 368 617 c 0
 534 617 586 509 586 389 c 0
 586 364 584 339 580 314 c 2
 575 286 l 2
 552 140 467 -17 267 -17 c 0
 101 -17 49 91 49 211 c 0
 49 236 51 261 55 286 c 2
275 33 m 0
 409 33 485 140 508 286 c 2
 513 314 l 2
 517 339 519 363 519 385 c 0
 519 493 471 567 360 567 c 0
 226 567 150 460 127 314 c 2
 122 286 l 2
 118 261 116 237 116 215 c 0
 116 107 164 33 275 33 c 0
EndSplineSet
EndChar

StartChar: p
Encoding: 112 112 84
Width: 675
GlyphClass: 2
Flags: W
AnchorPoint: "LatinBelow.mark" 61 -180 basechar 0
AnchorPoint: "LatinAbove.mark" 270 0 basechar 0
LayerCount: 2
Fore
SplineSet
595 313 m 2
 590 287 l 1
 567 142 480 -12 295 -12 c 0
 201 -12 151 46 125 111 c 1
 74 -210 l 1
 7 -210 l 1
 107 420 l 1
 125 597 l 1
 186 603 l 1
 177 482 l 1
 224 550 297 612 394 612 c 0
 548 612 601 505 601 385 c 0
 601 361 599 337 595 313 c 2
140 207 m 1
 149 127 191 38 296 38 c 0
 424 38 500 141 523 287 c 1
 528 313 l 2
 532 338 534 361 534 383 c 0
 534 491 485 562 379 562 c 0
 274 562 204 473 169 393 c 1
 140 207 l 1
EndSplineSet
EndChar

StartChar: q
Encoding: 113 113 85
Width: 675
GlyphClass: 2
Flags: W
AnchorPoint: "LatinBelow.mark" 437 -240 basechar 0
AnchorPoint: "LatinAbove.mark" 300 0 basechar 0
LayerCount: 2
Fore
SplineSet
55 287 m 2
 60 313 l 1
 83 458 170 612 355 612 c 0
 453 612 504 550 528 482 c 1
 553 600 l 1
 610 600 l 1
 482 -210 l 1
 417 -210 l 1
 468 111 l 1
 421 46 350 -12 256 -12 c 0
 102 -12 49 95 49 215 c 0
 49 239 51 263 55 287 c 2
484 215 m 1
 511 385 l 1
 504 466 462 562 354 562 c 0
 226 562 150 459 127 313 c 1
 122 287 l 2
 118 262 116 239 116 217 c 0
 116 109 165 38 271 38 c 0
 379 38 451 134 484 215 c 1
EndSplineSet
EndChar

StartChar: r
Encoding: 114 114 86
Width: 435
GlyphClass: 2
Flags: W
AnchorPoint: "LatinBelow.mark" 110 0 basechar 0
AnchorPoint: "LatinAbove.mark" 180 0 basechar 0
LayerCount: 2
Fore
SplineSet
119 596 m 1
 178 603 l 1
 185 442 l 1
 222 528 285 612 387 612 c 0
 414 612 437 607 455 598 c 1
 420 542 l 1
 406 549 389 553 368 553 c 0
 269 553 209 439 181 338 c 1
 127 0 l 1
 60 0 l 1
 127 420 l 1
 119 596 l 1
EndSplineSet
EndChar

StartChar: s
Encoding: 115 115 87
Width: 570
GlyphClass: 2
Flags: W
AnchorPoint: "LatinCedilla.mark" 250 0 basechar 0
AnchorPoint: "LatinBelow.mark" 225 0 basechar 0
AnchorPoint: "LatinAbove.mark" 225 0 basechar 0
LayerCount: 2
Fore
SplineSet
21 134 m 1
 87 142 l 1
 87 92 129 32 232 32 c 0
 335 32 399 78 410 149 c 0
 411 155 411 161 411 167 c 0
 411 220 371 246 338 256 c 0
 295 270 232 291 190 307 c 0
 144 324 86 359 86 429 c 0
 86 436 87 444 88 452 c 0
 103 547 196 617 323 617 c 0
 456 617 507 531 508 469 c 1
 442 461 l 1
 441 510 405 568 315 568 c 0
 225 568 163 524 152 454 c 0
 151 449 151 444 151 439 c 0
 151 392 189 368 224 356 c 0
 266 341 331 320 371 307 c 0
 422 291 476 255 476 179 c 0
 476 170 476 161 474 151 c 0
 459 54 362 -17 222 -17 c 0
 76 -17 22 71 21 134 c 1
EndSplineSet
EndChar

StartChar: t
Encoding: 116 116 88
Width: 415
GlyphClass: 2
Flags: W
AnchorPoint: "LatinCedilla.mark" 210 0 basechar 0
AnchorPoint: "LatinBelow.mark" 220 0 basechar 0
AnchorPoint: "LatinAbove.mark" 139 120 basechar 0
LayerCount: 2
Fore
SplineSet
68 556 m 1
 75 600 l 1
 177 600 l 1
 198 730 l 1
 262 735 l 1
 241 600 l 1
 405 600 l 1
 398 556 l 1
 235 556 l 1
 166 123 l 2
 164 111 163 101 163 92 c 0
 163 50 184 37 222 37 c 0
 269 37 316 54 334 65 c 1
 343 20 l 1
 315 4 263 -12 207 -12 c 0
 139 -12 95 16 95 84 c 0
 95 93 96 104 98 115 c 2
 168 556 l 1
 68 556 l 1
EndSplineSet
EndChar

StartChar: u
Encoding: 117 117 89
Width: 620
GlyphClass: 2
Flags: W
AnchorPoint: "LatinOgonek.mark" 320 0 basechar 0
AnchorPoint: "LatinBelow.mark" 250 0 basechar 0
AnchorPoint: "LatinAbove.mark" 250 0 basechar 0
LayerCount: 2
Fore
SplineSet
49 181 m 2
 115 600 l 1
 182 600 l 1
 116 181 l 2
 114 171 114 161 114 152 c 0
 114 75 169 33 255 33 c 0
 351 33 427 86 442 181 c 2
 508 600 l 1
 575 600 l 1
 509 181 l 2
 491 66 387 -17 247 -17 c 0
 121 -17 46 50 46 148 c 0
 46 159 47 170 49 181 c 2
EndSplineSet
EndChar

StartChar: v
Encoding: 118 118 90
Width: 600
GlyphClass: 2
Flags: W
AnchorPoint: "LatinBelow.mark" 240 0 basechar 0
AnchorPoint: "LatinAbove.mark" 240 0 basechar 0
LayerCount: 2
Fore
SplineSet
55 588 m 1
 56 593 l 1
 155 600 l 1
 256 100 l 1
 515 600 l 1
 612 593 l 1
 611 588 l 1
 276 0 l 1
 204 0 l 1
 55 588 l 1
EndSplineSet
EndChar

StartChar: w
Encoding: 119 119 91
Width: 830
GlyphClass: 2
Flags: W
AnchorPoint: "LatinBelow.mark" 355 0 basechar 0
AnchorPoint: "LatinAbove.mark" 355 0 basechar 0
LayerCount: 2
Fore
SplineSet
828 590 m 1
 557 0 l 1
 499 0 l 1
 433 490 l 1
 211 0 l 1
 153 0 l 1
 68 590 l 1
 69 594 l 1
 141 600 l 1
 201 93 l 1
 420 585 l 1
 476 585 l 1
 539 93 l 1
 759 600 l 1
 829 594 l 1
 828 590 l 1
EndSplineSet
EndChar

StartChar: x
Encoding: 120 120 92
Width: 600
GlyphClass: 2
Flags: W
AnchorPoint: "LatinBelow.mark" 240 0 basechar 0
AnchorPoint: "LatinAbove.mark" 240 0 basechar 0
LayerCount: 2
Fore
SplineSet
99 591 m 1
 99 595 l 1
 171 600 l 1
 298 366 l 1
 499 600 l 1
 569 595 l 1
 569 591 l 1
 328 325 l 1
 515 3 l 1
 515 0 l 1
 441 0 l 1
 283 274 l 1
 39 0 l 1
 -35 0 l 1
 -35 3 l 1
 254 325 l 1
 99 591 l 1
EndSplineSet
EndChar

StartChar: y
Encoding: 121 121 93
Width: 600
GlyphClass: 2
Flags: W
AnchorPoint: "LatinBelow.mark" 211 -180 basechar 0
AnchorPoint: "LatinAbove.mark" 240 0 basechar 0
LayerCount: 2
Fore
SplineSet
64 591 m 1
 64 595 l 1
 137 600 l 1
 252 74 l 1
 533 600 l 1
 604 595 l 1
 604 591 l 1
 251 -34 l 2
 205 -110 139 -227 43 -227 c 0
 -4 -227 -30 -204 -49 -185 c 1
 -9 -143 l 1
 6 -161 21 -180 49 -180 c 0
 100 -180 149 -101 197 -21 c 2
 211 3 l 1
 64 591 l 1
EndSplineSet
EndChar

StartChar: z
Encoding: 122 122 94
Width: 530
GlyphClass: 2
Flags: W
AnchorPoint: "LatinBelow.mark" 205 0 basechar 0
AnchorPoint: "LatinAbove.mark" 205 0 basechar 0
LayerCount: 2
Fore
SplineSet
-9 36 m 1
 416 551 l 1
 90 551 l 1
 98 600 l 1
 508 600 l 1
 507 564 l 1
 82 49 l 1
 433 49 l 1
 425 0 l 1
 -11 0 l 1
 -9 36 l 1
EndSplineSet
EndChar

StartChar: braceleft
Encoding: 123 123 95
Width: 390
GlyphClass: 2
Flags: W
LayerCount: 2
Fore
SplineSet
60 376 m 1
 62 390 l 1
 64 404 l 1
 106 409 169 450 183 537 c 0
 184 545 185 555 185 566 c 0
 185 600 181 646 181 687 c 0
 181 706 182 725 184 740 c 0
 200 840 261 900 343 900 c 2
 383 900 l 1
 377 863 l 1
 344 863 l 2
 302 863 260 835 244 737 c 0
 242 723 241 706 241 688 c 0
 241 653 244 613 244 579 c 0
 244 561 243 545 241 532 c 0
 229 457 181 410 133 390 c 1
 169 373 198 336 198 278 c 0
 198 269 198 259 196 248 c 0
 188 199 142 96 134 43 c 0
 131 26 130 11 130 -2 c 0
 130 -64 159 -83 194 -83 c 2
 227 -83 l 1
 221 -120 l 1
 181 -120 l 2
 111 -120 70 -76 70 0 c 0
 70 12 71 26 73 40 c 0
 82 99 130 202 136 243 c 0
 138 253 138 263 138 272 c 0
 138 339 95 372 60 376 c 1
EndSplineSet
EndChar

StartChar: bar
Encoding: 124 124 96
Width: 360
GlyphClass: 2
Flags: W
LayerCount: 2
Fore
SplineSet
71 -120 m 1
 233 900 l 1
 293 900 l 1
 131 -120 l 1
 71 -120 l 1
EndSplineSet
EndChar

StartChar: braceright
Encoding: 125 125 97
Width: 390
GlyphClass: 2
Flags: W
LayerCount: 2
Fore
SplineSet
334 404 m 1
 332 390 l 1
 330 376 l 1
 288 371 224 330 210 243 c 0
 209 235 208 225 208 214 c 0
 208 180 212 134 212 93 c 0
 212 74 211 55 209 40 c 0
 193 -60 133 -120 51 -120 c 2
 11 -120 l 1
 17 -83 l 1
 50 -83 l 2
 92 -83 134 -55 150 43 c 0
 152 56 153 71 153 88 c 0
 153 125 149 169 149 205 c 0
 149 221 150 236 152 248 c 0
 164 323 213 370 261 390 c 1
 225 407 195 444 195 502 c 0
 195 511 195 522 197 532 c 0
 205 581 252 684 260 737 c 0
 263 754 264 769 264 782 c 0
 264 844 235 863 200 863 c 2
 167 863 l 1
 173 900 l 1
 213 900 l 2
 283 900 323 856 323 780 c 0
 323 767 322 754 320 740 c 0
 311 681 263 578 257 537 c 0
 255 527 255 518 255 509 c 0
 255 441 299 408 334 404 c 1
EndSplineSet
EndChar

StartChar: asciitilde
Encoding: 126 126 98
Width: 600
GlyphClass: 2
Flags: W
LayerCount: 2
Fore
SplineSet
53 334 m 1
 83 391 133 473 214 473 c 0
 269 473 300 437 324 408 c 0
 349 378 369 356 398 356 c 0
 444 356 487 414 508 460 c 1
 551 446 l 1
 523 389 471 307 390 307 c 0
 335 307 304 343 280 372 c 0
 255 402 234 424 205 424 c 0
 158 424 118 366 96 320 c 1
 53 334 l 1
EndSplineSet
EndChar

StartChar: exclamdown
Encoding: 161 161 100
Width: 330
GlyphClass: 2
Flags: W
LayerCount: 2
Fore
SplineSet
114 -210 m 1
 30 -210 l 1
 133 330 l 1
 181 330 l 1
 114 -210 l 1
181 480 m 0
 148 480 125 499 125 530 c 0
 125 534 125 537 126 541 c 0
 132 578 163 602 200 602 c 0
 233 602 257 583 257 552 c 0
 257 549 257 545 256 541 c 0
 250 504 218 480 181 480 c 0
EndSplineSet
EndChar

StartChar: cent
Encoding: 162 162 101
Width: 605
GlyphClass: 2
Flags: W
LayerCount: 2
Fore
SplineSet
60 317 m 2
 64 343 l 2
 86 483 166 633 347 646 c 1
 369 780 l 1
 421 780 l 1
 399 646 l 1
 526 635 572 546 572 487 c 1
 504 481 l 1
 503 525 469 584 391 595 c 1
 307 65 l 1
 389 76 441 135 456 179 c 1
 522 173 l 1
 504 114 430 25 299 14 c 1
 278 -120 l 1
 226 -120 l 1
 247 14 l 1
 101 25 54 128 54 242 c 0
 54 267 56 292 60 317 c 2
255 64 m 1
 339 596 l 1
 222 583 154 479 132 343 c 2
 128 317 l 2
 124 292 122 269 122 246 c 0
 122 146 163 75 255 64 c 1
EndSplineSet
EndChar

StartChar: sterling
Encoding: 163 163 102
Width: 660
GlyphClass: 2
Flags: W
LayerCount: 2
Fore
SplineSet
88 369 m 1
 95 411 l 1
 197 411 l 1
 221 563 l 2
 229 614 263 797 440 797 c 0
 581 797 599 683 602 642 c 1
 534 635 l 1
 531 680 517 748 432 748 c 0
 329 748 298 625 288 563 c 2
 264 411 l 1
 505 411 l 1
 498 369 l 1
 257 369 l 1
 246 294 l 2
 228 181 194 103 129 49 c 1
 538 49 l 1
 530 0 l 1
 36 0 l 1
 36 41 l 1
 114 95 159 165 179 294 c 2
 190 369 l 1
 88 369 l 1
EndSplineSet
EndChar

StartChar: currency
Encoding: 164 164 103
Width: 720
GlyphClass: 2
Flags: W
LayerCount: 2
Fore
SplineSet
611 139 m 1
 568 101 l 1
 475 212 l 1
 434 185 383 168 327 168 c 0
 271 168 226 185 193 212 c 1
 64 101 l 1
 33 139 l 1
 160 249 l 1
 141 278 132 313 132 351 c 0
 132 364 133 377 135 390 c 0
 143 443 168 492 205 531 c 1
 113 641 l 1
 156 679 l 1
 249 568 l 1
 290 595 341 612 397 612 c 0
 453 612 498 595 531 568 c 1
 660 679 l 1
 691 641 l 1
 563 531 l 1
 582 501 592 466 592 427 c 0
 592 415 591 403 589 390 c 0
 581 337 555 288 518 249 c 1
 611 139 l 1
335 220 m 0
 432 220 510 289 526 390 c 0
 528 402 529 412 529 423 c 0
 529 506 475 560 389 560 c 0
 292 560 214 491 198 390 c 0
 196 378 195 368 195 357 c 0
 195 274 249 220 335 220 c 0
EndSplineSet
EndChar

StartChar: yen
Encoding: 165 165 104
Width: 660
GlyphClass: 2
Flags: W
LayerCount: 2
Fore
SplineSet
101 324 m 1
 108 366 l 1
 261 366 l 1
 102 769 l 1
 103 774 l 1
 183 780 l 1
 329 373 l 1
 605 780 l 1
 683 774 l 1
 682 769 l 1
 395 366 l 1
 548 366 l 1
 541 324 l 1
 365 324 l 1
 354 308 l 1
 339 216 l 1
 524 216 l 1
 518 174 l 1
 333 174 l 1
 305 0 l 1
 235 0 l 1
 263 174 l 1
 78 174 l 1
 84 216 l 1
 269 216 l 1
 284 308 l 1
 277 324 l 1
 101 324 l 1
EndSplineSet
EndChar

StartChar: brokenbar
Encoding: 166 166 105
Width: 360
GlyphClass: 2
Flags: W
LayerCount: 2
Fore
SplineSet
161 450 m 1
 233 900 l 1
 293 900 l 1
 221 450 l 1
 161 450 l 1
71 -120 m 1
 142 330 l 1
 202 330 l 1
 131 -120 l 1
 71 -120 l 1
EndSplineSet
EndChar

StartChar: section
Encoding: 167 167 106
Width: 660
GlyphClass: 2
Flags: W
LayerCount: 2
Fore
SplineSet
156 622 m 0
 174 738 273 827 412 827 c 0
 556 827 605 717 605 641 c 2
 605 639 l 1
 539 634 l 1
 539 636 l 2
 539 702 499 778 404 778 c 0
 308 778 237 720 221 622 c 0
 220 613 219 605 219 597 c 0
 219 535 261 504 298 486 c 0
 343 464 409 436 452 420 c 0
 505 401 559 352 559 264 c 0
 559 252 558 240 556 226 c 0
 548 173 519 126 477 89 c 1
 485 69 490 46 490 20 c 0
 490 8 489 -4 487 -17 c 0
 468 -135 369 -227 215 -227 c 0
 59 -227 4 -115 4 -37 c 2
 4 -35 l 1
 70 -30 l 1
 70 -32 l 2
 70 -99 113 -178 223 -178 c 0
 335 -178 406 -119 422 -17 c 0
 424 -5 425 6 425 16 c 0
 425 86 383 116 347 130 c 0
 302 147 236 175 189 197 c 0
 141 220 85 265 85 347 c 0
 85 357 85 367 87 378 c 0
 96 432 125 481 171 517 c 1
 160 537 153 561 153 589 c 0
 153 599 154 611 156 622 c 0
448 134 m 1
 469 157 485 187 491 226 c 0
 493 238 494 249 494 259 c 0
 494 328 453 360 417 373 c 0
 372 390 305 418 258 440 c 0
 239 449 218 462 201 479 c 1
 177 453 158 419 152 378 c 0
 151 370 150 361 150 354 c 0
 150 291 195 260 233 242 c 0
 278 220 340 193 383 177 c 0
 406 169 429 155 448 134 c 1
EndSplineSet
EndChar

StartChar: dieresis
Encoding: 168 168 107
Width: 510
GlyphClass: 2
Flags: W
LayerCount: 2
Fore
SplineSet
375 780 m 0
 381 816 411 838 446 838 c 0
 477 838 500 821 500 791 c 0
 500 788 500 784 499 780 c 0
 493 744 462 722 427 722 c 0
 396 722 374 740 374 769 c 0
 374 773 374 776 375 780 c 0
139 780 m 0
 145 816 175 838 210 838 c 0
 241 838 264 821 264 791 c 0
 264 788 264 784 263 780 c 0
 257 744 226 722 191 722 c 0
 160 722 138 740 138 769 c 0
 138 773 138 776 139 780 c 0
EndSplineSet
EndChar

StartChar: copyright
Encoding: 169 169 108
Width: 1020
GlyphClass: 2
Flags: W
LayerCount: 2
Fore
SplineSet
350 411 m 2
 365 505 421 607 553 607 c 0
 650 607 684 544 685 504 c 1
 635 499 l 1
 634 529 608 571 547 571 c 0
 463 571 415 505 400 411 c 2
 398 395 l 2
 395 379 394 363 394 349 c 0
 394 280 425 235 494 235 c 0
 555 235 594 277 605 307 c 1
 653 302 l 1
 640 262 586 199 489 199 c 0
 379 199 344 270 344 348 c 0
 344 364 345 379 348 395 c 2
 350 411 l 2
450 1 m 0
 228 1 97 138 97 331 c 0
 97 355 99 379 103 405 c 0
 140 637 328 809 578 809 c 0
 800 809 931 672 931 479 c 0
 931 455 929 431 925 405 c 0
 888 173 700 1 450 1 c 0
456 39 m 0
 680 39 849 189 883 405 c 0
 887 429 889 453 889 475 c 0
 889 653 771 771 572 771 c 0
 348 771 179 621 145 405 c 0
 141 381 139 357 139 335 c 0
 139 157 257 39 456 39 c 0
EndSplineSet
EndChar

StartChar: ordfeminine
Encoding: 170 170 109
Width: 313
GlyphClass: 2
Flags: W
LayerCount: 2
Fore
SplineSet
63 596 m 0
 69 634 106 670 169 670 c 0
 205 670 239 667 265 664 c 1
 274 721 l 2
 275 726 275 730 275 734 c 0
 275 769 249 786 211 786 c 0
 171 786 143 762 131 724 c 1
 86 728 l 1
 99 774 145 819 217 819 c 0
 281 819 318 785 318 737 c 0
 318 732 318 727 317 721 c 2
 295 578 l 2
 294 572 294 567 294 563 c 0
 294 544 303 536 324 534 c 1
 307 504 l 1
 285 506 257 516 256 554 c 1
 234 527 202 504 155 504 c 0
 97 504 62 531 62 579 c 0
 62 584 62 590 63 596 c 0
263 636 m 1
 241 639 207 643 167 643 c 0
 138 643 112 626 107 596 c 0
 106 591 106 587 106 583 c 0
 106 548 131 532 163 532 c 0
 217 532 246 577 259 615 c 1
 263 636 l 1
EndSplineSet
EndChar

StartChar: guillemotleft
Encoding: 171 171 110
Width: 780
GlyphClass: 2
Flags: W
LayerCount: 2
Fore
SplineSet
85 345 m 1
 89 375 l 1
 425 630 l 1
 444 595 l 1
 159 360 l 1
 370 125 l 1
 339 90 l 1
 85 345 l 1
365 345 m 1
 369 375 l 1
 705 630 l 1
 724 595 l 1
 439 360 l 1
 650 125 l 1
 619 90 l 1
 365 345 l 1
EndSplineSet
EndChar

StartChar: logicalnot
Encoding: 172 172 111
Width: 600
GlyphClass: 2
Flags: W
LayerCount: 2
Fore
SplineSet
98 334 m 1
 106 386 l 1
 496 386 l 1
 467 200 l 1
 404 200 l 1
 425 334 l 1
 98 334 l 1
EndSplineSet
EndChar

StartChar: uni00AD
Encoding: 173 173 112
Width: 450
GlyphClass: 2
Flags: W
LayerCount: 2
Fore
SplineSet
91 386 m 1
 361 386 l 1
 353 334 l 1
 83 334 l 1
 91 386 l 1
EndSplineSet
EndChar

StartChar: registered
Encoding: 174 174 113
Width: 870
GlyphClass: 2
Flags: W
LayerCount: 2
Fore
SplineSet
418 274 m 0
 237 274 132 384 132 540 c 0
 132 559 134 579 137 600 c 0
 167 787 319 926 522 926 c 0
 703 926 808 816 808 660 c 0
 808 641 806 621 803 600 c 0
 773 413 621 274 418 274 c 0
423 304 m 0
 602 304 739 425 767 600 c 0
 770 620 772 639 772 657 c 0
 772 801 676 896 517 896 c 0
 338 896 201 775 173 600 c 0
 170 580 168 561 168 543 c 0
 168 399 264 304 423 304 c 0
448 565 m 1
 425 565 404 565 386 566 c 1
 359 400 l 1
 312 400 l 1
 339 569 l 1
 374 790 l 1
 388 791 445 794 501 794 c 0
 583 794 642 760 642 698 c 0
 642 692 641 686 640 680 c 0
 630 616 573 576 500 567 c 1
 610 402 l 1
 609 400 l 1
 555 400 l 1
 448 565 l 1
391 601 m 1
 409 600 437 599 465 599 c 0
 529 599 583 622 592 680 c 0
 593 685 593 690 593 694 c 0
 593 742 549 760 490 760 c 0
 462 760 434 759 416 758 c 1
 391 601 l 1
EndSplineSet
EndChar

StartChar: macron
Encoding: 175 175 114
Width: 510
GlyphClass: 2
Flags: W
LayerCount: 2
Fore
SplineSet
135 757 m 1
 142 803 l 1
 502 803 l 1
 495 757 l 1
 135 757 l 1
EndSplineSet
EndChar

StartChar: degree
Encoding: 176 176 115
Width: 330
GlyphClass: 2
Flags: W
LayerCount: 2
Fore
SplineSet
210 664 m 0
 143 664 107 707 107 760 c 0
 107 767 108 773 109 780 c 0
 119 842 172 896 247 896 c 0
 314 896 351 853 351 800 c 0
 351 794 350 787 349 780 c 0
 339 718 285 664 210 664 c 0
216 698 m 0
 260 698 298 730 306 780 c 0
 307 786 307 791 307 796 c 0
 307 836 281 862 242 862 c 0
 198 862 160 830 152 780 c 0
 151 774 151 769 151 764 c 0
 151 724 177 698 216 698 c 0
EndSplineSet
EndChar

StartChar: plusminus
Encoding: 177 177 116
Width: 600
GlyphClass: 2
Flags: W
LayerCount: 2
Fore
SplineSet
77 199 m 1
 84 247 l 1
 474 247 l 1
 467 199 l 1
 77 199 l 1
120 473 m 1
 128 521 l 1
 293 521 l 1
 312 647 l 1
 372 647 l 1
 353 521 l 1
 518 521 l 1
 510 473 l 1
 345 473 l 1
 325 347 l 1
 265 347 l 1
 285 473 l 1
 120 473 l 1
EndSplineSet
EndChar

StartChar: two.sups
Encoding: 178 178 117
Width: 330
GlyphClass: 2
Flags: W
LayerCount: 2
Fore
SplineSet
62 528 m 0
 76 616 156 666 217 703 c 0
 260 729 301 756 308 800 c 0
 309 805 309 809 309 814 c 0
 309 842 295 874 243 874 c 0
 201 874 170 841 159 812 c 1
 111 817 l 1
 124 853 169 909 248 909 c 0
 338 909 355 854 355 817 c 0
 355 811 355 805 354 800 c 0
 344 738 283 700 241 674 c 0
 186 640 132 605 117 547 c 1
 318 547 l 1
 312 510 l 1
 62 510 l 1
 62 510 60 518 62 528 c 0
EndSplineSet
EndChar

StartChar: three.sups
Encoding: 179 179 118
Width: 330
GlyphClass: 2
Flags: W
LayerCount: 2
Fore
SplineSet
54 571 m 1
 102 580 l 1
 105 564 118 532 175 532 c 0
 249 532 273 578 278 612 c 0
 279 616 279 621 279 625 c 0
 279 655 262 686 205 686 c 2
 155 686 l 1
 160 720 l 1
 205 720 l 2
 243 720 286 748 294 796 c 0
 295 801 295 806 295 811 c 0
 295 839 282 870 230 870 c 0
 188 870 155 837 144 808 c 1
 97 814 l 1
 110 850 154 906 233 906 c 0
 323 906 340 850 340 813 c 0
 340 807 340 801 339 796 c 0
 332 751 301 724 269 708 c 1
 313 694 326 659 326 630 c 0
 326 625 326 620 325 615 c 0
 319 576 287 498 170 498 c 0
 82 498 59 549 54 571 c 1
EndSplineSet
EndChar

StartChar: acute
Encoding: 180 180 119
Width: 390
GlyphClass: 2
Flags: W
LayerCount: 2
Fore
SplineSet
448 837 m 1
 108 557 l 1
 77 582 l 1
 402 875 l 1
 448 837 l 1
EndSplineSet
EndChar

StartChar: mu
Encoding: 181 181 120
Width: 665
GlyphClass: 2
Flags: W
LayerCount: 2
Fore
SplineSet
135 600 m 1
 202 600 l 1
 154 295 l 1
 154 182 218 42 340 42 c 0
 412 42 466 84 481 176 c 2
 548 600 l 1
 615 600 l 1
 548 174 l 2
 532 70 462 -12 346 -12 c 0
 221 -12 158 88 134 186 c 1
 72 -210 l 1
 7 -210 l 1
 135 600 l 1
EndSplineSet
EndChar

StartChar: paragraph
Encoding: 182 182 121
Width: 725
GlyphClass: 2
Flags: W
LayerCount: 2
Fore
SplineSet
342 391 m 1
 397 736 l 1
 275 728 177 676 159 564 c 0
 157 554 156 543 156 534 c 0
 156 442 233 398 342 391 c 1
606 732 m 1
 571 734 516 737 457 737 c 1
 307 -210 l 1
 247 -210 l 1
 334 339 l 1
 188 345 86 410 86 528 c 0
 86 539 87 552 89 564 c 0
 112 712 257 789 431 789 c 0
 534 789 637 783 674 780 c 1
 517 -210 l 1
 457 -210 l 1
 606 732 l 1
EndSplineSet
EndChar

StartChar: periodcentered
Encoding: 183 183 122
Width: 330
GlyphClass: 2
Flags: W
LayerCount: 2
Fore
SplineSet
172 421 m 0
 205 421 228 402 228 371 c 0
 228 367 228 364 227 360 c 0
 221 323 189 299 152 299 c 0
 119 299 96 318 96 349 c 0
 96 353 96 356 97 360 c 0
 103 397 135 421 172 421 c 0
EndSplineSet
EndChar

StartChar: cedilla
Encoding: 184 184 123
Width: 330
GlyphClass: 2
Flags: W
LayerCount: 2
Fore
SplineSet
-46 -291 m 1
 19 -275 114 -246 125 -175 c 0
 125 -172 126 -170 126 -167 c 0
 126 -144 109 -124 52 -124 c 0
 34 -124 13 -126 2 -128 c 1
 -17 -106 l 1
 63 5 l 1
 104 5 l 1
 36 -91 l 1
 45 -90 56 -90 66 -90 c 0
 136 -90 173 -116 173 -161 c 0
 173 -165 173 -170 172 -175 c 0
 155 -281 16 -310 -39 -325 c 1
 -46 -291 l 1
EndSplineSet
EndChar

StartChar: one.sups
Encoding: 185 185 124
Width: 330
GlyphClass: 2
Flags: W
LayerCount: 2
Fore
SplineSet
122 825 m 1
 265 903 l 1
 298 900 l 1
 242 547 l 1
 318 547 l 1
 312 510 l 1
 92 510 l 1
 98 547 l 1
 195 547 l 1
 243 850 l 1
 136 791 l 1
 122 825 l 1
EndSplineSet
EndChar

StartChar: ordmasculine
Encoding: 186 186 125
Width: 330
GlyphClass: 2
Flags: W
LayerCount: 2
Fore
SplineSet
74 653 m 2
 77 667 l 1
 88 738 131 819 235 819 c 0
 322 819 348 763 348 703 c 0
 348 691 347 679 345 667 c 2
 342 653 l 1
 331 582 288 501 184 501 c 0
 97 501 71 557 71 617 c 0
 71 629 72 641 74 653 c 2
190 534 m 0
 250 534 286 581 297 653 c 1
 300 667 l 2
 302 679 303 690 303 700 c 0
 303 753 279 786 229 786 c 0
 169 786 133 739 122 667 c 1
 119 653 l 2
 117 641 116 630 116 620 c 0
 116 567 140 534 190 534 c 0
EndSplineSet
EndChar

StartChar: guillemotright
Encoding: 187 187 126
Width: 780
GlyphClass: 2
Flags: W
LayerCount: 2
Fore
SplineSet
689 375 m 1
 685 345 l 1
 349 90 l 1
 330 125 l 1
 615 360 l 1
 404 595 l 1
 435 630 l 1
 689 375 l 1
409 375 m 1
 405 345 l 1
 69 90 l 1
 50 125 l 1
 335 360 l 1
 124 595 l 1
 155 630 l 1
 409 375 l 1
EndSplineSet
EndChar

StartChar: onequarter
Encoding: 188 188 127
Width: 780
GlyphClass: 3
Flags: W
LayerCount: 2
Fore
SplineSet
30 0 m 1
 31 4 l 1
 706 780 l 1
 754 780 l 1
 753 776 l 1
 78 0 l 1
 30 0 l 1
103 705 m 1
 246 783 l 1
 279 780 l 1
 223 427 l 1
 299 427 l 1
 293 390 l 1
 73 390 l 1
 79 427 l 1
 176 427 l 1
 224 730 l 1
 117 671 l 1
 103 705 l 1
610 103 m 1
 428 103 l 1
 429 125 l 1
 662 393 l 1
 701 390 l 1
 661 137 l 1
 724 137 l 1
 718 103 l 1
 655 103 l 1
 639 0 l 1
 594 0 l 1
 610 103 l 1
617 137 m 1
 647 328 l 1
 482 137 l 1
 617 137 l 1
EndSplineSet
Ligature2: "LatinLiga.frac subtable" one.numr fraction four.dnom
Ligature2: "LatinLiga.frac subtable" one.numr fraction four
Ligature2: "LatinLiga.frac subtable" one fraction four.dnom
Ligature2: "LatinLiga.frac subtable" one fraction four
EndChar

StartChar: onehalf
Encoding: 189 189 128
Width: 780
GlyphClass: 3
Flags: W
LayerCount: 2
Fore
SplineSet
103 705 m 1
 246 783 l 1
 279 780 l 1
 223 427 l 1
 299 427 l 1
 293 390 l 1
 73 390 l 1
 79 427 l 1
 176 427 l 1
 224 730 l 1
 117 671 l 1
 103 705 l 1
30 0 m 1
 31 4 l 1
 706 780 l 1
 754 780 l 1
 753 776 l 1
 78 0 l 1
 30 0 l 1
431 18 m 0
 445 106 526 156 587 193 c 0
 630 219 670 246 677 290 c 0
 678 295 678 300 678 305 c 0
 678 333 665 364 613 364 c 0
 571 364 539 331 528 302 c 1
 481 307 l 1
 494 343 538 399 617 399 c 0
 707 399 724 344 724 307 c 0
 724 301 724 295 723 290 c 0
 713 228 652 190 610 164 c 0
 555 130 501 95 486 37 c 1
 687 37 l 1
 681 0 l 1
 431 0 l 1
 431 0 429 8 431 18 c 0
EndSplineSet
Ligature2: "LatinLiga.frac subtable" one.numr fraction two.dnom
Ligature2: "LatinLiga.frac subtable" one.numr fraction two
Ligature2: "LatinLiga.frac subtable" one fraction two.dnom
Ligature2: "LatinLiga.frac subtable" one fraction two
EndChar

StartChar: threequarters
Encoding: 190 190 129
Width: 780
GlyphClass: 3
Flags: W
LayerCount: 2
Fore
SplineSet
610 103 m 1
 428 103 l 1
 429 125 l 1
 662 393 l 1
 701 390 l 1
 661 137 l 1
 724 137 l 1
 718 103 l 1
 655 103 l 1
 639 0 l 1
 594 0 l 1
 610 103 l 1
617 137 m 1
 647 328 l 1
 482 137 l 1
 617 137 l 1
30 0 m 1
 31 4 l 1
 706 780 l 1
 754 780 l 1
 753 776 l 1
 78 0 l 1
 30 0 l 1
35 451 m 1
 83 460 l 1
 86 444 99 412 156 412 c 0
 230 412 254 458 259 492 c 0
 260 496 260 501 260 505 c 0
 260 535 243 566 186 566 c 2
 136 566 l 1
 141 600 l 1
 186 600 l 2
 224 600 267 628 275 676 c 0
 276 681 276 686 276 691 c 0
 276 719 263 750 211 750 c 0
 169 750 136 717 125 688 c 1
 78 694 l 1
 91 730 135 786 214 786 c 0
 304 786 321 730 321 693 c 0
 321 687 321 681 320 676 c 0
 313 631 282 604 250 588 c 1
 294 574 307 539 307 510 c 0
 307 505 307 500 306 495 c 0
 300 456 268 378 151 378 c 0
 63 378 40 429 35 451 c 1
EndSplineSet
Ligature2: "LatinLiga.frac subtable" three.numr fraction four.dnom
Ligature2: "LatinLiga.frac subtable" three.numr fraction four
Ligature2: "LatinLiga.frac subtable" three fraction four.dnom
Ligature2: "LatinLiga.frac subtable" three fraction four
EndChar

StartChar: questiondown
Encoding: 191 191 130
Width: 570
GlyphClass: 2
Flags: W
LayerCount: 2
Fore
SplineSet
432 -53 m 0
 416 -154 319 -227 189 -227 c 0
 81 -227 11 -171 11 -74 c 0
 11 -62 12 -51 14 -38 c 0
 40 127 256 170 276 298 c 0
 277 306 278 314 278 323 c 0
 278 336 276 349 272 362 c 1
 329 368 l 1
 335 350 339 332 339 314 c 0
 339 308 338 301 337 295 c 0
 312 138 106 102 84 -36 c 0
 82 -47 81 -58 81 -68 c 0
 81 -144 133 -173 199 -173 c 0
 283 -173 349 -129 361 -53 c 0
 363 -44 363 -34 363 -25 c 0
 363 -10 361 3 357 17 c 1
 426 35 l 1
 431 16 434 -3 434 -23 c 0
 434 -33 434 -43 432 -53 c 0
301 480 m 0
 268 480 245 499 245 530 c 0
 245 534 245 537 246 541 c 0
 252 578 283 602 320 602 c 0
 353 602 377 583 377 552 c 0
 377 549 377 545 376 541 c 0
 370 504 338 480 301 480 c 0
EndSplineSet
EndChar

StartChar: Agrave
Encoding: 192 192 131
Width: 750
GlyphClass: 2
Flags: W
AnchorPoint: "LatinBelow.mark" 315 0 basechar 0
AnchorPoint: "LatinAbove.mark" 367 330 basechar 0
LayerCount: 2
Fore
SplineSet
329 1002 m 1
 369 1050 l 1
 554 879 l 1
 529 850 l 1
 329 1002 l 1
660 0 m 1
 580 0 l 1
 539 184 l 1
 149 184 l 1
 50 0 l 1
 -30 0 l 1
 -29 5 l 1
 408 780 l 1
 470 780 l 1
 661 5 l 1
 660 0 l 1
527 236 m 1
 426 698 l 1
 177 236 l 1
 527 236 l 1
EndSplineSet
EndChar

StartChar: Aacute
Encoding: 193 193 132
Width: 750
GlyphClass: 2
Flags: W
AnchorPoint: "LatinBelow.mark" 315 0 basechar 0
AnchorPoint: "LatinAbove.mark" 367 330 basechar 0
LayerCount: 2
Fore
SplineSet
619 1002 m 1
 371 850 l 1
 354 879 l 1
 595 1050 l 1
 619 1002 l 1
660 0 m 1
 580 0 l 1
 539 184 l 1
 149 184 l 1
 50 0 l 1
 -30 0 l 1
 -29 5 l 1
 408 780 l 1
 470 780 l 1
 661 5 l 1
 660 0 l 1
527 236 m 1
 426 698 l 1
 177 236 l 1
 527 236 l 1
EndSplineSet
EndChar

StartChar: Acircumflex
Encoding: 194 194 133
Width: 750
GlyphClass: 2
Flags: W
AnchorPoint: "LatinBelow.mark" 315 0 basechar 0
AnchorPoint: "LatinAbove.mark" 367 330 basechar 0
LayerCount: 2
Fore
SplineSet
271 859 m 1
 465 1010 l 1
 485 1010 l 1
 631 859 l 1
 604 835 l 1
 466 950 l 1
 290 835 l 1
 271 859 l 1
660 0 m 1
 580 0 l 1
 539 184 l 1
 149 184 l 1
 50 0 l 1
 -30 0 l 1
 -29 5 l 1
 408 780 l 1
 470 780 l 1
 661 5 l 1
 660 0 l 1
527 236 m 1
 426 698 l 1
 177 236 l 1
 527 236 l 1
EndSplineSet
EndChar

StartChar: Atilde
Encoding: 195 195 134
Width: 750
GlyphClass: 2
Flags: W
AnchorPoint: "LatinBelow.mark" 315 0 basechar 0
AnchorPoint: "LatinAbove.mark" 367 330 basechar 0
LayerCount: 2
Fore
SplineSet
276 887 m 1
 300 933 337 1005 397 1005 c 0
 443 1005 466 974 484 951 c 0
 503 929 515 905 537 905 c 0
 571 905 602 970 616 997 c 1
 651 983 l 1
 628 936 588 865 529 865 c 0
 483 865 461 896 443 919 c 0
 424 941 412 965 390 965 c 0
 355 965 326 901 311 873 c 1
 276 887 l 1
660 0 m 1
 580 0 l 1
 539 184 l 1
 149 184 l 1
 50 0 l 1
 -30 0 l 1
 -29 5 l 1
 408 780 l 1
 470 780 l 1
 661 5 l 1
 660 0 l 1
527 236 m 1
 426 698 l 1
 177 236 l 1
 527 236 l 1
EndSplineSet
EndChar

StartChar: Adieresis
Encoding: 196 196 135
Width: 750
GlyphClass: 2
Flags: W
AnchorPoint: "LatinBelow.mark" 315 0 basechar 0
AnchorPoint: "LatinAbove.mark" 367 330 basechar 0
LayerCount: 2
Fore
SplineSet
519 930 m 0
 525 966 555 988 590 988 c 0
 621 988 644 971 644 941 c 0
 644 938 644 934 643 930 c 0
 637 894 606 872 571 872 c 0
 540 872 518 890 518 919 c 0
 518 923 518 926 519 930 c 0
283 930 m 0
 289 966 319 988 354 988 c 0
 385 988 408 971 408 941 c 0
 408 938 408 934 407 930 c 0
 401 894 370 872 335 872 c 0
 304 872 282 890 282 919 c 0
 282 923 282 926 283 930 c 0
660 0 m 1
 580 0 l 1
 539 184 l 1
 149 184 l 1
 50 0 l 1
 -30 0 l 1
 -29 5 l 1
 408 780 l 1
 470 780 l 1
 661 5 l 1
 660 0 l 1
527 236 m 1
 426 698 l 1
 177 236 l 1
 527 236 l 1
EndSplineSet
EndChar

StartChar: Aring
Encoding: 197 197 136
Width: 750
GlyphClass: 2
Flags: W
AnchorPoint: "LatinBelow.mark" 315 0 basechar 0
AnchorPoint: "LatinAbove.mark" 367 330 basechar 0
LayerCount: 2
Fore
SplineSet
444 812 m 0
 386 812 348 846 348 897 c 0
 348 903 349 909 350 915 c 0
 360 976 411 1018 476 1018 c 0
 534 1018 572 984 572 933 c 0
 572 927 571 921 570 915 c 0
 560 854 509 812 444 812 c 0
449 846 m 0
 492 846 525 875 531 915 c 0
 532 919 532 923 532 927 c 0
 532 961 509 984 471 984 c 0
 428 984 395 955 389 915 c 0
 388 911 388 907 388 903 c 0
 388 869 411 846 449 846 c 0
660 0 m 1
 580 0 l 1
 539 184 l 1
 149 184 l 1
 50 0 l 1
 -30 0 l 1
 -29 5 l 1
 408 780 l 1
 470 780 l 1
 661 5 l 1
 660 0 l 1
527 236 m 1
 426 698 l 1
 177 236 l 1
 527 236 l 1
EndSplineSet
EndChar

StartChar: AE
Encoding: 198 198 137
Width: 980
GlyphClass: 2
Flags: W
AnchorPoint: "LatinBelow.mark" 450 0 basechar 0
AnchorPoint: "LatinAbove.mark" 474 150 basechar 0
LayerCount: 2
Fore
SplineSet
-25 0 m 1
 -24 5 l 1
 507 780 l 1
 534 780 l 1
 568 780 l 1
 959 780 l 1
 950 725 l 1
 596 725 l 1
 546 411 l 1
 868 411 l 1
 860 359 l 1
 538 359 l 1
 490 55 l 1
 859 55 l 1
 850 0 l 1
 410 0 l 1
 439 184 l 1
 177 184 l 1
 56 0 l 1
 -25 0 l 1
523 712 m 1
 210 236 l 1
 447 236 l 1
 523 712 l 1
EndSplineSet
EndChar

StartChar: Ccedilla
Encoding: 199 199 138
Width: 755
GlyphClass: 2
Flags: W
AnchorPoint: "LatinAbove.mark" 374 150 basechar 0
LayerCount: 2
Fore
SplineSet
221 -291 m 1
 286 -275 381 -246 392 -175 c 0
 392 -172 393 -170 393 -167 c 0
 393 -144 376 -124 319 -124 c 0
 301 -124 280 -126 269 -128 c 1
 250 -106 l 1
 314 -16 l 1
 129 -1 66 130 66 278 c 0
 66 309 69 341 74 373 c 2
 79 407 l 2
 109 599 224 797 479 797 c 0
 666 797 733 674 734 595 c 1
 660 588 l 1
 658 653 606 742 471 742 c 0
 287 742 183 597 153 407 c 2
 148 373 l 2
 143 341 140 312 140 283 c 0
 140 139 206 38 359 38 c 0
 494 38 575 127 597 192 c 1
 669 185 l 1
 643 107 539 -15 355 -17 c 1
 303 -91 l 1
 312 -90 323 -90 333 -90 c 0
 403 -90 440 -116 440 -161 c 0
 440 -165 440 -170 439 -175 c 0
 422 -281 283 -310 228 -325 c 1
 221 -291 l 1
EndSplineSet
EndChar

StartChar: Egrave
Encoding: 200 200 139
Width: 675
GlyphClass: 2
Flags: W
AnchorPoint: "LatinBelow.mark" 290 0 basechar 0
AnchorPoint: "LatinAbove.mark" 342 330 basechar 0
LayerCount: 2
Fore
SplineSet
304 1002 m 1
 344 1050 l 1
 529 879 l 1
 504 850 l 1
 304 1002 l 1
45 0 m 1
 169 780 l 1
 654 780 l 1
 645 725 l 1
 231 725 l 1
 181 411 l 1
 563 411 l 1
 555 359 l 1
 173 359 l 1
 125 55 l 1
 554 55 l 1
 545 0 l 1
 45 0 l 1
EndSplineSet
EndChar

StartChar: Eacute
Encoding: 201 201 140
Width: 675
GlyphClass: 2
Flags: W
AnchorPoint: "LatinBelow.mark" 290 0 basechar 0
AnchorPoint: "LatinAbove.mark" 342 330 basechar 0
LayerCount: 2
Fore
SplineSet
594 1002 m 1
 346 850 l 1
 329 879 l 1
 570 1050 l 1
 594 1002 l 1
45 0 m 1
 169 780 l 1
 654 780 l 1
 645 725 l 1
 231 725 l 1
 181 411 l 1
 563 411 l 1
 555 359 l 1
 173 359 l 1
 125 55 l 1
 554 55 l 1
 545 0 l 1
 45 0 l 1
EndSplineSet
EndChar

StartChar: Ecircumflex
Encoding: 202 202 141
Width: 675
GlyphClass: 2
Flags: W
AnchorPoint: "LatinBelow.mark" 290 0 basechar 0
AnchorPoint: "LatinAbove.mark" 342 330 basechar 0
LayerCount: 2
Fore
SplineSet
246 859 m 1
 440 1010 l 1
 460 1010 l 1
 606 859 l 1
 579 835 l 1
 441 950 l 1
 265 835 l 1
 246 859 l 1
45 0 m 1
 169 780 l 1
 654 780 l 1
 645 725 l 1
 231 725 l 1
 181 411 l 1
 563 411 l 1
 555 359 l 1
 173 359 l 1
 125 55 l 1
 554 55 l 1
 545 0 l 1
 45 0 l 1
EndSplineSet
EndChar

StartChar: Edieresis
Encoding: 203 203 142
Width: 675
GlyphClass: 2
Flags: W
AnchorPoint: "LatinBelow.mark" 290 0 basechar 0
AnchorPoint: "LatinAbove.mark" 342 330 basechar 0
LayerCount: 2
Fore
SplineSet
494 930 m 0
 500 966 530 988 565 988 c 0
 596 988 619 971 619 941 c 0
 619 938 619 934 618 930 c 0
 612 894 581 872 546 872 c 0
 515 872 493 890 493 919 c 0
 493 923 493 926 494 930 c 0
258 930 m 0
 264 966 294 988 329 988 c 0
 360 988 383 971 383 941 c 0
 383 938 383 934 382 930 c 0
 376 894 345 872 310 872 c 0
 279 872 257 890 257 919 c 0
 257 923 257 926 258 930 c 0
45 0 m 1
 169 780 l 1
 654 780 l 1
 645 725 l 1
 231 725 l 1
 181 411 l 1
 563 411 l 1
 555 359 l 1
 173 359 l 1
 125 55 l 1
 554 55 l 1
 545 0 l 1
 45 0 l 1
EndSplineSet
EndChar

StartChar: Igrave
Encoding: 204 204 143
Width: 320
GlyphClass: 2
Flags: W
AnchorPoint: "LatinBelow.mark" 100 0 basechar 0
AnchorPoint: "LatinAbove.mark" 152 330 basechar 0
LayerCount: 2
Fore
SplineSet
114 1002 m 1
 154 1050 l 1
 339 879 l 1
 314 850 l 1
 114 1002 l 1
65 0 m 1
 189 780 l 1
 259 780 l 1
 135 0 l 1
 65 0 l 1
EndSplineSet
EndChar

StartChar: Iacute
Encoding: 205 205 144
Width: 320
GlyphClass: 2
Flags: W
AnchorPoint: "LatinBelow.mark" 100 0 basechar 0
AnchorPoint: "LatinAbove.mark" 152 330 basechar 0
LayerCount: 2
Fore
SplineSet
404 1002 m 1
 156 850 l 1
 139 879 l 1
 380 1050 l 1
 404 1002 l 1
65 0 m 1
 189 780 l 1
 259 780 l 1
 135 0 l 1
 65 0 l 1
EndSplineSet
EndChar

StartChar: Icircumflex
Encoding: 206 206 145
Width: 320
GlyphClass: 2
Flags: W
AnchorPoint: "LatinBelow.mark" 100 0 basechar 0
AnchorPoint: "LatinAbove.mark" 152 330 basechar 0
LayerCount: 2
Fore
SplineSet
56 859 m 1
 250 1010 l 1
 270 1010 l 1
 416 859 l 1
 389 835 l 1
 251 950 l 1
 75 835 l 1
 56 859 l 1
65 0 m 1
 189 780 l 1
 259 780 l 1
 135 0 l 1
 65 0 l 1
EndSplineSet
EndChar

StartChar: Idieresis
Encoding: 207 207 146
Width: 320
GlyphClass: 2
Flags: W
AnchorPoint: "LatinBelow.mark" 100 0 basechar 0
AnchorPoint: "LatinAbove.mark" 152 330 basechar 0
LayerCount: 2
Fore
SplineSet
304 930 m 0
 310 966 340 988 375 988 c 0
 406 988 429 971 429 941 c 0
 429 938 429 934 428 930 c 0
 422 894 391 872 356 872 c 0
 325 872 303 890 303 919 c 0
 303 923 303 926 304 930 c 0
68 930 m 0
 74 966 104 988 139 988 c 0
 170 988 193 971 193 941 c 0
 193 938 193 934 192 930 c 0
 186 894 155 872 120 872 c 0
 89 872 67 890 67 919 c 0
 67 923 67 926 68 930 c 0
65 0 m 1
 189 780 l 1
 259 780 l 1
 135 0 l 1
 65 0 l 1
EndSplineSet
EndChar

StartChar: Eth
Encoding: 208 208 147
Width: 770
GlyphClass: 2
Flags: W
AnchorPoint: "LatinBelow.mark" 260 0 basechar 0
AnchorPoint: "LatinAbove.mark" 284 150 basechar 0
LayerCount: 2
Fore
SplineSet
13 369 m 1
 20 411 l 1
 110 411 l 1
 169 780 l 1
 169 780 278 789 352 789 c 0
 615 789 707 649 707 486 c 0
 707 460 704 434 700 408 c 2
 694 372 l 2
 663 179 531 -9 226 -9 c 0
 152 -9 45 0 45 0 c 1
 103 369 l 1
 13 369 l 1
123 48 m 1
 155 46 202 44 234 44 c 0
 484 44 594 188 623 372 c 2
 629 408 l 2
 633 435 635 460 635 485 c 0
 635 630 558 736 344 736 c 0
 312 736 263 734 231 732 c 1
 180 411 l 1
 400 411 l 1
 393 369 l 1
 173 369 l 1
 123 48 l 1
EndSplineSet
EndChar

StartChar: Ntilde
Encoding: 209 209 148
Width: 790
GlyphClass: 2
Flags: W
AnchorPoint: "LatinBelow.mark" 335 0 basechar 0
LayerCount: 2
Fore
SplineSet
296 887 m 1
 320 933 357 1005 417 1005 c 0
 463 1005 486 974 504 951 c 0
 523 929 535 905 557 905 c 0
 591 905 622 970 636 997 c 1
 671 983 l 1
 648 936 608 865 549 865 c 0
 503 865 481 896 463 919 c 0
 444 941 432 965 410 965 c 0
 375 965 346 901 331 873 c 1
 296 887 l 1
45 0 m 1
 167 773 l 1
 230 780 l 1
 574 113 l 1
 680 780 l 1
 749 780 l 1
 625 0 l 1
 564 0 l 1
 220 667 l 1
 114 0 l 1
 45 0 l 1
EndSplineSet
EndChar

StartChar: Ograve
Encoding: 210 210 149
Width: 820
GlyphClass: 2
Flags: W
AnchorPoint: "LatinBelow.mark" 350 0 basechar 0
AnchorPoint: "LatinAbove.mark" 402 330 basechar 0
LayerCount: 2
Fore
SplineSet
364 1002 m 1
 404 1050 l 1
 589 879 l 1
 564 850 l 1
 364 1002 l 1
74 372 m 2
 80 408 l 2
 110 599 222 797 476 797 c 0
 688 797 758 659 758 503 c 0
 758 472 755 440 750 408 c 2
 744 372 l 2
 714 181 601 -17 347 -17 c 0
 136 -17 66 120 66 276 c 0
 66 307 69 340 74 372 c 2
356 37 m 0
 541 37 641 183 671 372 c 2
 677 408 l 2
 682 440 685 471 685 500 c 0
 685 642 621 743 468 743 c 0
 283 743 183 597 153 408 c 2
 147 372 l 2
 142 340 139 309 139 280 c 0
 139 138 203 37 356 37 c 0
EndSplineSet
EndChar

StartChar: Oacute
Encoding: 211 211 150
Width: 820
GlyphClass: 2
Flags: W
AnchorPoint: "LatinBelow.mark" 350 0 basechar 0
AnchorPoint: "LatinAbove.mark" 402 330 basechar 0
LayerCount: 2
Fore
SplineSet
654 1002 m 1
 406 850 l 1
 389 879 l 1
 630 1050 l 1
 654 1002 l 1
74 372 m 2
 80 408 l 2
 110 599 222 797 476 797 c 0
 688 797 758 659 758 503 c 0
 758 472 755 440 750 408 c 2
 744 372 l 2
 714 181 601 -17 347 -17 c 0
 136 -17 66 120 66 276 c 0
 66 307 69 340 74 372 c 2
356 37 m 0
 541 37 641 183 671 372 c 2
 677 408 l 2
 682 440 685 471 685 500 c 0
 685 642 621 743 468 743 c 0
 283 743 183 597 153 408 c 2
 147 372 l 2
 142 340 139 309 139 280 c 0
 139 138 203 37 356 37 c 0
EndSplineSet
EndChar

StartChar: Ocircumflex
Encoding: 212 212 151
Width: 820
GlyphClass: 2
Flags: W
AnchorPoint: "LatinBelow.mark" 350 0 basechar 0
AnchorPoint: "LatinAbove.mark" 402 330 basechar 0
LayerCount: 2
Fore
SplineSet
306 859 m 1
 500 1010 l 1
 520 1010 l 1
 666 859 l 1
 639 835 l 1
 501 950 l 1
 325 835 l 1
 306 859 l 1
74 372 m 2
 80 408 l 2
 110 599 222 797 476 797 c 0
 688 797 758 659 758 503 c 0
 758 472 755 440 750 408 c 2
 744 372 l 2
 714 181 601 -17 347 -17 c 0
 136 -17 66 120 66 276 c 0
 66 307 69 340 74 372 c 2
356 37 m 0
 541 37 641 183 671 372 c 2
 677 408 l 2
 682 440 685 471 685 500 c 0
 685 642 621 743 468 743 c 0
 283 743 183 597 153 408 c 2
 147 372 l 2
 142 340 139 309 139 280 c 0
 139 138 203 37 356 37 c 0
EndSplineSet
EndChar

StartChar: Otilde
Encoding: 213 213 152
Width: 820
GlyphClass: 2
Flags: W
AnchorPoint: "LatinBelow.mark" 350 0 basechar 0
AnchorPoint: "LatinAbove.mark" 402 330 basechar 0
LayerCount: 2
Fore
SplineSet
311 887 m 1
 335 933 372 1005 432 1005 c 0
 478 1005 501 974 519 951 c 0
 538 929 550 905 572 905 c 0
 606 905 637 970 651 997 c 1
 686 983 l 1
 663 936 623 865 564 865 c 0
 518 865 496 896 478 919 c 0
 459 941 447 965 425 965 c 0
 390 965 361 901 346 873 c 1
 311 887 l 1
74 372 m 2
 80 408 l 2
 110 599 222 797 476 797 c 0
 688 797 758 659 758 503 c 0
 758 472 755 440 750 408 c 2
 744 372 l 2
 714 181 601 -17 347 -17 c 0
 136 -17 66 120 66 276 c 0
 66 307 69 340 74 372 c 2
356 37 m 0
 541 37 641 183 671 372 c 2
 677 408 l 2
 682 440 685 471 685 500 c 0
 685 642 621 743 468 743 c 0
 283 743 183 597 153 408 c 2
 147 372 l 2
 142 340 139 309 139 280 c 0
 139 138 203 37 356 37 c 0
EndSplineSet
EndChar

StartChar: Odieresis
Encoding: 214 214 153
Width: 820
GlyphClass: 2
Flags: W
AnchorPoint: "LatinBelow.mark" 350 0 basechar 0
AnchorPoint: "LatinAbove.mark" 402 330 basechar 0
LayerCount: 2
Fore
SplineSet
554 930 m 0
 560 966 590 988 625 988 c 0
 656 988 679 971 679 941 c 0
 679 938 679 934 678 930 c 0
 672 894 641 872 606 872 c 0
 575 872 553 890 553 919 c 0
 553 923 553 926 554 930 c 0
318 930 m 0
 324 966 354 988 389 988 c 0
 420 988 443 971 443 941 c 0
 443 938 443 934 442 930 c 0
 436 894 405 872 370 872 c 0
 339 872 317 890 317 919 c 0
 317 923 317 926 318 930 c 0
74 372 m 2
 80 408 l 2
 110 599 222 797 476 797 c 0
 688 797 758 659 758 503 c 0
 758 472 755 440 750 408 c 2
 744 372 l 2
 714 181 601 -17 347 -17 c 0
 136 -17 66 120 66 276 c 0
 66 307 69 340 74 372 c 2
356 37 m 0
 541 37 641 183 671 372 c 2
 677 408 l 2
 682 440 685 471 685 500 c 0
 685 642 621 743 468 743 c 0
 283 743 183 597 153 408 c 2
 147 372 l 2
 142 340 139 309 139 280 c 0
 139 138 203 37 356 37 c 0
EndSplineSet
EndChar

StartChar: multiply
Encoding: 215 215 154
Width: 600
GlyphClass: 2
Flags: W
LayerCount: 2
Fore
SplineSet
138 505 m 1
 182 542 l 1
 303 398 l 1
 470 542 l 1
 502 505 l 1
 334 360 l 1
 456 215 l 1
 413 178 l 1
 291 323 l 1
 123 178 l 1
 92 215 l 1
 260 360 l 1
 138 505 l 1
EndSplineSet
EndChar

StartChar: Oslash
Encoding: 216 216 155
Width: 820
GlyphClass: 2
Flags: W
AnchorPoint: "LatinBelow.mark" 350 0 basechar 0
AnchorPoint: "LatinAbove.mark" 374 150 basechar 0
LayerCount: 2
Fore
SplineSet
74 372 m 2
 80 408 l 2
 110 599 222 797 476 797 c 0
 578 797 648 765 692 714 c 1
 773 799 l 1
 803 775 l 1
 715 682 l 1
 745 632 758 570 758 504 c 0
 758 473 755 440 750 408 c 2
 744 372 l 2
 714 181 601 -17 347 -17 c 0
 244 -17 175 16 131 68 c 1
 52 -15 l 1
 21 9 l 1
 108 100 l 1
 79 150 66 212 66 278 c 0
 66 309 69 341 74 372 c 2
643 663 m 1
 609 713 552 743 468 743 c 0
 283 743 183 597 153 408 c 2
 147 372 l 2
 142 340 139 309 139 280 c 0
 139 233 146 191 161 155 c 1
 643 663 l 1
662 627 m 1
 179 119 l 1
 213 67 271 37 356 37 c 0
 541 37 641 183 671 372 c 2
 677 408 l 2
 682 440 685 471 685 500 c 0
 685 548 678 591 662 627 c 1
EndSplineSet
EndChar

StartChar: Ugrave
Encoding: 217 217 156
Width: 770
GlyphClass: 2
Flags: W
AnchorPoint: "LatinBelow.mark" 325 0 basechar 0
AnchorPoint: "LatinAbove.mark" 377 330 basechar 0
LayerCount: 2
Fore
SplineSet
339 1002 m 1
 379 1050 l 1
 564 879 l 1
 539 850 l 1
 339 1002 l 1
72 232 m 2
 159 780 l 1
 230 780 l 1
 143 232 l 2
 141 219 140 207 140 195 c 0
 140 94 215 37 331 37 c 0
 461 37 561 108 581 232 c 2
 668 780 l 1
 739 780 l 1
 652 232 l 2
 629 86 497 -17 322 -17 c 0
 164 -17 69 67 69 191 c 0
 69 204 70 218 72 232 c 2
EndSplineSet
EndChar

StartChar: Uacute
Encoding: 218 218 157
Width: 770
GlyphClass: 2
Flags: W
AnchorPoint: "LatinBelow.mark" 325 0 basechar 0
AnchorPoint: "LatinAbove.mark" 377 330 basechar 0
LayerCount: 2
Fore
SplineSet
629 1002 m 1
 381 850 l 1
 364 879 l 1
 605 1050 l 1
 629 1002 l 1
72 232 m 2
 159 780 l 1
 230 780 l 1
 143 232 l 2
 141 219 140 207 140 195 c 0
 140 94 215 37 331 37 c 0
 461 37 561 108 581 232 c 2
 668 780 l 1
 739 780 l 1
 652 232 l 2
 629 86 497 -17 322 -17 c 0
 164 -17 69 67 69 191 c 0
 69 204 70 218 72 232 c 2
EndSplineSet
EndChar

StartChar: Ucircumflex
Encoding: 219 219 158
Width: 770
GlyphClass: 2
Flags: W
AnchorPoint: "LatinBelow.mark" 325 0 basechar 0
AnchorPoint: "LatinAbove.mark" 377 330 basechar 0
LayerCount: 2
Fore
SplineSet
281 859 m 1
 475 1010 l 1
 495 1010 l 1
 641 859 l 1
 614 835 l 1
 476 950 l 1
 300 835 l 1
 281 859 l 1
72 232 m 2
 159 780 l 1
 230 780 l 1
 143 232 l 2
 141 219 140 207 140 195 c 0
 140 94 215 37 331 37 c 0
 461 37 561 108 581 232 c 2
 668 780 l 1
 739 780 l 1
 652 232 l 2
 629 86 497 -17 322 -17 c 0
 164 -17 69 67 69 191 c 0
 69 204 70 218 72 232 c 2
EndSplineSet
EndChar

StartChar: Udieresis
Encoding: 220 220 159
Width: 770
GlyphClass: 2
Flags: W
AnchorPoint: "LatinBelow.mark" 325 0 basechar 0
AnchorPoint: "LatinAbove.mark" 377 330 basechar 0
LayerCount: 2
Fore
SplineSet
529 930 m 0
 535 966 565 988 600 988 c 0
 631 988 654 971 654 941 c 0
 654 938 654 934 653 930 c 0
 647 894 616 872 581 872 c 0
 550 872 528 890 528 919 c 0
 528 923 528 926 529 930 c 0
293 930 m 0
 299 966 329 988 364 988 c 0
 395 988 418 971 418 941 c 0
 418 938 418 934 417 930 c 0
 411 894 380 872 345 872 c 0
 314 872 292 890 292 919 c 0
 292 923 292 926 293 930 c 0
72 232 m 2
 159 780 l 1
 230 780 l 1
 143 232 l 2
 141 219 140 207 140 195 c 0
 140 94 215 37 331 37 c 0
 461 37 561 108 581 232 c 2
 668 780 l 1
 739 780 l 1
 652 232 l 2
 629 86 497 -17 322 -17 c 0
 164 -17 69 67 69 191 c 0
 69 204 70 218 72 232 c 2
EndSplineSet
EndChar

StartChar: Yacute
Encoding: 221 221 160
Width: 670
GlyphClass: 2
Flags: W
AnchorPoint: "LatinBelow.mark" 275 0 basechar 0
AnchorPoint: "LatinAbove.mark" 337 330 basechar 0
LayerCount: 2
Fore
SplineSet
579 1002 m 1
 331 850 l 1
 314 879 l 1
 555 1050 l 1
 579 1002 l 1
87 769 m 1
 88 774 l 1
 168 780 l 1
 334 373 l 1
 630 780 l 1
 708 774 l 1
 707 769 l 1
 358 304 l 1
 310 0 l 1
 240 0 l 1
 288 304 l 1
 87 769 l 1
EndSplineSet
EndChar

StartChar: Thorn
Encoding: 222 222 161
Width: 725
GlyphClass: 2
Flags: W
AnchorPoint: "LatinBelow.mark" 100 0 basechar 0
AnchorPoint: "LatinAbove.mark" 124 150 basechar 0
LayerCount: 2
Fore
SplineSet
154 252 m 1
 195 250 258 248 322 248 c 0
 459 248 573 300 592 422 c 0
 594 432 594 442 594 451 c 0
 594 552 502 595 377 595 c 0
 313 595 249 593 208 591 c 1
 154 252 l 1
216 642 m 1
 264 644 328 647 391 647 c 0
 551 647 665 582 665 457 c 0
 665 446 664 434 662 422 c 0
 639 274 494 196 320 196 c 0
 257 196 194 199 146 201 c 1
 114 0 l 1
 45 0 l 1
 77 205 l 1
 146 638 l 1
 169 780 l 1
 238 780 l 1
 216 642 l 1
EndSplineSet
EndChar

StartChar: germandbls
Encoding: 223 223 162
Width: 780
GlyphClass: 2
Flags: W
AnchorPoint: "LatinBelow.mark" 290 0 basechar 0
AnchorPoint: "LatinAbove.mark" 319 180 basechar 0
LayerCount: 2
Fore
SplineSet
311 133 m 1
 375 137 l 1
 375 135 l 2
 375 86 407 32 482 32 c 0
 559 32 614 74 625 146 c 0
 626 152 627 158 627 164 c 0
 627 215 590 240 566 250 c 0
 532 264 489 285 456 300 c 0
 417 318 371 353 371 421 c 0
 371 430 371 438 373 448 c 0
 387 538 461 598 562 598 c 0
 576 598 588 596 599 594 c 1
 599 720 522 778 420 778 c 0
 324 778 227 728 204 582 c 2
 112 0 l 1
 45 0 l 1
 137 582 l 2
 163 743 286 827 428 827 c 0
 573 827 655 735 655 601 c 0
 655 591 655 581 654 571 c 1
 616 542 l 1
 608 546 589 553 556 553 c 0
 496 553 449 521 438 453 c 0
 437 445 436 439 436 432 c 0
 436 381 471 359 496 347 c 0
 529 332 572 311 604 298 c 0
 644 281 690 244 690 174 c 0
 690 165 690 156 688 146 c 0
 674 57 596 -17 474 -17 c 0
 350 -17 311 72 311 131 c 2
 311 133 l 1
EndSplineSet
EndChar

StartChar: agrave
Encoding: 224 224 163
Width: 625
GlyphClass: 2
Flags: W
AnchorPoint: "LatinBelow.mark" 270 0 basechar 0
AnchorPoint: "LatinAbove.mark" 279 180 basechar 0
LayerCount: 2
Fore
SplineSet
240 852 m 1
 280 900 l 1
 465 729 l 1
 440 700 l 1
 240 852 l 1
37 171 m 0
 49 249 122 316 240 316 c 0
 321 316 397 309 448 302 c 1
 467 425 l 2
 469 435 469 444 469 453 c 0
 469 528 414 567 330 567 c 0
 238 567 176 513 151 433 c 1
 84 438 l 1
 112 531 200 617 338 617 c 0
 461 617 535 553 535 457 c 0
 535 447 534 436 532 425 c 2
 486 132 l 2
 484 120 483 110 483 100 c 0
 483 58 502 38 545 33 c 1
 521 -12 l 1
 476 -6 426 16 426 90 c 2
 426 103 l 1
 382 43 315 -12 215 -12 c 0
 104 -12 34 43 34 138 c 0
 34 149 35 159 37 171 c 0
444 259 m 1
 399 265 327 275 237 275 c 0
 168 275 112 236 102 171 c 0
 100 161 100 152 100 143 c 0
 100 68 155 31 228 31 c 0
 341 31 406 126 435 204 c 1
 444 259 l 1
EndSplineSet
MultipleSubs2: "Latin.a.decomp subtable" uni0251 uni0300
EndChar

StartChar: aacute
Encoding: 225 225 164
Width: 625
GlyphClass: 2
Flags: W
AnchorPoint: "LatinBelow.mark" 270 0 basechar 0
AnchorPoint: "LatinAbove.mark" 279 180 basechar 0
LayerCount: 2
Fore
SplineSet
530 852 m 1
 282 700 l 1
 265 729 l 1
 506 900 l 1
 530 852 l 1
37 171 m 0
 49 249 122 316 240 316 c 0
 321 316 397 309 448 302 c 1
 467 425 l 2
 469 435 469 444 469 453 c 0
 469 528 414 567 330 567 c 0
 238 567 176 513 151 433 c 1
 84 438 l 1
 112 531 200 617 338 617 c 0
 461 617 535 553 535 457 c 0
 535 447 534 436 532 425 c 2
 486 132 l 2
 484 120 483 110 483 100 c 0
 483 58 502 38 545 33 c 1
 521 -12 l 1
 476 -6 426 16 426 90 c 2
 426 103 l 1
 382 43 315 -12 215 -12 c 0
 104 -12 34 43 34 138 c 0
 34 149 35 159 37 171 c 0
444 259 m 1
 399 265 327 275 237 275 c 0
 168 275 112 236 102 171 c 0
 100 161 100 152 100 143 c 0
 100 68 155 31 228 31 c 0
 341 31 406 126 435 204 c 1
 444 259 l 1
EndSplineSet
MultipleSubs2: "Latin.a.decomp subtable" uni0251 uni0301
EndChar

StartChar: acircumflex
Encoding: 226 226 165
Width: 625
GlyphClass: 2
Flags: W
AnchorPoint: "LatinBelow.mark" 270 0 basechar 0
AnchorPoint: "LatinAbove.mark" 279 180 basechar 0
LayerCount: 2
Fore
SplineSet
182 709 m 1
 376 860 l 1
 396 860 l 1
 542 709 l 1
 515 685 l 1
 377 800 l 1
 201 685 l 1
 182 709 l 1
37 171 m 0
 49 249 122 316 240 316 c 0
 321 316 397 309 448 302 c 1
 467 425 l 2
 469 435 469 444 469 453 c 0
 469 528 414 567 330 567 c 0
 238 567 176 513 151 433 c 1
 84 438 l 1
 112 531 200 617 338 617 c 0
 461 617 535 553 535 457 c 0
 535 447 534 436 532 425 c 2
 486 132 l 2
 484 120 483 110 483 100 c 0
 483 58 502 38 545 33 c 1
 521 -12 l 1
 476 -6 426 16 426 90 c 2
 426 103 l 1
 382 43 315 -12 215 -12 c 0
 104 -12 34 43 34 138 c 0
 34 149 35 159 37 171 c 0
444 259 m 1
 399 265 327 275 237 275 c 0
 168 275 112 236 102 171 c 0
 100 161 100 152 100 143 c 0
 100 68 155 31 228 31 c 0
 341 31 406 126 435 204 c 1
 444 259 l 1
EndSplineSet
MultipleSubs2: "Latin.a.decomp subtable" uni0251 uni0302
EndChar

StartChar: atilde
Encoding: 227 227 166
Width: 625
GlyphClass: 2
Flags: W
AnchorPoint: "LatinBelow.mark" 270 0 basechar 0
AnchorPoint: "LatinAbove.mark" 279 180 basechar 0
LayerCount: 2
Fore
SplineSet
187 737 m 1
 211 783 248 855 308 855 c 0
 354 855 377 824 395 801 c 0
 414 779 426 755 448 755 c 0
 482 755 513 820 527 847 c 1
 562 833 l 1
 539 786 499 715 440 715 c 0
 394 715 372 746 354 769 c 0
 335 791 323 815 301 815 c 0
 266 815 237 751 222 723 c 1
 187 737 l 1
37 171 m 0
 49 249 122 316 240 316 c 0
 321 316 397 309 448 302 c 1
 467 425 l 2
 469 435 469 444 469 453 c 0
 469 528 414 567 330 567 c 0
 238 567 176 513 151 433 c 1
 84 438 l 1
 112 531 200 617 338 617 c 0
 461 617 535 553 535 457 c 0
 535 447 534 436 532 425 c 2
 486 132 l 2
 484 120 483 110 483 100 c 0
 483 58 502 38 545 33 c 1
 521 -12 l 1
 476 -6 426 16 426 90 c 2
 426 103 l 1
 382 43 315 -12 215 -12 c 0
 104 -12 34 43 34 138 c 0
 34 149 35 159 37 171 c 0
444 259 m 1
 399 265 327 275 237 275 c 0
 168 275 112 236 102 171 c 0
 100 161 100 152 100 143 c 0
 100 68 155 31 228 31 c 0
 341 31 406 126 435 204 c 1
 444 259 l 1
EndSplineSet
MultipleSubs2: "Latin.a.decomp subtable" uni0251 uni0303
EndChar

StartChar: adieresis
Encoding: 228 228 167
Width: 625
GlyphClass: 2
Flags: W
AnchorPoint: "LatinBelow.mark" 270 0 basechar 0
AnchorPoint: "LatinAbove.mark" 279 180 basechar 0
LayerCount: 2
Fore
SplineSet
430 780 m 0
 436 816 466 838 501 838 c 0
 532 838 555 821 555 791 c 0
 555 788 555 784 554 780 c 0
 548 744 517 722 482 722 c 0
 451 722 429 740 429 769 c 0
 429 773 429 776 430 780 c 0
194 780 m 0
 200 816 230 838 265 838 c 0
 296 838 319 821 319 791 c 0
 319 788 319 784 318 780 c 0
 312 744 281 722 246 722 c 0
 215 722 193 740 193 769 c 0
 193 773 193 776 194 780 c 0
37 171 m 0
 49 249 122 316 240 316 c 0
 321 316 397 309 448 302 c 1
 467 425 l 2
 469 435 469 444 469 453 c 0
 469 528 414 567 330 567 c 0
 238 567 176 513 151 433 c 1
 84 438 l 1
 112 531 200 617 338 617 c 0
 461 617 535 553 535 457 c 0
 535 447 534 436 532 425 c 2
 486 132 l 2
 484 120 483 110 483 100 c 0
 483 58 502 38 545 33 c 1
 521 -12 l 1
 476 -6 426 16 426 90 c 2
 426 103 l 1
 382 43 315 -12 215 -12 c 0
 104 -12 34 43 34 138 c 0
 34 149 35 159 37 171 c 0
444 259 m 1
 399 265 327 275 237 275 c 0
 168 275 112 236 102 171 c 0
 100 161 100 152 100 143 c 0
 100 68 155 31 228 31 c 0
 341 31 406 126 435 204 c 1
 444 259 l 1
EndSplineSet
MultipleSubs2: "Latin.a.decomp subtable" uni0251 uni0308
EndChar

StartChar: aring
Encoding: 229 229 168
Width: 625
GlyphClass: 2
Flags: W
AnchorPoint: "LatinBelow.mark" 270 0 basechar 0
AnchorPoint: "LatinAbove.mark" 279 180 basechar 0
LayerCount: 2
Fore
SplineSet
355 662 m 0
 297 662 259 696 259 747 c 0
 259 753 260 759 261 765 c 0
 271 826 322 868 387 868 c 0
 445 868 483 834 483 783 c 0
 483 777 482 771 481 765 c 0
 471 704 420 662 355 662 c 0
360 696 m 0
 403 696 436 725 442 765 c 0
 443 769 443 773 443 777 c 0
 443 811 420 834 382 834 c 0
 339 834 306 805 300 765 c 0
 299 761 299 757 299 753 c 0
 299 719 322 696 360 696 c 0
37 171 m 0
 49 249 122 316 240 316 c 0
 321 316 397 309 448 302 c 1
 467 425 l 2
 469 435 469 444 469 453 c 0
 469 528 414 567 330 567 c 0
 238 567 176 513 151 433 c 1
 84 438 l 1
 112 531 200 617 338 617 c 0
 461 617 535 553 535 457 c 0
 535 447 534 436 532 425 c 2
 486 132 l 2
 484 120 483 110 483 100 c 0
 483 58 502 38 545 33 c 1
 521 -12 l 1
 476 -6 426 16 426 90 c 2
 426 103 l 1
 382 43 315 -12 215 -12 c 0
 104 -12 34 43 34 138 c 0
 34 149 35 159 37 171 c 0
444 259 m 1
 399 265 327 275 237 275 c 0
 168 275 112 236 102 171 c 0
 100 161 100 152 100 143 c 0
 100 68 155 31 228 31 c 0
 341 31 406 126 435 204 c 1
 444 259 l 1
EndSplineSet
MultipleSubs2: "Latin.a.decomp subtable" uni0251 uni030A
EndChar

StartChar: ae
Encoding: 230 230 169
Width: 960
GlyphClass: 2
Flags: W
AnchorPoint: "LatinBelow.mark" 420 0 basechar 0
AnchorPoint: "LatinAbove.mark" 420 0 basechar 0
LayerCount: 2
Fore
SplineSet
37 171 m 0
 50 251 116 316 232 316 c 0
 306 316 374 309 421 302 c 1
 440 425 l 2
 442 436 443 446 443 456 c 0
 443 530 393 567 318 567 c 0
 231 567 176 513 151 433 c 1
 84 438 l 1
 112 531 193 617 326 617 c 0
 421 617 482 573 499 503 c 1
 544 570 609 617 702 617 c 0
 833 617 893 532 893 420 c 0
 893 402 891 383 888 364 c 0
 885 342 876 316 869 293 c 1
 485 293 l 1
 484 286 l 2
 480 258 477 232 477 207 c 0
 477 103 518 31 609 31 c 0
 701 31 756 98 772 148 c 1
 836 142 l 1
 816 79 735 -17 601 -17 c 0
 496 -17 445 42 427 121 c 1
 388 52 318 -17 205 -17 c 0
 98 -17 34 36 34 132 c 0
 34 144 35 157 37 171 c 0
492 337 m 1
 818 337 l 1
 820 346 823 354 824 363 c 0
 827 382 829 400 829 417 c 0
 829 511 782 569 694 569 c 0
 590 569 519 471 492 337 c 1
418 259 m 1
 375 265 316 275 231 275 c 0
 162 275 113 238 102 171 c 0
 100 160 99 149 99 139 c 0
 99 63 151 29 220 29 c 0
 327 29 386 124 409 205 c 1
 418 259 l 1
EndSplineSet
EndChar

StartChar: ccedilla
Encoding: 231 231 170
Width: 605
GlyphClass: 2
Flags: W
AnchorPoint: "LatinAbove.mark" 270 0 basechar 0
LayerCount: 2
Fore
SplineSet
139 -291 m 1
 204 -275 299 -246 310 -175 c 0
 310 -172 311 -170 311 -167 c 0
 311 -144 294 -124 237 -124 c 0
 219 -124 198 -126 187 -128 c 1
 168 -106 l 1
 234 -15 l 1
 95 0 49 101 49 213 c 0
 49 237 51 262 55 287 c 2
 60 313 l 1
 83 460 169 617 369 617 c 0
 516 617 567 520 567 457 c 1
 499 451 l 1
 498 500 458 567 361 567 c 0
 228 567 151 459 128 313 c 1
 123 287 l 2
 119 262 117 239 117 217 c 0
 117 108 165 33 276 33 c 0
 373 33 435 100 452 149 c 1
 518 143 l 1
 498 81 417 -15 273 -17 c 1
 221 -91 l 1
 230 -90 241 -90 251 -90 c 0
 321 -90 358 -116 358 -161 c 0
 358 -165 358 -170 357 -175 c 0
 340 -281 201 -310 146 -325 c 1
 139 -291 l 1
EndSplineSet
EndChar

StartChar: egrave
Encoding: 232 232 171
Width: 640
GlyphClass: 2
Flags: W
AnchorPoint: "LatinBelow.mark" 270 0 basechar 0
AnchorPoint: "LatinAbove.mark" 299 180 basechar 0
LayerCount: 2
Fore
SplineSet
260 852 m 1
 300 900 l 1
 485 729 l 1
 460 700 l 1
 260 852 l 1
55 286 m 2
 60 314 l 2
 83 460 170 617 365 617 c 0
 504 617 572 528 572 414 c 0
 572 398 571 381 568 364 c 0
 564 341 558 316 549 293 c 1
 121 293 l 1
 120 286 l 2
 116 261 114 237 114 214 c 0
 114 106 161 32 272 32 c 0
 372 32 432 99 449 148 c 1
 513 142 l 1
 492 78 409 -17 264 -17 c 0
 101 -17 49 91 49 211 c 0
 49 236 51 261 55 286 c 2
129 337 m 1
 499 337 l 1
 501 346 504 355 505 364 c 0
 508 381 509 396 509 411 c 0
 509 511 452 569 357 569 c 0
 231 569 156 470 129 337 c 1
EndSplineSet
EndChar

StartChar: eacute
Encoding: 233 233 172
Width: 640
GlyphClass: 2
Flags: W
AnchorPoint: "LatinBelow.mark" 270 0 basechar 0
AnchorPoint: "LatinAbove.mark" 299 180 basechar 0
LayerCount: 2
Fore
SplineSet
550 852 m 1
 302 700 l 1
 285 729 l 1
 526 900 l 1
 550 852 l 1
55 286 m 2
 60 314 l 2
 83 460 170 617 365 617 c 0
 504 617 572 528 572 414 c 0
 572 398 571 381 568 364 c 0
 564 341 558 316 549 293 c 1
 121 293 l 1
 120 286 l 2
 116 261 114 237 114 214 c 0
 114 106 161 32 272 32 c 0
 372 32 432 99 449 148 c 1
 513 142 l 1
 492 78 409 -17 264 -17 c 0
 101 -17 49 91 49 211 c 0
 49 236 51 261 55 286 c 2
129 337 m 1
 499 337 l 1
 501 346 504 355 505 364 c 0
 508 381 509 396 509 411 c 0
 509 511 452 569 357 569 c 0
 231 569 156 470 129 337 c 1
EndSplineSet
EndChar

StartChar: ecircumflex
Encoding: 234 234 173
Width: 640
GlyphClass: 2
Flags: W
AnchorPoint: "LatinBelow.mark" 270 0 basechar 0
AnchorPoint: "LatinAbove.mark" 299 180 basechar 0
LayerCount: 2
Fore
SplineSet
202 709 m 1
 396 860 l 1
 416 860 l 1
 562 709 l 1
 535 685 l 1
 397 800 l 1
 221 685 l 1
 202 709 l 1
55 286 m 2
 60 314 l 2
 83 460 170 617 365 617 c 0
 504 617 572 528 572 414 c 0
 572 398 571 381 568 364 c 0
 564 341 558 316 549 293 c 1
 121 293 l 1
 120 286 l 2
 116 261 114 237 114 214 c 0
 114 106 161 32 272 32 c 0
 372 32 432 99 449 148 c 1
 513 142 l 1
 492 78 409 -17 264 -17 c 0
 101 -17 49 91 49 211 c 0
 49 236 51 261 55 286 c 2
129 337 m 1
 499 337 l 1
 501 346 504 355 505 364 c 0
 508 381 509 396 509 411 c 0
 509 511 452 569 357 569 c 0
 231 569 156 470 129 337 c 1
EndSplineSet
EndChar

StartChar: edieresis
Encoding: 235 235 174
Width: 640
GlyphClass: 2
Flags: W
AnchorPoint: "LatinBelow.mark" 270 0 basechar 0
AnchorPoint: "LatinAbove.mark" 299 180 basechar 0
LayerCount: 2
Fore
SplineSet
450 780 m 0
 456 816 486 838 521 838 c 0
 552 838 575 821 575 791 c 0
 575 788 575 784 574 780 c 0
 568 744 537 722 502 722 c 0
 471 722 449 740 449 769 c 0
 449 773 449 776 450 780 c 0
214 780 m 0
 220 816 250 838 285 838 c 0
 316 838 339 821 339 791 c 0
 339 788 339 784 338 780 c 0
 332 744 301 722 266 722 c 0
 235 722 213 740 213 769 c 0
 213 773 213 776 214 780 c 0
55 286 m 2
 60 314 l 2
 83 460 170 617 365 617 c 0
 504 617 572 528 572 414 c 0
 572 398 571 381 568 364 c 0
 564 341 558 316 549 293 c 1
 121 293 l 1
 120 286 l 2
 116 261 114 237 114 214 c 0
 114 106 161 32 272 32 c 0
 372 32 432 99 449 148 c 1
 513 142 l 1
 492 78 409 -17 264 -17 c 0
 101 -17 49 91 49 211 c 0
 49 236 51 261 55 286 c 2
129 337 m 1
 499 337 l 1
 501 346 504 355 505 364 c 0
 508 381 509 396 509 411 c 0
 509 511 452 569 357 569 c 0
 231 569 156 470 129 337 c 1
EndSplineSet
EndChar

StartChar: igrave
Encoding: 236 236 175
Width: 300
GlyphClass: 2
Flags: W
AnchorPoint: "LatinBelow.mark" 90 0 basechar 0
AnchorPoint: "LatinAbove.mark" 119 180 basechar 0
LayerCount: 2
Fore
SplineSet
80 852 m 1
 120 900 l 1
 305 729 l 1
 280 700 l 1
 80 852 l 1
56 0 m 1
 151 600 l 1
 219 600 l 1
 124 0 l 1
 56 0 l 1
EndSplineSet
EndChar

StartChar: iacute
Encoding: 237 237 176
Width: 300
GlyphClass: 2
Flags: W
AnchorPoint: "LatinBelow.mark" 90 0 basechar 0
AnchorPoint: "LatinAbove.mark" 119 180 basechar 0
LayerCount: 2
Fore
SplineSet
370 852 m 1
 122 700 l 1
 105 729 l 1
 346 900 l 1
 370 852 l 1
56 0 m 1
 151 600 l 1
 219 600 l 1
 124 0 l 1
 56 0 l 1
EndSplineSet
EndChar

StartChar: icircumflex
Encoding: 238 238 177
Width: 300
GlyphClass: 2
Flags: W
AnchorPoint: "LatinBelow.mark" 90 0 basechar 0
AnchorPoint: "LatinAbove.mark" 119 180 basechar 0
LayerCount: 2
Fore
SplineSet
22 709 m 1
 216 860 l 1
 236 860 l 1
 382 709 l 1
 355 685 l 1
 217 800 l 1
 41 685 l 1
 22 709 l 1
56 0 m 1
 151 600 l 1
 219 600 l 1
 124 0 l 1
 56 0 l 1
EndSplineSet
EndChar

StartChar: idieresis
Encoding: 239 239 178
Width: 300
GlyphClass: 2
Flags: W
AnchorPoint: "LatinBelow.mark" 90 0 basechar 0
AnchorPoint: "LatinAbove.mark" 119 180 basechar 0
LayerCount: 2
Fore
SplineSet
270 780 m 0
 276 816 306 838 341 838 c 0
 372 838 395 821 395 791 c 0
 395 788 395 784 394 780 c 0
 388 744 357 722 322 722 c 0
 291 722 269 740 269 769 c 0
 269 773 269 776 270 780 c 0
34 780 m 0
 40 816 70 838 105 838 c 0
 136 838 159 821 159 791 c 0
 159 788 159 784 158 780 c 0
 152 744 121 722 86 722 c 0
 55 722 33 740 33 769 c 0
 33 773 33 776 34 780 c 0
56 0 m 1
 151 600 l 1
 219 600 l 1
 124 0 l 1
 56 0 l 1
EndSplineSet
EndChar

StartChar: eth
Encoding: 240 240 179
Width: 660
GlyphClass: 2
Flags: W
AnchorPoint: "LatinBelow.mark" 270 0 basechar 0
AnchorPoint: "LatinAbove.mark" 319 180 basechar 0
LayerCount: 2
Fore
SplineSet
443 775 m 1
 589 810 l 1
 592 773 l 1
 471 744 l 1
 552 648 587 537 587 415 c 0
 587 378 584 340 578 301 c 2
 573 274 l 2
 551 134 467 -17 267 -17 c 0
 100 -17 47 89 47 205 c 0
 47 228 49 251 53 274 c 2
 59 310 l 2
 82 455 169 607 354 607 c 0
 428 607 478 572 510 526 c 1
 495 601 461 668 408 729 c 1
 186 675 l 1
 183 712 l 1
 379 759 l 1
 353 785 322 809 288 832 c 1
 330 867 l 1
 373 838 411 808 443 775 c 1
520 383 m 0
 512 464 461 557 353 557 c 0
 225 557 149 456 126 310 c 2
 120 274 l 2
 116 251 115 230 115 209 c 0
 115 104 163 32 275 32 c 0
 409 32 484 134 506 274 c 2
 511 301 l 2
 515 329 519 357 520 383 c 0
EndSplineSet
EndChar

StartChar: ntilde
Encoding: 241 241 180
Width: 655
GlyphClass: 2
Flags: W
AnchorPoint: "LatinBelow.mark" 300 0 basechar 0
LayerCount: 2
Fore
SplineSet
207 737 m 1
 231 783 268 855 328 855 c 0
 374 855 397 824 415 801 c 0
 434 779 446 755 468 755 c 0
 502 755 533 820 547 847 c 1
 582 833 l 1
 559 786 519 715 460 715 c 0
 414 715 392 746 374 769 c 0
 355 791 343 815 321 815 c 0
 286 815 257 751 242 723 c 1
 207 737 l 1
40 0 m 1
 107 420 l 1
 125 597 l 1
 186 603 l 1
 174 421 l 1
 229 517 320 612 439 612 c 0
 536 612 580 551 580 468 c 0
 580 455 579 440 577 426 c 2
 510 0 l 1
 443 0 l 1
 510 424 l 2
 512 437 513 448 513 459 c 0
 513 527 474 558 415 558 c 0
 296 558 190 418 155 305 c 1
 107 0 l 1
 40 0 l 1
EndSplineSet
EndChar

StartChar: ograve
Encoding: 242 242 181
Width: 660
GlyphClass: 2
Flags: W
AnchorPoint: "LatinBelow.mark" 270 0 basechar 0
AnchorPoint: "LatinAbove.mark" 299 180 basechar 0
LayerCount: 2
Fore
SplineSet
260 852 m 1
 300 900 l 1
 485 729 l 1
 460 700 l 1
 260 852 l 1
55 286 m 2
 60 314 l 2
 83 460 168 617 368 617 c 0
 534 617 586 509 586 389 c 0
 586 364 584 339 580 314 c 2
 575 286 l 2
 552 140 467 -17 267 -17 c 0
 101 -17 49 91 49 211 c 0
 49 236 51 261 55 286 c 2
275 33 m 0
 409 33 485 140 508 286 c 2
 513 314 l 2
 517 339 519 363 519 385 c 0
 519 493 471 567 360 567 c 0
 226 567 150 460 127 314 c 2
 122 286 l 2
 118 261 116 237 116 215 c 0
 116 107 164 33 275 33 c 0
EndSplineSet
EndChar

StartChar: oacute
Encoding: 243 243 182
Width: 660
GlyphClass: 2
Flags: W
AnchorPoint: "LatinBelow.mark" 270 0 basechar 0
AnchorPoint: "LatinAbove.mark" 299 180 basechar 0
LayerCount: 2
Fore
SplineSet
550 852 m 1
 302 700 l 1
 285 729 l 1
 526 900 l 1
 550 852 l 1
55 286 m 2
 60 314 l 2
 83 460 168 617 368 617 c 0
 534 617 586 509 586 389 c 0
 586 364 584 339 580 314 c 2
 575 286 l 2
 552 140 467 -17 267 -17 c 0
 101 -17 49 91 49 211 c 0
 49 236 51 261 55 286 c 2
275 33 m 0
 409 33 485 140 508 286 c 2
 513 314 l 2
 517 339 519 363 519 385 c 0
 519 493 471 567 360 567 c 0
 226 567 150 460 127 314 c 2
 122 286 l 2
 118 261 116 237 116 215 c 0
 116 107 164 33 275 33 c 0
EndSplineSet
EndChar

StartChar: ocircumflex
Encoding: 244 244 183
Width: 660
GlyphClass: 2
Flags: W
AnchorPoint: "LatinBelow.mark" 270 0 basechar 0
AnchorPoint: "LatinAbove.mark" 299 180 basechar 0
LayerCount: 2
Fore
SplineSet
202 709 m 1
 396 860 l 1
 416 860 l 1
 562 709 l 1
 535 685 l 1
 397 800 l 1
 221 685 l 1
 202 709 l 1
55 286 m 2
 60 314 l 2
 83 460 168 617 368 617 c 0
 534 617 586 509 586 389 c 0
 586 364 584 339 580 314 c 2
 575 286 l 2
 552 140 467 -17 267 -17 c 0
 101 -17 49 91 49 211 c 0
 49 236 51 261 55 286 c 2
275 33 m 0
 409 33 485 140 508 286 c 2
 513 314 l 2
 517 339 519 363 519 385 c 0
 519 493 471 567 360 567 c 0
 226 567 150 460 127 314 c 2
 122 286 l 2
 118 261 116 237 116 215 c 0
 116 107 164 33 275 33 c 0
EndSplineSet
EndChar

StartChar: otilde
Encoding: 245 245 184
Width: 660
GlyphClass: 2
Flags: W
AnchorPoint: "LatinBelow.mark" 270 0 basechar 0
AnchorPoint: "LatinAbove.mark" 299 180 basechar 0
LayerCount: 2
Fore
SplineSet
207 737 m 1
 231 783 268 855 328 855 c 0
 374 855 397 824 415 801 c 0
 434 779 446 755 468 755 c 0
 502 755 533 820 547 847 c 1
 582 833 l 1
 559 786 519 715 460 715 c 0
 414 715 392 746 374 769 c 0
 355 791 343 815 321 815 c 0
 286 815 257 751 242 723 c 1
 207 737 l 1
55 286 m 2
 60 314 l 2
 83 460 168 617 368 617 c 0
 534 617 586 509 586 389 c 0
 586 364 584 339 580 314 c 2
 575 286 l 2
 552 140 467 -17 267 -17 c 0
 101 -17 49 91 49 211 c 0
 49 236 51 261 55 286 c 2
275 33 m 0
 409 33 485 140 508 286 c 2
 513 314 l 2
 517 339 519 363 519 385 c 0
 519 493 471 567 360 567 c 0
 226 567 150 460 127 314 c 2
 122 286 l 2
 118 261 116 237 116 215 c 0
 116 107 164 33 275 33 c 0
EndSplineSet
EndChar

StartChar: odieresis
Encoding: 246 246 185
Width: 660
GlyphClass: 2
Flags: W
AnchorPoint: "LatinBelow.mark" 270 0 basechar 0
AnchorPoint: "LatinAbove.mark" 299 180 basechar 0
LayerCount: 2
Fore
SplineSet
450 780 m 0
 456 816 486 838 521 838 c 0
 552 838 575 821 575 791 c 0
 575 788 575 784 574 780 c 0
 568 744 537 722 502 722 c 0
 471 722 449 740 449 769 c 0
 449 773 449 776 450 780 c 0
214 780 m 0
 220 816 250 838 285 838 c 0
 316 838 339 821 339 791 c 0
 339 788 339 784 338 780 c 0
 332 744 301 722 266 722 c 0
 235 722 213 740 213 769 c 0
 213 773 213 776 214 780 c 0
55 286 m 2
 60 314 l 2
 83 460 168 617 368 617 c 0
 534 617 586 509 586 389 c 0
 586 364 584 339 580 314 c 2
 575 286 l 2
 552 140 467 -17 267 -17 c 0
 101 -17 49 91 49 211 c 0
 49 236 51 261 55 286 c 2
275 33 m 0
 409 33 485 140 508 286 c 2
 513 314 l 2
 517 339 519 363 519 385 c 0
 519 493 471 567 360 567 c 0
 226 567 150 460 127 314 c 2
 122 286 l 2
 118 261 116 237 116 215 c 0
 116 107 164 33 275 33 c 0
EndSplineSet
EndChar

StartChar: divide
Encoding: 247 247 186
Width: 600
GlyphClass: 2
Flags: W
LayerCount: 2
Fore
SplineSet
98 336 m 1
 106 384 l 1
 496 384 l 1
 488 336 l 1
 98 336 l 1
217 235 m 0
 223 270 252 291 286 291 c 0
 316 291 338 275 338 246 c 0
 338 243 338 239 337 235 c 0
 331 200 302 179 268 179 c 0
 238 179 216 195 216 224 c 0
 216 227 216 231 217 235 c 0
257 485 m 0
 263 520 292 541 326 541 c 0
 356 541 378 525 378 496 c 0
 378 493 378 489 377 485 c 0
 371 450 342 429 308 429 c 0
 278 429 256 445 256 474 c 0
 256 477 256 481 257 485 c 0
EndSplineSet
EndChar

StartChar: oslash
Encoding: 248 248 187
Width: 660
GlyphClass: 2
Flags: W
AnchorPoint: "LatinBelow.mark" 270 0 basechar 0
AnchorPoint: "LatinAbove.mark" 270 0 basechar 0
LayerCount: 2
Fore
SplineSet
55 286 m 2
 60 314 l 2
 83 460 168 617 368 617 c 0
 446 617 499 593 533 555 c 1
 592 617 l 1
 619 595 l 1
 554 526 l 1
 577 487 586 438 586 388 c 0
 586 363 584 339 580 314 c 2
 575 286 l 2
 552 140 467 -17 267 -17 c 0
 189 -17 136 7 102 45 c 1
 43 -17 l 1
 16 5 l 1
 81 74 l 1
 58 113 49 162 49 212 c 0
 49 237 51 261 55 286 c 2
488 507 m 1
 463 545 421 567 360 567 c 0
 226 567 150 460 127 314 c 2
 122 286 l 2
 118 262 116 239 116 217 c 0
 116 183 121 152 130 126 c 1
 488 507 l 1
505 474 m 1
 147 93 l 1
 172 55 214 33 275 33 c 0
 409 33 485 140 508 286 c 2
 513 314 l 2
 517 338 519 361 519 383 c 0
 519 417 514 448 505 474 c 1
EndSplineSet
EndChar

StartChar: ugrave
Encoding: 249 249 188
Width: 620
GlyphClass: 2
Flags: W
AnchorPoint: "LatinBelow.mark" 250 0 basechar 0
AnchorPoint: "LatinAbove.mark" 279 180 basechar 0
LayerCount: 2
Fore
SplineSet
240 852 m 1
 280 900 l 1
 465 729 l 1
 440 700 l 1
 240 852 l 1
49 181 m 2
 115 600 l 1
 182 600 l 1
 116 181 l 2
 114 171 114 161 114 152 c 0
 114 75 169 33 255 33 c 0
 351 33 427 86 442 181 c 2
 508 600 l 1
 575 600 l 1
 509 181 l 2
 491 66 387 -17 247 -17 c 0
 121 -17 46 50 46 148 c 0
 46 159 47 170 49 181 c 2
EndSplineSet
EndChar

StartChar: uacute
Encoding: 250 250 189
Width: 620
GlyphClass: 2
Flags: W
AnchorPoint: "LatinBelow.mark" 250 0 basechar 0
AnchorPoint: "LatinAbove.mark" 279 180 basechar 0
LayerCount: 2
Fore
SplineSet
530 852 m 1
 282 700 l 1
 265 729 l 1
 506 900 l 1
 530 852 l 1
49 181 m 2
 115 600 l 1
 182 600 l 1
 116 181 l 2
 114 171 114 161 114 152 c 0
 114 75 169 33 255 33 c 0
 351 33 427 86 442 181 c 2
 508 600 l 1
 575 600 l 1
 509 181 l 2
 491 66 387 -17 247 -17 c 0
 121 -17 46 50 46 148 c 0
 46 159 47 170 49 181 c 2
EndSplineSet
EndChar

StartChar: ucircumflex
Encoding: 251 251 190
Width: 620
GlyphClass: 2
Flags: W
AnchorPoint: "LatinBelow.mark" 250 0 basechar 0
AnchorPoint: "LatinAbove.mark" 279 180 basechar 0
LayerCount: 2
Fore
SplineSet
182 709 m 1
 376 860 l 1
 396 860 l 1
 542 709 l 1
 515 685 l 1
 377 800 l 1
 201 685 l 1
 182 709 l 1
49 181 m 2
 115 600 l 1
 182 600 l 1
 116 181 l 2
 114 171 114 161 114 152 c 0
 114 75 169 33 255 33 c 0
 351 33 427 86 442 181 c 2
 508 600 l 1
 575 600 l 1
 509 181 l 2
 491 66 387 -17 247 -17 c 0
 121 -17 46 50 46 148 c 0
 46 159 47 170 49 181 c 2
EndSplineSet
EndChar

StartChar: udieresis
Encoding: 252 252 191
Width: 620
GlyphClass: 2
Flags: W
AnchorPoint: "LatinBelow.mark" 250 0 basechar 0
AnchorPoint: "LatinAbove.mark" 279 180 basechar 0
LayerCount: 2
Fore
SplineSet
430 780 m 0
 436 816 466 838 501 838 c 0
 532 838 555 821 555 791 c 0
 555 788 555 784 554 780 c 0
 548 744 517 722 482 722 c 0
 451 722 429 740 429 769 c 0
 429 773 429 776 430 780 c 0
194 780 m 0
 200 816 230 838 265 838 c 0
 296 838 319 821 319 791 c 0
 319 788 319 784 318 780 c 0
 312 744 281 722 246 722 c 0
 215 722 193 740 193 769 c 0
 193 773 193 776 194 780 c 0
49 181 m 2
 115 600 l 1
 182 600 l 1
 116 181 l 2
 114 171 114 161 114 152 c 0
 114 75 169 33 255 33 c 0
 351 33 427 86 442 181 c 2
 508 600 l 1
 575 600 l 1
 509 181 l 2
 491 66 387 -17 247 -17 c 0
 121 -17 46 50 46 148 c 0
 46 159 47 170 49 181 c 2
EndSplineSet
EndChar

StartChar: yacute
Encoding: 253 253 192
Width: 600
GlyphClass: 2
Flags: W
AnchorPoint: "LatinBelow.mark" 211 -180 basechar 0
AnchorPoint: "LatinAbove.mark" 269 180 basechar 0
LayerCount: 2
Fore
SplineSet
520 852 m 1
 272 700 l 1
 255 729 l 1
 496 900 l 1
 520 852 l 1
64 591 m 1
 64 595 l 1
 137 600 l 1
 252 74 l 1
 533 600 l 1
 604 595 l 1
 604 591 l 1
 251 -34 l 2
 205 -110 139 -227 43 -227 c 0
 -4 -227 -30 -204 -49 -185 c 1
 -9 -143 l 1
 6 -161 21 -180 49 -180 c 0
 100 -180 149 -101 197 -21 c 2
 211 3 l 1
 64 591 l 1
EndSplineSet
EndChar

StartChar: thorn
Encoding: 254 254 193
Width: 675
GlyphClass: 2
Flags: W
AnchorPoint: "LatinBelow.mark" 61 -180 basechar 0
AnchorPoint: "LatinAbove.mark" 104 180 basechar 0
LayerCount: 2
Fore
SplineSet
595 313 m 2
 590 287 l 1
 567 142 480 -12 295 -12 c 0
 201 -12 151 46 125 111 c 1
 74 -210 l 1
 7 -210 l 1
 168 810 l 1
 233 810 l 1
 182 489 l 1
 229 554 300 612 394 612 c 0
 548 612 601 505 601 385 c 0
 601 361 599 337 595 313 c 2
140 207 m 1
 149 127 191 38 296 38 c 0
 424 38 500 141 523 287 c 1
 528 313 l 2
 532 338 534 361 534 383 c 0
 534 491 485 562 379 562 c 0
 274 562 204 473 169 393 c 1
 140 207 l 1
EndSplineSet
EndChar

StartChar: ydieresis
Encoding: 255 255 194
Width: 600
GlyphClass: 2
Flags: W
AnchorPoint: "LatinBelow.mark" 211 -180 basechar 0
AnchorPoint: "LatinAbove.mark" 269 180 basechar 0
LayerCount: 2
Fore
SplineSet
420 780 m 0
 426 816 456 838 491 838 c 0
 522 838 545 821 545 791 c 0
 545 788 545 784 544 780 c 0
 538 744 507 722 472 722 c 0
 441 722 419 740 419 769 c 0
 419 773 419 776 420 780 c 0
184 780 m 0
 190 816 220 838 255 838 c 0
 286 838 309 821 309 791 c 0
 309 788 309 784 308 780 c 0
 302 744 271 722 236 722 c 0
 205 722 183 740 183 769 c 0
 183 773 183 776 184 780 c 0
64 591 m 1
 64 595 l 1
 137 600 l 1
 252 74 l 1
 533 600 l 1
 604 595 l 1
 604 591 l 1
 251 -34 l 2
 205 -110 139 -227 43 -227 c 0
 -4 -227 -30 -204 -49 -185 c 1
 -9 -143 l 1
 6 -161 21 -180 49 -180 c 0
 100 -180 149 -101 197 -21 c 2
 211 3 l 1
 64 591 l 1
EndSplineSet
EndChar

StartChar: Amacron
Encoding: 256 256 195
Width: 750
GlyphClass: 2
Flags: W
AnchorPoint: "LatinBelow.mark" 315 0 basechar 0
AnchorPoint: "LatinAbove.mark" 367 330 basechar 0
LayerCount: 2
Fore
SplineSet
279 907 m 1
 286 953 l 1
 646 953 l 1
 639 907 l 1
 279 907 l 1
660 0 m 1
 580 0 l 1
 539 184 l 1
 149 184 l 1
 50 0 l 1
 -30 0 l 1
 -29 5 l 1
 408 780 l 1
 470 780 l 1
 661 5 l 1
 660 0 l 1
527 236 m 1
 426 698 l 1
 177 236 l 1
 527 236 l 1
EndSplineSet
EndChar

StartChar: amacron
Encoding: 257 257 196
Width: 625
GlyphClass: 2
Flags: W
AnchorPoint: "LatinBelow.mark" 270 0 basechar 0
AnchorPoint: "LatinAbove.mark" 279 180 basechar 0
LayerCount: 2
Fore
SplineSet
190 757 m 1
 197 803 l 1
 557 803 l 1
 550 757 l 1
 190 757 l 1
37 171 m 0
 49 249 122 316 240 316 c 0
 321 316 397 309 448 302 c 1
 467 425 l 2
 469 435 469 444 469 453 c 0
 469 528 414 567 330 567 c 0
 238 567 176 513 151 433 c 1
 84 438 l 1
 112 531 200 617 338 617 c 0
 461 617 535 553 535 457 c 0
 535 447 534 436 532 425 c 2
 486 132 l 2
 484 120 483 110 483 100 c 0
 483 58 502 38 545 33 c 1
 521 -12 l 1
 476 -6 426 16 426 90 c 2
 426 103 l 1
 382 43 315 -12 215 -12 c 0
 104 -12 34 43 34 138 c 0
 34 149 35 159 37 171 c 0
444 259 m 1
 399 265 327 275 237 275 c 0
 168 275 112 236 102 171 c 0
 100 161 100 152 100 143 c 0
 100 68 155 31 228 31 c 0
 341 31 406 126 435 204 c 1
 444 259 l 1
EndSplineSet
MultipleSubs2: "Latin.a.decomp subtable" uni0251 uni0304
EndChar

StartChar: Abreve
Encoding: 258 258 197
Width: 750
GlyphClass: 2
Flags: W
AnchorPoint: "LatinBelow.mark" 315 0 basechar 0
AnchorPoint: "LatinAbove.mark" 367 330 basechar 0
LayerCount: 2
Fore
SplineSet
292 989 m 1
 338 1005 l 1
 343 953 366 895 457 895 c 0
 548 895 589 953 610 1005 c 1
 652 989 l 1
 623 920 563 850 450 850 c 0
 337 850 299 920 292 989 c 1
660 0 m 1
 580 0 l 1
 539 184 l 1
 149 184 l 1
 50 0 l 1
 -30 0 l 1
 -29 5 l 1
 408 780 l 1
 470 780 l 1
 661 5 l 1
 660 0 l 1
527 236 m 1
 426 698 l 1
 177 236 l 1
 527 236 l 1
EndSplineSet
EndChar

StartChar: abreve
Encoding: 259 259 198
Width: 625
GlyphClass: 2
Flags: W
AnchorPoint: "LatinBelow.mark" 270 0 basechar 0
AnchorPoint: "LatinAbove.mark" 279 180 basechar 0
LayerCount: 2
Fore
SplineSet
203 839 m 1
 249 855 l 1
 254 803 277 745 368 745 c 0
 459 745 500 803 521 855 c 1
 563 839 l 1
 534 770 474 700 361 700 c 0
 248 700 210 770 203 839 c 1
37 171 m 0
 49 249 122 316 240 316 c 0
 321 316 397 309 448 302 c 1
 467 425 l 2
 469 435 469 444 469 453 c 0
 469 528 414 567 330 567 c 0
 238 567 176 513 151 433 c 1
 84 438 l 1
 112 531 200 617 338 617 c 0
 461 617 535 553 535 457 c 0
 535 447 534 436 532 425 c 2
 486 132 l 2
 484 120 483 110 483 100 c 0
 483 58 502 38 545 33 c 1
 521 -12 l 1
 476 -6 426 16 426 90 c 2
 426 103 l 1
 382 43 315 -12 215 -12 c 0
 104 -12 34 43 34 138 c 0
 34 149 35 159 37 171 c 0
444 259 m 1
 399 265 327 275 237 275 c 0
 168 275 112 236 102 171 c 0
 100 161 100 152 100 143 c 0
 100 68 155 31 228 31 c 0
 341 31 406 126 435 204 c 1
 444 259 l 1
EndSplineSet
MultipleSubs2: "Latin.a.decomp subtable" uni0251 uni0306
EndChar

StartChar: Aogonek
Encoding: 260 260 199
Width: 750
GlyphClass: 2
Flags: W
AnchorPoint: "LatinAbove.mark" 339 150 basechar 0
LayerCount: 2
Fore
SplineSet
527 236 m 1
 426 698 l 1
 177 236 l 1
 527 236 l 1
591 0 m 1
 580 0 l 1
 539 184 l 1
 149 184 l 1
 50 0 l 1
 -30 0 l 1
 -29 5 l 1
 408 780 l 1
 470 780 l 1
 661 5 l 1
 660 0 l 1
 635 0 l 1
 600 -35 571 -76 561 -138 c 0
 560 -145 559 -151 559 -157 c 0
 559 -194 581 -212 614 -212 c 0
 643 -212 667 -204 682 -196 c 1
 689 -231 l 1
 663 -244 636 -250 601 -250 c 0
 541 -250 511 -216 511 -166 c 0
 511 -159 512 -151 513 -143 c 0
 523 -80 555 -36 591 0 c 1
EndSplineSet
EndChar

StartChar: aogonek
Encoding: 261 261 200
Width: 625
GlyphClass: 2
Flags: W
AnchorPoint: "LatinAbove.mark" 250 0 basechar 0
LayerCount: 2
Fore
SplineSet
444 259 m 1
 399 265 327 275 237 275 c 0
 168 275 112 236 102 171 c 0
 100 161 100 152 100 143 c 0
 100 68 155 31 228 31 c 0
 341 31 406 126 435 204 c 1
 444 259 l 1
37 171 m 0
 49 249 122 316 240 316 c 0
 321 316 397 309 448 302 c 1
 467 425 l 2
 469 435 469 444 469 453 c 0
 469 528 414 567 330 567 c 0
 238 567 176 513 151 433 c 1
 84 438 l 1
 112 531 200 617 338 617 c 0
 461 617 535 553 535 457 c 0
 535 447 534 436 532 425 c 2
 486 132 l 2
 484 120 483 110 483 100 c 0
 483 58 502 38 545 33 c 1
 521 -12 l 1
 507 -10 493 -7 480 -1 c 1
 446 -35 416 -77 406 -138 c 0
 405 -145 404 -151 404 -157 c 0
 404 -194 426 -212 459 -212 c 0
 488 -212 512 -204 527 -196 c 1
 534 -231 l 1
 508 -244 481 -250 446 -250 c 0
 386 -250 356 -216 356 -166 c 0
 356 -159 357 -151 358 -143 c 0
 370 -70 412 -22 454 16 c 1
 438 32 425 55 425 89 c 0
 425 93 426 98 426 103 c 1
 382 43 315 -12 215 -12 c 0
 104 -12 34 43 34 138 c 0
 34 149 35 159 37 171 c 0
EndSplineSet
MultipleSubs2: "Latin.a.decomp subtable" uni0251 uni0328
EndChar

StartChar: Cacute
Encoding: 262 262 201
Width: 755
GlyphClass: 2
Flags: W
AnchorPoint: "LatinBelow.mark" 350 0 basechar 0
LayerCount: 2
Fore
SplineSet
654 1002 m 1
 406 850 l 1
 389 879 l 1
 630 1050 l 1
 654 1002 l 1
79 407 m 2
 109 599 224 797 479 797 c 0
 666 797 733 674 734 595 c 1
 660 588 l 1
 658 653 606 742 471 742 c 0
 287 742 183 597 153 407 c 2
 148 373 l 2
 143 341 140 312 140 283 c 0
 140 139 206 38 359 38 c 0
 494 38 575 127 597 192 c 1
 669 185 l 1
 642 106 537 -17 350 -17 c 0
 137 -17 66 122 66 279 c 0
 66 310 69 341 74 373 c 2
 79 407 l 2
EndSplineSet
EndChar

StartChar: cacute
Encoding: 263 263 202
Width: 605
GlyphClass: 2
Flags: W
AnchorPoint: "LatinBelow.mark" 270 0 basechar 0
LayerCount: 2
Fore
SplineSet
550 852 m 1
 302 700 l 1
 285 729 l 1
 526 900 l 1
 550 852 l 1
55 287 m 2
 60 313 l 1
 83 460 169 617 369 617 c 0
 516 617 567 520 567 457 c 1
 499 451 l 1
 498 500 458 567 361 567 c 0
 228 567 151 459 128 313 c 1
 123 287 l 2
 119 262 117 239 117 217 c 0
 117 108 165 33 276 33 c 0
 373 33 435 100 452 149 c 1
 518 143 l 1
 498 80 415 -17 268 -17 c 0
 102 -17 49 91 49 212 c 0
 49 237 51 262 55 287 c 2
EndSplineSet
EndChar

StartChar: Ccircumflex
Encoding: 264 264 203
Width: 755
GlyphClass: 2
Flags: W
AnchorPoint: "LatinBelow.mark" 350 0 basechar 0
LayerCount: 2
Fore
SplineSet
306 859 m 1
 500 1010 l 1
 520 1010 l 1
 666 859 l 1
 639 835 l 1
 501 950 l 1
 325 835 l 1
 306 859 l 1
79 407 m 2
 109 599 224 797 479 797 c 0
 666 797 733 674 734 595 c 1
 660 588 l 1
 658 653 606 742 471 742 c 0
 287 742 183 597 153 407 c 2
 148 373 l 2
 143 341 140 312 140 283 c 0
 140 139 206 38 359 38 c 0
 494 38 575 127 597 192 c 1
 669 185 l 1
 642 106 537 -17 350 -17 c 0
 137 -17 66 122 66 279 c 0
 66 310 69 341 74 373 c 2
 79 407 l 2
EndSplineSet
EndChar

StartChar: ccircumflex
Encoding: 265 265 204
Width: 605
GlyphClass: 2
Flags: W
AnchorPoint: "LatinBelow.mark" 270 0 basechar 0
LayerCount: 2
Fore
SplineSet
202 709 m 1
 396 860 l 1
 416 860 l 1
 562 709 l 1
 535 685 l 1
 397 800 l 1
 221 685 l 1
 202 709 l 1
55 287 m 2
 60 313 l 1
 83 460 169 617 369 617 c 0
 516 617 567 520 567 457 c 1
 499 451 l 1
 498 500 458 567 361 567 c 0
 228 567 151 459 128 313 c 1
 123 287 l 2
 119 262 117 239 117 217 c 0
 117 108 165 33 276 33 c 0
 373 33 435 100 452 149 c 1
 518 143 l 1
 498 80 415 -17 268 -17 c 0
 102 -17 49 91 49 212 c 0
 49 237 51 262 55 287 c 2
EndSplineSet
EndChar

StartChar: Cdotaccent
Encoding: 266 266 205
Width: 755
GlyphClass: 2
Flags: W
AnchorPoint: "LatinBelow.mark" 350 0 basechar 0
LayerCount: 2
Fore
SplineSet
507 991 m 0
 540 991 564 972 564 941 c 0
 564 938 564 934 563 930 c 0
 557 893 525 869 488 869 c 0
 455 869 432 888 432 919 c 0
 432 923 432 926 433 930 c 0
 439 967 470 991 507 991 c 0
79 407 m 2
 109 599 224 797 479 797 c 0
 666 797 733 674 734 595 c 1
 660 588 l 1
 658 653 606 742 471 742 c 0
 287 742 183 597 153 407 c 2
 148 373 l 2
 143 341 140 312 140 283 c 0
 140 139 206 38 359 38 c 0
 494 38 575 127 597 192 c 1
 669 185 l 1
 642 106 537 -17 350 -17 c 0
 137 -17 66 122 66 279 c 0
 66 310 69 341 74 373 c 2
 79 407 l 2
EndSplineSet
EndChar

StartChar: cdotaccent
Encoding: 267 267 206
Width: 605
GlyphClass: 2
Flags: W
AnchorPoint: "LatinBelow.mark" 270 0 basechar 0
LayerCount: 2
Fore
SplineSet
403 841 m 0
 436 841 460 822 460 791 c 0
 460 788 460 784 459 780 c 0
 453 743 421 719 384 719 c 0
 351 719 328 738 328 769 c 0
 328 773 328 776 329 780 c 0
 335 817 366 841 403 841 c 0
55 287 m 2
 60 313 l 1
 83 460 169 617 369 617 c 0
 516 617 567 520 567 457 c 1
 499 451 l 1
 498 500 458 567 361 567 c 0
 228 567 151 459 128 313 c 1
 123 287 l 2
 119 262 117 239 117 217 c 0
 117 108 165 33 276 33 c 0
 373 33 435 100 452 149 c 1
 518 143 l 1
 498 80 415 -17 268 -17 c 0
 102 -17 49 91 49 212 c 0
 49 237 51 262 55 287 c 2
EndSplineSet
EndChar

StartChar: Ccaron
Encoding: 268 268 207
Width: 755
GlyphClass: 2
Flags: W
AnchorPoint: "LatinBelow.mark" 350 0 basechar 0
LayerCount: 2
Fore
SplineSet
688 996 m 1
 494 845 l 1
 474 845 l 1
 328 996 l 1
 355 1020 l 1
 494 905 l 1
 669 1020 l 1
 688 996 l 1
79 407 m 2
 109 599 224 797 479 797 c 0
 666 797 733 674 734 595 c 1
 660 588 l 1
 658 653 606 742 471 742 c 0
 287 742 183 597 153 407 c 2
 148 373 l 2
 143 341 140 312 140 283 c 0
 140 139 206 38 359 38 c 0
 494 38 575 127 597 192 c 1
 669 185 l 1
 642 106 537 -17 350 -17 c 0
 137 -17 66 122 66 279 c 0
 66 310 69 341 74 373 c 2
 79 407 l 2
EndSplineSet
EndChar

StartChar: ccaron
Encoding: 269 269 208
Width: 605
GlyphClass: 2
Flags: W
AnchorPoint: "LatinBelow.mark" 270 0 basechar 0
LayerCount: 2
Fore
SplineSet
584 846 m 1
 390 695 l 1
 370 695 l 1
 224 846 l 1
 251 870 l 1
 390 755 l 1
 565 870 l 1
 584 846 l 1
55 287 m 2
 60 313 l 1
 83 460 169 617 369 617 c 0
 516 617 567 520 567 457 c 1
 499 451 l 1
 498 500 458 567 361 567 c 0
 228 567 151 459 128 313 c 1
 123 287 l 2
 119 262 117 239 117 217 c 0
 117 108 165 33 276 33 c 0
 373 33 435 100 452 149 c 1
 518 143 l 1
 498 80 415 -17 268 -17 c 0
 102 -17 49 91 49 212 c 0
 49 237 51 262 55 287 c 2
EndSplineSet
EndChar

StartChar: Dcaron
Encoding: 270 270 209
Width: 770
GlyphClass: 2
Flags: W
AnchorPoint: "LatinBelow.mark" 260 0 basechar 0
LayerCount: 2
Fore
SplineSet
598 996 m 1
 404 845 l 1
 384 845 l 1
 238 996 l 1
 265 1020 l 1
 404 905 l 1
 579 1020 l 1
 598 996 l 1
123 48 m 1
 155 46 202 44 234 44 c 0
 484 44 594 188 623 372 c 2
 629 408 l 2
 633 435 635 460 635 485 c 0
 635 630 558 736 344 736 c 0
 312 736 263 734 231 732 c 1
 123 48 l 1
169 780 m 1
 169 780 278 789 352 789 c 0
 615 789 707 649 707 486 c 0
 707 460 704 434 700 408 c 2
 694 372 l 2
 663 179 531 -9 226 -9 c 0
 152 -9 45 0 45 0 c 1
 169 780 l 1
EndSplineSet
EndChar

StartChar: dcaron
Encoding: 271 271 210
Width: 890
GlyphClass: 2
Flags: W
AnchorPoint: "LatinBelow.mark" 300 0 basechar 0
AnchorPoint: "LatinAbove.mark" 494 180 basechar 0
LayerCount: 2
Fore
SplineSet
871 720 m 1
 860 712 845 708 830 708 c 0
 800 708 780 725 780 753 c 0
 780 756 781 760 781 763 c 0
 787 800 814 825 853 825 c 0
 903 825 918 791 918 754 c 0
 918 746 917 738 916 730 c 0
 902 640 828 582 776 560 c 1
 762 585 l 1
 803 603 858 652 871 720 c 1
55 287 m 2
 60 313 l 1
 83 458 170 612 355 612 c 0
 451 612 501 552 527 486 c 1
 578 810 l 1
 643 810 l 1
 536 132 l 2
 534 120 533 110 533 100 c 0
 533 58 552 38 595 33 c 1
 571 -12 l 1
 526 -7 475 15 475 89 c 0
 475 99 476 110 478 121 c 1
 474 120 l 1
 427 51 355 -12 256 -12 c 0
 102 -12 49 95 49 215 c 0
 49 239 51 263 55 287 c 2
511 385 m 1
 504 466 462 562 354 562 c 0
 226 562 150 459 127 313 c 1
 122 287 l 2
 118 262 116 239 116 217 c 0
 116 109 165 38 271 38 c 0
 379 38 451 134 484 215 c 1
 511 385 l 1
EndSplineSet
EndChar

StartChar: Dcroat
Encoding: 272 272 211
Width: 770
GlyphClass: 2
Flags: W
AnchorPoint: "LatinBelow.mark" 260 0 basechar 0
AnchorPoint: "LatinAbove.mark" 284 150 basechar 0
LayerCount: 2
Fore
SplineSet
13 369 m 1
 20 411 l 1
 110 411 l 1
 169 780 l 1
 169 780 278 789 352 789 c 0
 615 789 707 649 707 486 c 0
 707 460 704 434 700 408 c 2
 694 372 l 2
 663 179 531 -9 226 -9 c 0
 152 -9 45 0 45 0 c 1
 103 369 l 1
 13 369 l 1
123 48 m 1
 155 46 202 44 234 44 c 0
 484 44 594 188 623 372 c 2
 629 408 l 2
 633 435 635 460 635 485 c 0
 635 630 558 736 344 736 c 0
 312 736 263 734 231 732 c 1
 180 411 l 1
 400 411 l 1
 393 369 l 1
 173 369 l 1
 123 48 l 1
EndSplineSet
EndChar

StartChar: dcroat
Encoding: 273 273 212
Width: 680
GlyphClass: 2
Flags: W
AnchorPoint: "LatinBelow.mark" 300 0 basechar 0
AnchorPoint: "LatinAbove.mark" 494 180 basechar 0
LayerCount: 2
Fore
SplineSet
376 699 m 1
 382 741 l 1
 567 741 l 1
 578 810 l 1
 643 810 l 1
 632 741 l 1
 702 741 l 1
 696 699 l 1
 626 699 l 1
 536 132 l 2
 534 120 533 110 533 100 c 0
 533 58 552 38 595 33 c 1
 571 -12 l 1
 526 -7 475 15 475 89 c 0
 475 99 476 110 478 121 c 1
 474 120 l 1
 427 51 355 -12 256 -12 c 0
 102 -12 49 95 49 215 c 0
 49 239 51 263 55 287 c 2
 60 313 l 1
 83 458 170 612 355 612 c 0
 451 612 501 552 527 486 c 1
 561 699 l 1
 376 699 l 1
511 385 m 1
 504 466 462 562 354 562 c 0
 226 562 150 459 127 313 c 1
 122 287 l 2
 118 262 116 239 116 217 c 0
 116 109 165 38 271 38 c 0
 379 38 451 134 484 215 c 1
 511 385 l 1
EndSplineSet
EndChar

StartChar: Emacron
Encoding: 274 274 213
Width: 675
GlyphClass: 2
Flags: W
AnchorPoint: "LatinBelow.mark" 290 0 basechar 0
AnchorPoint: "LatinAbove.mark" 342 330 basechar 0
LayerCount: 2
Fore
SplineSet
254 907 m 1
 261 953 l 1
 621 953 l 1
 614 907 l 1
 254 907 l 1
45 0 m 1
 169 780 l 1
 654 780 l 1
 645 725 l 1
 231 725 l 1
 181 411 l 1
 563 411 l 1
 555 359 l 1
 173 359 l 1
 125 55 l 1
 554 55 l 1
 545 0 l 1
 45 0 l 1
EndSplineSet
EndChar

StartChar: emacron
Encoding: 275 275 214
Width: 640
GlyphClass: 2
Flags: W
AnchorPoint: "LatinBelow.mark" 270 0 basechar 0
AnchorPoint: "LatinAbove.mark" 299 180 basechar 0
LayerCount: 2
Fore
SplineSet
210 757 m 1
 217 803 l 1
 577 803 l 1
 570 757 l 1
 210 757 l 1
55 286 m 2
 60 314 l 2
 83 460 170 617 365 617 c 0
 504 617 572 528 572 414 c 0
 572 398 571 381 568 364 c 0
 564 341 558 316 549 293 c 1
 121 293 l 1
 120 286 l 2
 116 261 114 237 114 214 c 0
 114 106 161 32 272 32 c 0
 372 32 432 99 449 148 c 1
 513 142 l 1
 492 78 409 -17 264 -17 c 0
 101 -17 49 91 49 211 c 0
 49 236 51 261 55 286 c 2
129 337 m 1
 499 337 l 1
 501 346 504 355 505 364 c 0
 508 381 509 396 509 411 c 0
 509 511 452 569 357 569 c 0
 231 569 156 470 129 337 c 1
EndSplineSet
EndChar

StartChar: Ebreve
Encoding: 276 276 215
Width: 675
GlyphClass: 2
Flags: W
AnchorPoint: "LatinBelow.mark" 290 0 basechar 0
AnchorPoint: "LatinAbove.mark" 342 330 basechar 0
LayerCount: 2
Fore
SplineSet
267 989 m 1
 313 1005 l 1
 318 953 341 895 432 895 c 0
 523 895 564 953 585 1005 c 1
 627 989 l 1
 598 920 538 850 425 850 c 0
 312 850 274 920 267 989 c 1
45 0 m 1
 169 780 l 1
 654 780 l 1
 645 725 l 1
 231 725 l 1
 181 411 l 1
 563 411 l 1
 555 359 l 1
 173 359 l 1
 125 55 l 1
 554 55 l 1
 545 0 l 1
 45 0 l 1
EndSplineSet
EndChar

StartChar: ebreve
Encoding: 277 277 216
Width: 640
GlyphClass: 2
Flags: W
AnchorPoint: "LatinBelow.mark" 270 0 basechar 0
AnchorPoint: "LatinAbove.mark" 299 180 basechar 0
LayerCount: 2
Fore
SplineSet
223 839 m 1
 269 855 l 1
 274 803 297 745 388 745 c 0
 479 745 520 803 541 855 c 1
 583 839 l 1
 554 770 494 700 381 700 c 0
 268 700 230 770 223 839 c 1
55 286 m 2
 60 314 l 2
 83 460 170 617 365 617 c 0
 504 617 572 528 572 414 c 0
 572 398 571 381 568 364 c 0
 564 341 558 316 549 293 c 1
 121 293 l 1
 120 286 l 2
 116 261 114 237 114 214 c 0
 114 106 161 32 272 32 c 0
 372 32 432 99 449 148 c 1
 513 142 l 1
 492 78 409 -17 264 -17 c 0
 101 -17 49 91 49 211 c 0
 49 236 51 261 55 286 c 2
129 337 m 1
 499 337 l 1
 501 346 504 355 505 364 c 0
 508 381 509 396 509 411 c 0
 509 511 452 569 357 569 c 0
 231 569 156 470 129 337 c 1
EndSplineSet
EndChar

StartChar: Edotaccent
Encoding: 278 278 217
Width: 675
GlyphClass: 2
Flags: W
AnchorPoint: "LatinBelow.mark" 290 0 basechar 0
AnchorPoint: "LatinAbove.mark" 342 330 basechar 0
LayerCount: 2
Fore
SplineSet
447 991 m 0
 480 991 504 972 504 941 c 0
 504 938 504 934 503 930 c 0
 497 893 465 869 428 869 c 0
 395 869 372 888 372 919 c 0
 372 923 372 926 373 930 c 0
 379 967 410 991 447 991 c 0
45 0 m 1
 169 780 l 1
 654 780 l 1
 645 725 l 1
 231 725 l 1
 181 411 l 1
 563 411 l 1
 555 359 l 1
 173 359 l 1
 125 55 l 1
 554 55 l 1
 545 0 l 1
 45 0 l 1
EndSplineSet
EndChar

StartChar: edotaccent
Encoding: 279 279 218
Width: 640
GlyphClass: 2
Flags: W
AnchorPoint: "LatinBelow.mark" 270 0 basechar 0
AnchorPoint: "LatinAbove.mark" 299 180 basechar 0
LayerCount: 2
Fore
SplineSet
403 841 m 0
 436 841 460 822 460 791 c 0
 460 788 460 784 459 780 c 0
 453 743 421 719 384 719 c 0
 351 719 328 738 328 769 c 0
 328 773 328 776 329 780 c 0
 335 817 366 841 403 841 c 0
55 286 m 2
 60 314 l 2
 83 460 170 617 365 617 c 0
 504 617 572 528 572 414 c 0
 572 398 571 381 568 364 c 0
 564 341 558 316 549 293 c 1
 121 293 l 1
 120 286 l 2
 116 261 114 237 114 214 c 0
 114 106 161 32 272 32 c 0
 372 32 432 99 449 148 c 1
 513 142 l 1
 492 78 409 -17 264 -17 c 0
 101 -17 49 91 49 211 c 0
 49 236 51 261 55 286 c 2
129 337 m 1
 499 337 l 1
 501 346 504 355 505 364 c 0
 508 381 509 396 509 411 c 0
 509 511 452 569 357 569 c 0
 231 569 156 470 129 337 c 1
EndSplineSet
EndChar

StartChar: Eogonek
Encoding: 280 280 219
Width: 675
GlyphClass: 2
Flags: W
AnchorPoint: "LatinAbove.mark" 314 150 basechar 0
LayerCount: 2
Fore
SplineSet
45 0 m 1
 169 780 l 1
 654 780 l 1
 645 725 l 1
 231 725 l 1
 181 411 l 1
 563 411 l 1
 555 359 l 1
 173 359 l 1
 125 55 l 1
 554 55 l 1
 545 0 l 1
 510 0 l 1
 475 -35 446 -76 436 -138 c 0
 435 -145 434 -151 434 -157 c 0
 434 -194 456 -212 489 -212 c 0
 518 -212 542 -204 557 -196 c 1
 564 -231 l 1
 538 -244 511 -250 476 -250 c 0
 416 -250 386 -216 386 -166 c 0
 386 -159 387 -151 388 -143 c 0
 398 -80 430 -36 466 0 c 1
 45 0 l 1
EndSplineSet
EndChar

StartChar: eogonek
Encoding: 281 281 220
Width: 640
GlyphClass: 2
Flags: W
AnchorPoint: "LatinAbove.mark" 270 0 basechar 0
LayerCount: 2
Fore
SplineSet
129 337 m 1
 499 337 l 1
 501 346 504 355 505 364 c 0
 508 381 509 396 509 411 c 0
 509 511 452 569 357 569 c 0
 231 569 156 470 129 337 c 1
55 286 m 2
 60 314 l 2
 83 460 170 617 365 617 c 0
 504 617 572 528 572 414 c 0
 572 398 571 381 568 364 c 0
 564 341 558 316 549 293 c 1
 121 293 l 1
 120 286 l 2
 116 261 114 237 114 214 c 0
 114 106 161 32 272 32 c 0
 372 32 432 99 449 148 c 1
 513 142 l 1
 498 98 455 39 383 7 c 1
 345 -29 311 -72 301 -138 c 0
 300 -145 299 -151 299 -157 c 0
 299 -194 321 -212 354 -212 c 0
 383 -212 407 -204 422 -196 c 1
 429 -231 l 1
 403 -244 376 -250 341 -250 c 0
 281 -250 251 -216 251 -166 c 0
 251 -159 252 -151 253 -143 c 0
 262 -87 289 -45 320 -12 c 1
 303 -15 284 -17 264 -17 c 0
 101 -17 49 91 49 211 c 0
 49 236 51 261 55 286 c 2
EndSplineSet
EndChar

StartChar: Ecaron
Encoding: 282 282 221
Width: 675
GlyphClass: 2
Flags: W
AnchorPoint: "LatinBelow.mark" 290 0 basechar 0
AnchorPoint: "LatinAbove.mark" 342 330 basechar 0
LayerCount: 2
Fore
SplineSet
628 996 m 1
 434 845 l 1
 414 845 l 1
 268 996 l 1
 295 1020 l 1
 434 905 l 1
 609 1020 l 1
 628 996 l 1
45 0 m 1
 169 780 l 1
 654 780 l 1
 645 725 l 1
 231 725 l 1
 181 411 l 1
 563 411 l 1
 555 359 l 1
 173 359 l 1
 125 55 l 1
 554 55 l 1
 545 0 l 1
 45 0 l 1
EndSplineSet
EndChar

StartChar: ecaron
Encoding: 283 283 222
Width: 640
GlyphClass: 2
Flags: W
AnchorPoint: "LatinBelow.mark" 270 0 basechar 0
AnchorPoint: "LatinAbove.mark" 299 180 basechar 0
LayerCount: 2
Fore
SplineSet
584 846 m 1
 390 695 l 1
 370 695 l 1
 224 846 l 1
 251 870 l 1
 390 755 l 1
 565 870 l 1
 584 846 l 1
55 286 m 2
 60 314 l 2
 83 460 170 617 365 617 c 0
 504 617 572 528 572 414 c 0
 572 398 571 381 568 364 c 0
 564 341 558 316 549 293 c 1
 121 293 l 1
 120 286 l 2
 116 261 114 237 114 214 c 0
 114 106 161 32 272 32 c 0
 372 32 432 99 449 148 c 1
 513 142 l 1
 492 78 409 -17 264 -17 c 0
 101 -17 49 91 49 211 c 0
 49 236 51 261 55 286 c 2
129 337 m 1
 499 337 l 1
 501 346 504 355 505 364 c 0
 508 381 509 396 509 411 c 0
 509 511 452 569 357 569 c 0
 231 569 156 470 129 337 c 1
EndSplineSet
EndChar

StartChar: Gcircumflex
Encoding: 284 284 223
Width: 770
GlyphClass: 2
Flags: W
AnchorPoint: "LatinBelow.mark" 350 0 basechar 0
LayerCount: 2
Fore
SplineSet
306 859 m 1
 500 1010 l 1
 520 1010 l 1
 666 859 l 1
 639 835 l 1
 501 950 l 1
 325 835 l 1
 306 859 l 1
415 320 m 1
 423 371 l 1
 694 371 l 1
 657 139 l 1
 621 76 521 -17 350 -17 c 0
 137 -17 66 122 66 279 c 0
 66 310 69 341 74 373 c 2
 79 407 l 2
 109 599 224 797 479 797 c 0
 666 797 733 674 734 595 c 1
 661 588 l 1
 659 653 606 743 471 743 c 0
 285 743 182 599 152 407 c 2
 147 373 l 2
 142 341 139 310 139 281 c 0
 139 137 204 37 359 37 c 0
 487 37 557 93 593 143 c 1
 621 320 l 1
 415 320 l 1
EndSplineSet
EndChar

StartChar: gcircumflex
Encoding: 285 285 224
Width: 670
GlyphClass: 2
Flags: W
AnchorPoint: "LatinBelow.mark" 271 -180 basechar 0
LayerCount: 2
Fore
SplineSet
232 709 m 1
 426 860 l 1
 446 860 l 1
 592 709 l 1
 565 685 l 1
 427 800 l 1
 251 685 l 1
 232 709 l 1
60 315 m 0
 82 455 170 612 355 612 c 0
 453 612 503 548 528 479 c 1
 553 600 l 1
 610 600 l 1
 509 -36 l 2
 491 -149 390 -227 253 -227 c 0
 117 -227 54 -159 47 -112 c 1
 112 -95 l 1
 117 -127 160 -179 261 -179 c 0
 358 -179 431 -129 446 -36 c 2
 476 151 l 1
 430 82 359 18 261 18 c 0
 106 18 54 128 54 246 c 0
 54 269 56 292 60 315 c 0
510 381 m 1
 503 463 462 562 354 562 c 0
 226 562 149 456 127 315 c 0
 123 292 122 269 122 248 c 0
 122 142 169 68 276 68 c 0
 384 68 456 167 489 249 c 1
 510 381 l 1
EndSplineSet
MultipleSubs2: "Latin.g.decomp subtable" g.alt uni0302
EndChar

StartChar: Gbreve
Encoding: 286 286 225
Width: 770
GlyphClass: 2
Flags: W
AnchorPoint: "LatinBelow.mark" 350 0 basechar 0
LayerCount: 2
Fore
SplineSet
327 989 m 1
 373 1005 l 1
 378 953 401 895 492 895 c 0
 583 895 624 953 645 1005 c 1
 687 989 l 1
 658 920 598 850 485 850 c 0
 372 850 334 920 327 989 c 1
415 320 m 1
 423 371 l 1
 694 371 l 1
 657 139 l 1
 621 76 521 -17 350 -17 c 0
 137 -17 66 122 66 279 c 0
 66 310 69 341 74 373 c 2
 79 407 l 2
 109 599 224 797 479 797 c 0
 666 797 733 674 734 595 c 1
 661 588 l 1
 659 653 606 743 471 743 c 0
 285 743 182 599 152 407 c 2
 147 373 l 2
 142 341 139 310 139 281 c 0
 139 137 204 37 359 37 c 0
 487 37 557 93 593 143 c 1
 621 320 l 1
 415 320 l 1
EndSplineSet
EndChar

StartChar: gbreve
Encoding: 287 287 226
Width: 670
GlyphClass: 2
Flags: W
AnchorPoint: "LatinBelow.mark" 271 -180 basechar 0
LayerCount: 2
Fore
SplineSet
253 839 m 1
 299 855 l 1
 304 803 327 745 418 745 c 0
 509 745 550 803 571 855 c 1
 613 839 l 1
 584 770 524 700 411 700 c 0
 298 700 260 770 253 839 c 1
60 315 m 0
 82 455 170 612 355 612 c 0
 453 612 503 548 528 479 c 1
 553 600 l 1
 610 600 l 1
 509 -36 l 2
 491 -149 390 -227 253 -227 c 0
 117 -227 54 -159 47 -112 c 1
 112 -95 l 1
 117 -127 160 -179 261 -179 c 0
 358 -179 431 -129 446 -36 c 2
 476 151 l 1
 430 82 359 18 261 18 c 0
 106 18 54 128 54 246 c 0
 54 269 56 292 60 315 c 0
510 381 m 1
 503 463 462 562 354 562 c 0
 226 562 149 456 127 315 c 0
 123 292 122 269 122 248 c 0
 122 142 169 68 276 68 c 0
 384 68 456 167 489 249 c 1
 510 381 l 1
EndSplineSet
MultipleSubs2: "Latin.g.decomp subtable" g.alt uni0306
EndChar

StartChar: Gdotaccent
Encoding: 288 288 227
Width: 770
GlyphClass: 2
Flags: W
AnchorPoint: "LatinBelow.mark" 350 0 basechar 0
LayerCount: 2
Fore
SplineSet
507 991 m 0
 540 991 564 972 564 941 c 0
 564 938 564 934 563 930 c 0
 557 893 525 869 488 869 c 0
 455 869 432 888 432 919 c 0
 432 923 432 926 433 930 c 0
 439 967 470 991 507 991 c 0
415 320 m 1
 423 371 l 1
 694 371 l 1
 657 139 l 1
 621 76 521 -17 350 -17 c 0
 137 -17 66 122 66 279 c 0
 66 310 69 341 74 373 c 2
 79 407 l 2
 109 599 224 797 479 797 c 0
 666 797 733 674 734 595 c 1
 661 588 l 1
 659 653 606 743 471 743 c 0
 285 743 182 599 152 407 c 2
 147 373 l 2
 142 341 139 310 139 281 c 0
 139 137 204 37 359 37 c 0
 487 37 557 93 593 143 c 1
 621 320 l 1
 415 320 l 1
EndSplineSet
EndChar

StartChar: gdotaccent
Encoding: 289 289 228
Width: 670
GlyphClass: 2
Flags: W
AnchorPoint: "LatinBelow.mark" 271 -180 basechar 0
LayerCount: 2
Fore
SplineSet
433 841 m 0
 466 841 490 822 490 791 c 0
 490 788 490 784 489 780 c 0
 483 743 451 719 414 719 c 0
 381 719 358 738 358 769 c 0
 358 773 358 776 359 780 c 0
 365 817 396 841 433 841 c 0
60 315 m 0
 82 455 170 612 355 612 c 0
 453 612 503 548 528 479 c 1
 553 600 l 1
 610 600 l 1
 509 -36 l 2
 491 -149 390 -227 253 -227 c 0
 117 -227 54 -159 47 -112 c 1
 112 -95 l 1
 117 -127 160 -179 261 -179 c 0
 358 -179 431 -129 446 -36 c 2
 476 151 l 1
 430 82 359 18 261 18 c 0
 106 18 54 128 54 246 c 0
 54 269 56 292 60 315 c 0
510 381 m 1
 503 463 462 562 354 562 c 0
 226 562 149 456 127 315 c 0
 123 292 122 269 122 248 c 0
 122 142 169 68 276 68 c 0
 384 68 456 167 489 249 c 1
 510 381 l 1
EndSplineSet
MultipleSubs2: "Latin.g.decomp subtable" g.alt uni0307
EndChar

StartChar: uni0122
Encoding: 290 290 229
Width: 770
GlyphClass: 2
Flags: W
AnchorPoint: "LatinAbove.mark" 374 150 basechar 0
LayerCount: 2
Fore
SplineSet
343 -180 m 1
 332 -188 318 -192 303 -192 c 0
 273 -192 252 -174 252 -146 c 0
 252 -143 253 -140 253 -137 c 0
 259 -100 286 -75 325 -75 c 0
 375 -75 390 -109 390 -146 c 0
 390 -154 389 -162 388 -170 c 0
 374 -260 300 -318 248 -340 c 1
 234 -315 l 1
 275 -297 330 -248 343 -180 c 1
415 320 m 1
 423 371 l 1
 694 371 l 1
 657 139 l 1
 621 76 521 -17 350 -17 c 0
 137 -17 66 122 66 279 c 0
 66 310 69 341 74 373 c 2
 79 407 l 2
 109 599 224 797 479 797 c 0
 666 797 733 674 734 595 c 1
 661 588 l 1
 659 653 606 743 471 743 c 0
 285 743 182 599 152 407 c 2
 147 373 l 2
 142 341 139 310 139 281 c 0
 139 137 204 37 359 37 c 0
 487 37 557 93 593 143 c 1
 621 320 l 1
 415 320 l 1
EndSplineSet
EndChar

StartChar: uni0123
Encoding: 291 291 230
Width: 670
GlyphClass: 2
Flags: W
AnchorPoint: "LatinBelow.mark" 271 -180 basechar 0
LayerCount: 2
Fore
SplineSet
406 810 m 1
 417 818 432 822 447 822 c 0
 477 822 497 805 497 777 c 0
 497 774 496 770 496 767 c 0
 490 730 464 705 425 705 c 0
 375 705 360 739 360 776 c 0
 360 784 361 792 362 800 c 0
 376 890 450 948 502 970 c 1
 516 945 l 1
 475 927 419 878 406 810 c 1
60 315 m 0
 82 455 170 612 355 612 c 0
 453 612 503 548 528 479 c 1
 553 600 l 1
 610 600 l 1
 509 -36 l 2
 491 -149 390 -227 253 -227 c 0
 117 -227 54 -159 47 -112 c 1
 112 -95 l 1
 117 -127 160 -179 261 -179 c 0
 358 -179 431 -129 446 -36 c 2
 476 151 l 1
 430 82 359 18 261 18 c 0
 106 18 54 128 54 246 c 0
 54 269 56 292 60 315 c 0
510 381 m 1
 503 463 462 562 354 562 c 0
 226 562 149 456 127 315 c 0
 123 292 122 269 122 248 c 0
 122 142 169 68 276 68 c 0
 384 68 456 167 489 249 c 1
 510 381 l 1
EndSplineSet
MultipleSubs2: "Latin.g.decomp subtable" g.alt uni0312
EndChar

StartChar: Hcircumflex
Encoding: 292 292 231
Width: 790
GlyphClass: 2
Flags: W
AnchorPoint: "LatinBelow.mark" 335 0 basechar 0
LayerCount: 2
Fore
SplineSet
291 859 m 1
 485 1010 l 1
 505 1010 l 1
 651 859 l 1
 624 835 l 1
 486 950 l 1
 310 835 l 1
 291 859 l 1
45 0 m 1
 169 780 l 1
 240 780 l 1
 182 418 l 1
 620 418 l 1
 678 780 l 1
 749 780 l 1
 625 0 l 1
 554 0 l 1
 611 362 l 1
 173 362 l 1
 116 0 l 1
 45 0 l 1
EndSplineSet
EndChar

StartChar: hcircumflex
Encoding: 293 293 232
Width: 665
GlyphClass: 2
Flags: W
AnchorPoint: "LatinBelow.mark" 300 0 basechar 0
LayerCount: 2
Fore
SplineSet
36 889 m 1
 230 1040 l 1
 250 1040 l 1
 396 889 l 1
 369 865 l 1
 231 980 l 1
 55 865 l 1
 36 889 l 1
40 0 m 1
 168 810 l 1
 233 810 l 1
 171 414 l 1
 227 512 320 612 445 612 c 0
 545 612 590 551 590 467 c 0
 590 454 589 440 587 426 c 2
 520 0 l 1
 453 0 l 1
 520 424 l 2
 522 437 523 448 523 459 c 0
 523 527 483 558 421 558 c 0
 299 558 191 418 155 305 c 1
 107 0 l 1
 40 0 l 1
EndSplineSet
EndChar

StartChar: Hbar
Encoding: 294 294 233
Width: 790
GlyphClass: 2
Flags: W
AnchorPoint: "LatinBelow.mark" 335 0 basechar 0
AnchorPoint: "LatinAbove.mark" 359 150 basechar 0
LayerCount: 2
Fore
SplineSet
76 639 m 1
 83 681 l 1
 153 681 l 1
 169 780 l 1
 240 780 l 1
 224 681 l 1
 662 681 l 1
 678 780 l 1
 749 780 l 1
 733 681 l 1
 803 681 l 1
 796 639 l 1
 726 639 l 1
 625 0 l 1
 554 0 l 1
 611 362 l 1
 173 362 l 1
 116 0 l 1
 45 0 l 1
 146 639 l 1
 76 639 l 1
655 639 m 1
 217 639 l 1
 182 418 l 1
 620 418 l 1
 655 639 l 1
EndSplineSet
EndChar

StartChar: hbar
Encoding: 295 295 234
Width: 665
GlyphClass: 2
Flags: W
AnchorPoint: "LatinBelow.mark" 300 0 basechar 0
LayerCount: 2
Fore
SplineSet
81 699 m 1
 87 741 l 1
 157 741 l 1
 168 810 l 1
 233 810 l 1
 222 741 l 1
 407 741 l 1
 401 699 l 1
 216 699 l 1
 171 414 l 1
 227 512 320 612 445 612 c 0
 545 612 590 551 590 467 c 0
 590 454 589 440 587 426 c 2
 520 0 l 1
 453 0 l 1
 520 424 l 2
 522 437 523 448 523 459 c 0
 523 527 483 558 421 558 c 0
 299 558 191 418 155 305 c 1
 107 0 l 1
 40 0 l 1
 151 699 l 1
 81 699 l 1
EndSplineSet
EndChar

StartChar: Itilde
Encoding: 296 296 235
Width: 320
GlyphClass: 2
Flags: W
AnchorPoint: "LatinBelow.mark" 100 0 basechar 0
AnchorPoint: "LatinAbove.mark" 152 330 basechar 0
LayerCount: 2
Fore
SplineSet
61 887 m 1
 85 933 122 1005 182 1005 c 0
 228 1005 251 974 269 951 c 0
 288 929 300 905 322 905 c 0
 356 905 387 970 401 997 c 1
 436 983 l 1
 413 936 373 865 314 865 c 0
 268 865 246 896 228 919 c 0
 209 941 197 965 175 965 c 0
 140 965 111 901 96 873 c 1
 61 887 l 1
65 0 m 1
 189 780 l 1
 259 780 l 1
 135 0 l 1
 65 0 l 1
EndSplineSet
EndChar

StartChar: itilde
Encoding: 297 297 236
Width: 300
GlyphClass: 2
Flags: W
AnchorPoint: "LatinBelow.mark" 90 0 basechar 0
AnchorPoint: "LatinAbove.mark" 119 180 basechar 0
LayerCount: 2
Fore
SplineSet
27 737 m 1
 51 783 88 855 148 855 c 0
 194 855 217 824 235 801 c 0
 254 779 266 755 288 755 c 0
 322 755 353 820 367 847 c 1
 402 833 l 1
 379 786 339 715 280 715 c 0
 234 715 212 746 194 769 c 0
 175 791 163 815 141 815 c 0
 106 815 77 751 62 723 c 1
 27 737 l 1
56 0 m 1
 151 600 l 1
 219 600 l 1
 124 0 l 1
 56 0 l 1
EndSplineSet
EndChar

StartChar: Imacron
Encoding: 298 298 237
Width: 320
GlyphClass: 2
Flags: W
AnchorPoint: "LatinBelow.mark" 100 0 basechar 0
AnchorPoint: "LatinAbove.mark" 152 330 basechar 0
LayerCount: 2
Fore
SplineSet
64 907 m 1
 71 953 l 1
 431 953 l 1
 424 907 l 1
 64 907 l 1
65 0 m 1
 189 780 l 1
 259 780 l 1
 135 0 l 1
 65 0 l 1
EndSplineSet
EndChar

StartChar: imacron
Encoding: 299 299 238
Width: 300
GlyphClass: 2
Flags: W
AnchorPoint: "LatinBelow.mark" 90 0 basechar 0
AnchorPoint: "LatinAbove.mark" 119 180 basechar 0
LayerCount: 2
Fore
SplineSet
30 757 m 1
 37 803 l 1
 397 803 l 1
 390 757 l 1
 30 757 l 1
56 0 m 1
 151 600 l 1
 219 600 l 1
 124 0 l 1
 56 0 l 1
EndSplineSet
EndChar

StartChar: Ibreve
Encoding: 300 300 239
Width: 320
GlyphClass: 2
Flags: W
LayerCount: 2
Fore
SplineSet
77 989 m 1
 123 1005 l 1
 128 953 151 895 242 895 c 0
 333 895 374 953 395 1005 c 1
 437 989 l 1
 408 920 348 850 235 850 c 0
 122 850 84 920 77 989 c 1
65 0 m 1
 189 780 l 1
 259 780 l 1
 135 0 l 1
 65 0 l 1
EndSplineSet
EndChar

StartChar: ibreve
Encoding: 301 301 240
Width: 300
GlyphClass: 2
Flags: W
LayerCount: 2
Fore
SplineSet
43 839 m 1
 89 855 l 1
 94 803 117 745 208 745 c 0
 299 745 340 803 361 855 c 1
 403 839 l 1
 374 770 314 700 201 700 c 0
 88 700 50 770 43 839 c 1
56 0 m 1
 151 600 l 1
 219 600 l 1
 124 0 l 1
 56 0 l 1
EndSplineSet
EndChar

StartChar: Iogonek
Encoding: 302 302 241
Width: 320
GlyphClass: 2
Flags: W
AnchorPoint: "LatinAbove.mark" 124 150 basechar 0
LayerCount: 2
Fore
SplineSet
65 0 m 1
 189 780 l 1
 259 780 l 1
 135 0 l 1
 130 0 l 1
 95 -35 66 -76 56 -138 c 0
 55 -145 54 -151 54 -157 c 0
 54 -194 76 -212 109 -212 c 0
 138 -212 162 -204 177 -196 c 1
 184 -231 l 1
 158 -244 131 -250 96 -250 c 0
 36 -250 6 -216 6 -166 c 0
 6 -159 7 -151 8 -143 c 0
 18 -80 50 -36 86 0 c 1
 65 0 l 1
EndSplineSet
EndChar

StartChar: iogonek
Encoding: 303 303 242
Width: 300
GlyphClass: 2
Flags: W
AnchorPoint: "LatinAbove.mark" 119 180 basechar 0
LayerCount: 2
Fore
SplineSet
223 841 m 0
 256 841 280 822 280 791 c 0
 280 788 280 784 279 780 c 0
 273 743 241 719 204 719 c 0
 171 719 148 738 148 769 c 0
 148 773 148 776 149 780 c 0
 155 817 186 841 223 841 c 0
56 0 m 1
 151 600 l 1
 219 600 l 1
 124 0 l 1
 120 0 l 1
 85 -35 56 -76 46 -138 c 0
 45 -145 44 -151 44 -157 c 0
 44 -194 66 -212 99 -212 c 0
 128 -212 152 -204 167 -196 c 1
 174 -231 l 1
 148 -244 121 -250 86 -250 c 0
 26 -250 -4 -216 -4 -166 c 0
 -4 -159 -3 -151 -2 -143 c 0
 8 -80 40 -36 76 0 c 1
 56 0 l 1
EndSplineSet
EndChar

StartChar: Idotaccent
Encoding: 304 304 243
Width: 320
GlyphClass: 2
Flags: W
AnchorPoint: "LatinBelow.mark" 100 0 basechar 0
AnchorPoint: "LatinAbove.mark" 152 330 basechar 0
LayerCount: 2
Fore
SplineSet
257 991 m 0
 290 991 314 972 314 941 c 0
 314 938 314 934 313 930 c 0
 307 893 275 869 238 869 c 0
 205 869 182 888 182 919 c 0
 182 923 182 926 183 930 c 0
 189 967 220 991 257 991 c 0
65 0 m 1
 189 780 l 1
 259 780 l 1
 135 0 l 1
 65 0 l 1
EndSplineSet
EndChar

StartChar: dotlessi
Encoding: 305 305 244
Width: 300
GlyphClass: 2
Flags: W
AnchorPoint: "LatinOgonek.mark" 95 0 basechar 0
AnchorPoint: "LatinBelow.mark" 90 0 basechar 0
AnchorPoint: "LatinAbove.mark" 90 0 basechar 0
LayerCount: 2
Fore
SplineSet
56 0 m 1
 151 600 l 1
 219 600 l 1
 124 0 l 1
 56 0 l 1
EndSplineSet
EndChar

StartChar: Jcircumflex
Encoding: 308 308 245
Width: 520
GlyphClass: 2
Flags: W
AnchorPoint: "LatinBelow.mark" 170 0 basechar 0
LayerCount: 2
Fore
SplineSet
256 859 m 1
 450 1010 l 1
 470 1010 l 1
 616 859 l 1
 589 835 l 1
 451 950 l 1
 275 835 l 1
 256 859 l 1
-4 132 m 1
 68 138 l 1
 68 76 103 36 171 36 c 0
 238 36 296 74 309 158 c 2
 408 780 l 1
 479 780 l 1
 380 158 l 2
 364 58 281 -17 162 -17 c 0
 45 -17 -4 56 -4 130 c 2
 -4 132 l 1
EndSplineSet
EndChar

StartChar: jcircumflex
Encoding: 309 309 246
Width: 310
GlyphClass: 2
Flags: W
AnchorPoint: "LatinBelow.mark" 61 -180 basechar 0
AnchorPoint: "LatinAbove.mark" 119 180 basechar 0
LayerCount: 2
Fore
SplineSet
32 709 m 1
 226 860 l 1
 246 860 l 1
 392 709 l 1
 365 685 l 1
 227 800 l 1
 51 685 l 1
 32 709 l 1
-83 -178 m 1
 -9 -151 50 -109 63 -24 c 2
 162 600 l 1
 228 600 l 1
 129 -27 l 2
 112 -132 26 -191 -69 -222 c 1
 -83 -178 l 1
EndSplineSet
EndChar

StartChar: uni0136
Encoding: 310 310 247
Width: 715
GlyphClass: 2
Flags: W
LayerCount: 2
Fore
SplineSet
293 -180 m 1
 282 -188 268 -192 253 -192 c 0
 223 -192 202 -174 202 -146 c 0
 202 -143 203 -140 203 -137 c 0
 209 -100 236 -75 275 -75 c 0
 325 -75 340 -109 340 -146 c 0
 340 -154 339 -162 338 -170 c 0
 324 -260 250 -318 198 -340 c 1
 184 -315 l 1
 225 -297 280 -248 293 -180 c 1
45 0 m 1
 169 780 l 1
 237 780 l 1
 168 350 l 1
 628 780 l 1
 705 774 l 1
 704 770 l 1
 355 454 l 1
 636 4 l 1
 635 0 l 1
 551 0 l 1
 302 407 l 1
 156 274 l 1
 113 0 l 1
 45 0 l 1
EndSplineSet
EndChar

StartChar: uni0137
Encoding: 311 311 248
Width: 605
GlyphClass: 2
Flags: W
AnchorPoint: "LatinAbove.mark" 104 180 basechar 0
LayerCount: 2
Fore
SplineSet
293 -180 m 1
 282 -188 268 -192 253 -192 c 0
 223 -192 202 -174 202 -146 c 0
 202 -143 203 -140 203 -137 c 0
 209 -100 236 -75 275 -75 c 0
 325 -75 340 -109 340 -146 c 0
 340 -154 339 -162 338 -170 c 0
 324 -260 250 -318 198 -340 c 1
 184 -315 l 1
 225 -297 280 -248 293 -180 c 1
50 0 m 1
 178 810 l 1
 242 810 l 1
 158 280 l 1
 508 600 l 1
 579 595 l 1
 579 592 l 1
 303 347 l 1
 525 3 l 1
 525 0 l 1
 448 0 l 1
 254 304 l 1
 147 208 l 1
 114 0 l 1
 50 0 l 1
EndSplineSet
EndChar

StartChar: kgreenlandic
Encoding: 312 312 249
Width: 610
GlyphClass: 2
Flags: W
AnchorPoint: "LatinBelow.mark" 300 0 basechar 0
AnchorPoint: "LatinAbove.mark" 270 0 basechar 0
LayerCount: 2
Fore
SplineSet
50 0 m 1
 145 600 l 1
 209 600 l 1
 158 280 l 1
 508 600 l 1
 579 595 l 1
 579 592 l 1
 303 347 l 1
 525 3 l 1
 525 0 l 1
 448 0 l 1
 254 304 l 1
 147 208 l 1
 114 0 l 1
 50 0 l 1
EndSplineSet
EndChar

StartChar: Lacute
Encoding: 313 313 250
Width: 570
GlyphClass: 2
Flags: W
AnchorPoint: "LatinBelow.mark" 260 0 basechar 0
LayerCount: 2
Fore
SplineSet
404 1002 m 1
 156 850 l 1
 139 879 l 1
 380 1050 l 1
 404 1002 l 1
45 0 m 1
 169 780 l 1
 240 780 l 1
 125 55 l 1
 479 55 l 1
 470 0 l 1
 45 0 l 1
EndSplineSet
EndChar

StartChar: lacute
Encoding: 314 314 251
Width: 315
GlyphClass: 2
Flags: W
AnchorPoint: "LatinBelow.mark" 130 0 basechar 0
LayerCount: 2
Fore
SplineSet
389 1032 m 1
 141 880 l 1
 124 909 l 1
 365 1080 l 1
 389 1032 l 1
69 117 m 2
 178 810 l 1
 245 810 l 1
 136 122 l 2
 135 116 135 110 135 105 c 0
 135 54 177 39 240 34 c 1
 219 -12 l 1
 150 -6 67 13 67 95 c 0
 67 102 68 109 69 117 c 2
EndSplineSet
EndChar

StartChar: uni013B
Encoding: 315 315 252
Width: 570
GlyphClass: 2
Flags: W
AnchorPoint: "LatinAbove.mark" 124 150 basechar 0
LayerCount: 2
Fore
SplineSet
253 -180 m 1
 242 -188 228 -192 213 -192 c 0
 183 -192 162 -174 162 -146 c 0
 162 -143 163 -140 163 -137 c 0
 169 -100 196 -75 235 -75 c 0
 285 -75 300 -109 300 -146 c 0
 300 -154 299 -162 298 -170 c 0
 284 -260 210 -318 158 -340 c 1
 144 -315 l 1
 185 -297 240 -248 253 -180 c 1
45 0 m 1
 169 780 l 1
 240 780 l 1
 125 55 l 1
 479 55 l 1
 470 0 l 1
 45 0 l 1
EndSplineSet
EndChar

StartChar: uni013C
Encoding: 316 316 253
Width: 315
GlyphClass: 2
Flags: W
AnchorPoint: "LatinAbove.mark" 109 180 basechar 0
LayerCount: 2
Fore
SplineSet
123 -180 m 1
 112 -188 98 -192 83 -192 c 0
 53 -192 32 -174 32 -146 c 0
 32 -143 33 -140 33 -137 c 0
 39 -100 66 -75 105 -75 c 0
 155 -75 170 -109 170 -146 c 0
 170 -154 169 -162 168 -170 c 0
 154 -260 80 -318 28 -340 c 1
 14 -315 l 1
 55 -297 110 -248 123 -180 c 1
69 117 m 2
 178 810 l 1
 245 810 l 1
 136 122 l 2
 135 116 135 110 135 105 c 0
 135 54 177 39 240 34 c 1
 219 -12 l 1
 150 -6 67 13 67 95 c 0
 67 102 68 109 69 117 c 2
EndSplineSet
EndChar

StartChar: Lcaron
Encoding: 317 317 254
Width: 570
GlyphClass: 2
Flags: W
LayerCount: 2
Fore
SplineSet
45 0 m 1
 169 780 l 1
 240 780 l 1
 125 55 l 1
 479 55 l 1
 470 0 l 1
 45 0 l 1
521 720 m 1
 510 712 495 708 480 708 c 0
 450 708 430 725 430 753 c 0
 430 756 431 760 431 763 c 0
 437 800 464 825 503 825 c 0
 553 825 568 791 568 754 c 0
 568 746 567 738 566 730 c 0
 552 640 478 582 426 560 c 1
 412 585 l 1
 453 603 508 652 521 720 c 1
EndSplineSet
EndChar

StartChar: lcaron
Encoding: 318 318 255
Width: 525
GlyphClass: 2
Flags: W
LayerCount: 2
Fore
SplineSet
69 117 m 2
 178 810 l 1
 245 810 l 1
 136 122 l 2
 135 116 135 110 135 105 c 0
 135 54 177 39 240 34 c 1
 219 -12 l 1
 150 -6 67 13 67 95 c 0
 67 102 68 109 69 117 c 2
506 720 m 1
 495 712 480 708 465 708 c 0
 435 708 415 725 415 753 c 0
 415 756 416 760 416 763 c 0
 422 800 449 825 488 825 c 0
 538 825 553 791 553 754 c 0
 553 746 552 738 551 730 c 0
 537 640 463 582 411 560 c 1
 397 585 l 1
 438 603 493 652 506 720 c 1
EndSplineSet
EndChar

StartChar: Ldot
Encoding: 319 319 256
Width: 570
GlyphClass: 2
Flags: W
LayerCount: 2
Fore
SplineSet
45 0 m 1
 169 780 l 1
 240 780 l 1
 125 55 l 1
 479 55 l 1
 470 0 l 1
 45 0 l 1
442 421 m 0
 475 421 498 402 498 371 c 0
 498 367 498 364 497 360 c 0
 491 323 459 299 422 299 c 0
 389 299 366 318 366 349 c 0
 366 353 366 356 367 360 c 0
 373 397 405 421 442 421 c 0
EndSplineSet
EndChar

StartChar: ldot
Encoding: 320 320 257
Width: 510
GlyphClass: 2
Flags: W
LayerCount: 2
Fore
SplineSet
69 117 m 2
 178 810 l 1
 245 810 l 1
 136 122 l 2
 135 116 135 110 135 105 c 0
 135 54 177 39 240 34 c 1
 219 -12 l 1
 150 -6 67 13 67 95 c 0
 67 102 68 109 69 117 c 2
392 421 m 0
 425 421 448 402 448 371 c 0
 448 367 448 364 447 360 c 0
 441 323 409 299 372 299 c 0
 339 299 316 318 316 349 c 0
 316 353 316 356 317 360 c 0
 323 397 355 421 392 421 c 0
EndSplineSet
EndChar

StartChar: Lslash
Encoding: 321 321 258
Width: 580
GlyphClass: 2
Flags: W
LayerCount: 2
Fore
SplineSet
192 419 m 1
 362 519 l 1
 360 471 l 1
 184 368 l 1
 135 55 l 1
 489 55 l 1
 480 0 l 1
 55 0 l 1
 106 322 l 1
 1 261 l 1
 4 309 l 1
 114 374 l 1
 179 780 l 1
 250 780 l 1
 192 419 l 1
EndSplineSet
EndChar

StartChar: lslash
Encoding: 322 322 259
Width: 360
GlyphClass: 2
Flags: W
AnchorPoint: "LatinBelow.mark" 130 0 basechar 0
LayerCount: 2
Fore
SplineSet
193 417 m 1
 367 519 l 1
 365 471 l 1
 185 366 l 1
 146 122 l 2
 145 116 145 110 145 105 c 0
 145 54 187 39 250 34 c 1
 229 -12 l 1
 160 -6 77 13 77 95 c 0
 77 102 78 109 79 117 c 2
 111 322 l 1
 6 261 l 1
 9 309 l 1
 119 374 l 1
 188 810 l 1
 255 810 l 1
 193 417 l 1
EndSplineSet
EndChar

StartChar: Nacute
Encoding: 323 323 260
Width: 790
GlyphClass: 2
Flags: W
AnchorPoint: "LatinBelow.mark" 335 0 basechar 0
LayerCount: 2
Fore
SplineSet
639 1002 m 1
 391 850 l 1
 374 879 l 1
 615 1050 l 1
 639 1002 l 1
45 0 m 1
 167 773 l 1
 230 780 l 1
 574 113 l 1
 680 780 l 1
 749 780 l 1
 625 0 l 1
 564 0 l 1
 220 667 l 1
 114 0 l 1
 45 0 l 1
EndSplineSet
EndChar

StartChar: nacute
Encoding: 324 324 261
Width: 655
GlyphClass: 2
Flags: W
AnchorPoint: "LatinBelow.mark" 300 0 basechar 0
LayerCount: 2
Fore
SplineSet
550 852 m 1
 302 700 l 1
 285 729 l 1
 526 900 l 1
 550 852 l 1
40 0 m 1
 107 420 l 1
 125 597 l 1
 186 603 l 1
 174 421 l 1
 229 517 320 612 439 612 c 0
 536 612 580 551 580 468 c 0
 580 455 579 440 577 426 c 2
 510 0 l 1
 443 0 l 1
 510 424 l 2
 512 437 513 448 513 459 c 0
 513 527 474 558 415 558 c 0
 296 558 190 418 155 305 c 1
 107 0 l 1
 40 0 l 1
EndSplineSet
EndChar

StartChar: uni0145
Encoding: 325 325 262
Width: 790
GlyphClass: 2
Flags: W
AnchorPoint: "LatinAbove.mark" 359 150 basechar 0
LayerCount: 2
Fore
SplineSet
328 -180 m 1
 317 -188 303 -192 288 -192 c 0
 258 -192 237 -174 237 -146 c 0
 237 -143 238 -140 238 -137 c 0
 244 -100 271 -75 310 -75 c 0
 360 -75 375 -109 375 -146 c 0
 375 -154 374 -162 373 -170 c 0
 359 -260 285 -318 233 -340 c 1
 219 -315 l 1
 260 -297 315 -248 328 -180 c 1
45 0 m 1
 167 773 l 1
 230 780 l 1
 574 113 l 1
 680 780 l 1
 749 780 l 1
 625 0 l 1
 564 0 l 1
 220 667 l 1
 114 0 l 1
 45 0 l 1
EndSplineSet
EndChar

StartChar: uni0146
Encoding: 326 326 263
Width: 655
GlyphClass: 2
Flags: W
AnchorPoint: "LatinAbove.mark" 270 0 basechar 0
LayerCount: 2
Fore
SplineSet
293 -180 m 1
 282 -188 268 -192 253 -192 c 0
 223 -192 202 -174 202 -146 c 0
 202 -143 203 -140 203 -137 c 0
 209 -100 236 -75 275 -75 c 0
 325 -75 340 -109 340 -146 c 0
 340 -154 339 -162 338 -170 c 0
 324 -260 250 -318 198 -340 c 1
 184 -315 l 1
 225 -297 280 -248 293 -180 c 1
40 0 m 1
 107 420 l 1
 125 597 l 1
 186 603 l 1
 174 421 l 1
 229 517 320 612 439 612 c 0
 536 612 580 551 580 468 c 0
 580 455 579 440 577 426 c 2
 510 0 l 1
 443 0 l 1
 510 424 l 2
 512 437 513 448 513 459 c 0
 513 527 474 558 415 558 c 0
 296 558 190 418 155 305 c 1
 107 0 l 1
 40 0 l 1
EndSplineSet
EndChar

StartChar: Ncaron
Encoding: 327 327 264
Width: 790
GlyphClass: 2
Flags: W
AnchorPoint: "LatinBelow.mark" 335 0 basechar 0
LayerCount: 2
Fore
SplineSet
673 996 m 1
 479 845 l 1
 459 845 l 1
 313 996 l 1
 340 1020 l 1
 479 905 l 1
 654 1020 l 1
 673 996 l 1
45 0 m 1
 167 773 l 1
 230 780 l 1
 574 113 l 1
 680 780 l 1
 749 780 l 1
 625 0 l 1
 564 0 l 1
 220 667 l 1
 114 0 l 1
 45 0 l 1
EndSplineSet
EndChar

StartChar: ncaron
Encoding: 328 328 265
Width: 655
GlyphClass: 2
Flags: W
AnchorPoint: "LatinBelow.mark" 300 0 basechar 0
LayerCount: 2
Fore
SplineSet
584 846 m 1
 390 695 l 1
 370 695 l 1
 224 846 l 1
 251 870 l 1
 390 755 l 1
 565 870 l 1
 584 846 l 1
40 0 m 1
 107 420 l 1
 125 597 l 1
 186 603 l 1
 174 421 l 1
 229 517 320 612 439 612 c 0
 536 612 580 551 580 468 c 0
 580 455 579 440 577 426 c 2
 510 0 l 1
 443 0 l 1
 510 424 l 2
 512 437 513 448 513 459 c 0
 513 527 474 558 415 558 c 0
 296 558 190 418 155 305 c 1
 107 0 l 1
 40 0 l 1
EndSplineSet
EndChar

StartChar: napostrophe
Encoding: 329 329 266
Width: 865
GlyphClass: 2
Flags: W
LayerCount: 2
Fore
SplineSet
106 797 m 0
 112 834 142 861 181 861 c 0
 228 861 247 829 247 786 c 0
 247 777 246 768 245 759 c 0
 230 662 157 593 89 550 c 1
 72 580 l 1
 128 616 179 670 195 746 c 1
 184 741 172 738 160 738 c 0
 128 738 105 756 105 786 c 0
 105 789 105 793 106 797 c 0
250 0 m 1
 317 420 l 1
 335 597 l 1
 396 603 l 1
 384 421 l 1
 439 517 530 612 649 612 c 0
 746 612 790 551 790 468 c 0
 790 455 789 440 787 426 c 2
 720 0 l 1
 653 0 l 1
 720 424 l 2
 722 437 723 448 723 459 c 0
 723 527 684 558 625 558 c 0
 506 558 400 418 365 305 c 1
 317 0 l 1
 250 0 l 1
EndSplineSet
EndChar

StartChar: Omacron
Encoding: 332 332 267
Width: 820
GlyphClass: 2
Flags: W
AnchorPoint: "LatinBelow.mark" 350 0 basechar 0
AnchorPoint: "LatinAbove.mark" 402 330 basechar 0
LayerCount: 2
Fore
SplineSet
314 907 m 1
 321 953 l 1
 681 953 l 1
 674 907 l 1
 314 907 l 1
74 372 m 2
 80 408 l 2
 110 599 222 797 476 797 c 0
 688 797 758 659 758 503 c 0
 758 472 755 440 750 408 c 2
 744 372 l 2
 714 181 601 -17 347 -17 c 0
 136 -17 66 120 66 276 c 0
 66 307 69 340 74 372 c 2
356 37 m 0
 541 37 641 183 671 372 c 2
 677 408 l 2
 682 440 685 471 685 500 c 0
 685 642 621 743 468 743 c 0
 283 743 183 597 153 408 c 2
 147 372 l 2
 142 340 139 309 139 280 c 0
 139 138 203 37 356 37 c 0
EndSplineSet
EndChar

StartChar: omacron
Encoding: 333 333 268
Width: 660
GlyphClass: 2
Flags: W
AnchorPoint: "LatinBelow.mark" 270 0 basechar 0
AnchorPoint: "LatinAbove.mark" 299 180 basechar 0
LayerCount: 2
Fore
SplineSet
210 757 m 1
 217 803 l 1
 577 803 l 1
 570 757 l 1
 210 757 l 1
55 286 m 2
 60 314 l 2
 83 460 168 617 368 617 c 0
 534 617 586 509 586 389 c 0
 586 364 584 339 580 314 c 2
 575 286 l 2
 552 140 467 -17 267 -17 c 0
 101 -17 49 91 49 211 c 0
 49 236 51 261 55 286 c 2
275 33 m 0
 409 33 485 140 508 286 c 2
 513 314 l 2
 517 339 519 363 519 385 c 0
 519 493 471 567 360 567 c 0
 226 567 150 460 127 314 c 2
 122 286 l 2
 118 261 116 237 116 215 c 0
 116 107 164 33 275 33 c 0
EndSplineSet
EndChar

StartChar: Obreve
Encoding: 334 334 269
Width: 820
GlyphClass: 2
Flags: W
AnchorPoint: "LatinBelow.mark" 350 0 basechar 0
AnchorPoint: "LatinAbove.mark" 402 330 basechar 0
LayerCount: 2
Fore
SplineSet
327 989 m 1
 373 1005 l 1
 378 953 401 895 492 895 c 0
 583 895 624 953 645 1005 c 1
 687 989 l 1
 658 920 598 850 485 850 c 0
 372 850 334 920 327 989 c 1
74 372 m 2
 80 408 l 2
 110 599 222 797 476 797 c 0
 688 797 758 659 758 503 c 0
 758 472 755 440 750 408 c 2
 744 372 l 2
 714 181 601 -17 347 -17 c 0
 136 -17 66 120 66 276 c 0
 66 307 69 340 74 372 c 2
356 37 m 0
 541 37 641 183 671 372 c 2
 677 408 l 2
 682 440 685 471 685 500 c 0
 685 642 621 743 468 743 c 0
 283 743 183 597 153 408 c 2
 147 372 l 2
 142 340 139 309 139 280 c 0
 139 138 203 37 356 37 c 0
EndSplineSet
EndChar

StartChar: obreve
Encoding: 335 335 270
Width: 660
GlyphClass: 2
Flags: W
AnchorPoint: "LatinBelow.mark" 270 0 basechar 0
AnchorPoint: "LatinAbove.mark" 299 180 basechar 0
LayerCount: 2
Fore
SplineSet
223 839 m 1
 269 855 l 1
 274 803 297 745 388 745 c 0
 479 745 520 803 541 855 c 1
 583 839 l 1
 554 770 494 700 381 700 c 0
 268 700 230 770 223 839 c 1
55 286 m 2
 60 314 l 2
 83 460 168 617 368 617 c 0
 534 617 586 509 586 389 c 0
 586 364 584 339 580 314 c 2
 575 286 l 2
 552 140 467 -17 267 -17 c 0
 101 -17 49 91 49 211 c 0
 49 236 51 261 55 286 c 2
275 33 m 0
 409 33 485 140 508 286 c 2
 513 314 l 2
 517 339 519 363 519 385 c 0
 519 493 471 567 360 567 c 0
 226 567 150 460 127 314 c 2
 122 286 l 2
 118 261 116 237 116 215 c 0
 116 107 164 33 275 33 c 0
EndSplineSet
EndChar

StartChar: Ohungarumlaut
Encoding: 336 336 271
Width: 820
GlyphClass: 2
Flags: W
AnchorPoint: "LatinBelow.mark" 350 0 basechar 0
AnchorPoint: "LatinAbove.mark" 402 330 basechar 0
LayerCount: 2
Fore
SplineSet
338 871 m 1
 490 1060 l 1
 528 1028 l 1
 362 850 l 1
 338 871 l 1
533 871 m 1
 685 1060 l 1
 723 1028 l 1
 557 850 l 1
 533 871 l 1
74 372 m 2
 80 408 l 2
 110 599 222 797 476 797 c 0
 688 797 758 659 758 503 c 0
 758 472 755 440 750 408 c 2
 744 372 l 2
 714 181 601 -17 347 -17 c 0
 136 -17 66 120 66 276 c 0
 66 307 69 340 74 372 c 2
356 37 m 0
 541 37 641 183 671 372 c 2
 677 408 l 2
 682 440 685 471 685 500 c 0
 685 642 621 743 468 743 c 0
 283 743 183 597 153 408 c 2
 147 372 l 2
 142 340 139 309 139 280 c 0
 139 138 203 37 356 37 c 0
EndSplineSet
EndChar

StartChar: ohungarumlaut
Encoding: 337 337 272
Width: 660
GlyphClass: 2
Flags: W
AnchorPoint: "LatinBelow.mark" 270 0 basechar 0
AnchorPoint: "LatinAbove.mark" 299 180 basechar 0
LayerCount: 2
Fore
SplineSet
234 721 m 1
 386 910 l 1
 424 878 l 1
 258 700 l 1
 234 721 l 1
429 721 m 1
 581 910 l 1
 619 878 l 1
 453 700 l 1
 429 721 l 1
55 286 m 2
 60 314 l 2
 83 460 168 617 368 617 c 0
 534 617 586 509 586 389 c 0
 586 364 584 339 580 314 c 2
 575 286 l 2
 552 140 467 -17 267 -17 c 0
 101 -17 49 91 49 211 c 0
 49 236 51 261 55 286 c 2
275 33 m 0
 409 33 485 140 508 286 c 2
 513 314 l 2
 517 339 519 363 519 385 c 0
 519 493 471 567 360 567 c 0
 226 567 150 460 127 314 c 2
 122 286 l 2
 118 261 116 237 116 215 c 0
 116 107 164 33 275 33 c 0
EndSplineSet
EndChar

StartChar: OE
Encoding: 338 338 273
Width: 980
GlyphClass: 2
Flags: W
AnchorPoint: "LatinBelow.mark" 450 0 basechar 0
AnchorPoint: "LatinAbove.mark" 474 150 basechar 0
LayerCount: 2
Fore
SplineSet
74 372 m 2
 80 408 l 2
 110 599 222 797 476 797 c 0
 521 797 561 791 594 780 c 1
 959 780 l 1
 950 725 l 1
 596 725 l 1
 546 411 l 1
 868 411 l 1
 860 359 l 1
 538 359 l 1
 490 55 l 1
 859 55 l 1
 850 0 l 1
 470 0 l 1
 433 -11 392 -17 347 -17 c 0
 136 -17 66 120 66 276 c 0
 66 307 69 340 74 372 c 2
527 736 m 1
 510 741 490 743 468 743 c 0
 283 743 183 597 153 408 c 2
 147 372 l 2
 142 340 139 309 139 280 c 0
 139 138 203 37 356 37 c 0
 378 37 398 39 417 44 c 1
 527 736 l 1
EndSplineSet
EndChar

StartChar: oe
Encoding: 339 339 274
Width: 960
GlyphClass: 2
Flags: W
AnchorPoint: "LatinBelow.mark" 420 0 basechar 0
AnchorPoint: "LatinAbove.mark" 420 0 basechar 0
LayerCount: 2
Fore
SplineSet
55 286 m 2
 60 314 l 2
 83 457 155 617 328 617 c 0
 427 617 473 561 488 486 c 1
 532 562 601 617 702 617 c 0
 833 617 893 532 893 420 c 0
 893 402 891 383 888 364 c 0
 885 342 876 316 869 293 c 1
 485 293 l 1
 484 286 l 2
 480 258 477 232 477 207 c 0
 477 103 518 31 609 31 c 0
 701 31 756 98 772 148 c 1
 836 142 l 1
 816 79 735 -17 601 -17 c 0
 499 -17 449 38 429 114 c 1
 390 39 326 -17 227 -17 c 0
 90 -17 47 84 47 197 c 0
 47 226 50 257 55 286 c 2
320 567 m 0
 215 567 151 463 127 314 c 2
 122 286 l 2
 117 255 114 226 114 199 c 0
 114 98 152 33 235 33 c 0
 337 33 398 137 422 286 c 2
 427 314 l 2
 432 346 435 376 435 404 c 0
 435 503 400 567 320 567 c 0
492 337 m 1
 818 337 l 1
 820 346 823 354 824 363 c 0
 827 382 829 400 829 417 c 0
 829 511 782 569 694 569 c 0
 590 569 519 471 492 337 c 1
EndSplineSet
EndChar

StartChar: Racute
Encoding: 340 340 275
Width: 730
GlyphClass: 2
Flags: W
AnchorPoint: "LatinBelow.mark" 300 0 basechar 0
LayerCount: 2
Fore
SplineSet
604 1002 m 1
 356 850 l 1
 339 879 l 1
 580 1050 l 1
 604 1002 l 1
176 394 m 1
 217 392 281 390 345 390 c 0
 482 390 595 442 614 564 c 0
 616 574 616 585 616 594 c 0
 616 695 525 737 400 737 c 0
 336 737 271 735 230 733 c 1
 176 394 l 1
323 338 m 1
 267 338 211 341 168 343 c 1
 114 0 l 1
 45 0 l 1
 100 347 l 1
 169 780 l 1
 206 783 311 789 414 789 c 0
 574 789 687 724 687 599 c 0
 687 588 686 576 684 564 c 0
 663 432 546 356 399 341 c 1
 626 4 l 1
 625 0 l 1
 544 0 l 1
 323 338 l 1
EndSplineSet
EndChar

StartChar: racute
Encoding: 341 341 276
Width: 435
GlyphClass: 2
Flags: W
AnchorPoint: "LatinBelow.mark" 110 0 basechar 0
LayerCount: 2
Fore
SplineSet
460 852 m 1
 212 700 l 1
 195 729 l 1
 436 900 l 1
 460 852 l 1
119 596 m 1
 178 603 l 1
 185 442 l 1
 222 528 285 612 387 612 c 0
 414 612 437 607 455 598 c 1
 420 542 l 1
 406 549 389 553 368 553 c 0
 269 553 209 439 181 338 c 1
 127 0 l 1
 60 0 l 1
 127 420 l 1
 119 596 l 1
EndSplineSet
EndChar

StartChar: uni0156
Encoding: 342 342 277
Width: 730
GlyphClass: 2
Flags: W
AnchorPoint: "LatinAbove.mark" 324 150 basechar 0
LayerCount: 2
Fore
SplineSet
293 -180 m 1
 282 -188 268 -192 253 -192 c 0
 223 -192 202 -174 202 -146 c 0
 202 -143 203 -140 203 -137 c 0
 209 -100 236 -75 275 -75 c 0
 325 -75 340 -109 340 -146 c 0
 340 -154 339 -162 338 -170 c 0
 324 -260 250 -318 198 -340 c 1
 184 -315 l 1
 225 -297 280 -248 293 -180 c 1
176 394 m 1
 217 392 281 390 345 390 c 0
 482 390 595 442 614 564 c 0
 616 574 616 585 616 594 c 0
 616 695 525 737 400 737 c 0
 336 737 271 735 230 733 c 1
 176 394 l 1
323 338 m 1
 267 338 211 341 168 343 c 1
 114 0 l 1
 45 0 l 1
 100 347 l 1
 169 780 l 1
 206 783 311 789 414 789 c 0
 574 789 687 724 687 599 c 0
 687 588 686 576 684 564 c 0
 663 432 546 356 399 341 c 1
 626 4 l 1
 625 0 l 1
 544 0 l 1
 323 338 l 1
EndSplineSet
EndChar

StartChar: uni0157
Encoding: 343 343 278
Width: 435
GlyphClass: 2
Flags: W
AnchorPoint: "LatinAbove.mark" 180 0 basechar 0
LayerCount: 2
Fore
SplineSet
103 -180 m 1
 92 -188 78 -192 63 -192 c 0
 33 -192 12 -174 12 -146 c 0
 12 -143 13 -140 13 -137 c 0
 19 -100 46 -75 85 -75 c 0
 135 -75 150 -109 150 -146 c 0
 150 -154 149 -162 148 -170 c 0
 134 -260 60 -318 8 -340 c 1
 -6 -315 l 1
 35 -297 90 -248 103 -180 c 1
119 596 m 1
 178 603 l 1
 185 442 l 1
 222 528 285 612 387 612 c 0
 414 612 437 607 455 598 c 1
 420 542 l 1
 406 549 389 553 368 553 c 0
 269 553 209 439 181 338 c 1
 127 0 l 1
 60 0 l 1
 127 420 l 1
 119 596 l 1
EndSplineSet
EndChar

StartChar: Rcaron
Encoding: 344 344 279
Width: 730
GlyphClass: 2
Flags: W
AnchorPoint: "LatinBelow.mark" 300 0 basechar 0
LayerCount: 2
Fore
SplineSet
638 996 m 1
 444 845 l 1
 424 845 l 1
 278 996 l 1
 305 1020 l 1
 444 905 l 1
 619 1020 l 1
 638 996 l 1
176 394 m 1
 217 392 281 390 345 390 c 0
 482 390 595 442 614 564 c 0
 616 574 616 585 616 594 c 0
 616 695 525 737 400 737 c 0
 336 737 271 735 230 733 c 1
 176 394 l 1
323 338 m 1
 267 338 211 341 168 343 c 1
 114 0 l 1
 45 0 l 1
 100 347 l 1
 169 780 l 1
 206 783 311 789 414 789 c 0
 574 789 687 724 687 599 c 0
 687 588 686 576 684 564 c 0
 663 432 546 356 399 341 c 1
 626 4 l 1
 625 0 l 1
 544 0 l 1
 323 338 l 1
EndSplineSet
EndChar

StartChar: rcaron
Encoding: 345 345 280
Width: 435
GlyphClass: 2
Flags: W
AnchorPoint: "LatinBelow.mark" 110 0 basechar 0
LayerCount: 2
Fore
SplineSet
494 846 m 1
 300 695 l 1
 280 695 l 1
 134 846 l 1
 161 870 l 1
 300 755 l 1
 475 870 l 1
 494 846 l 1
119 596 m 1
 178 603 l 1
 185 442 l 1
 222 528 285 612 387 612 c 0
 414 612 437 607 455 598 c 1
 420 542 l 1
 406 549 389 553 368 553 c 0
 269 553 209 439 181 338 c 1
 127 0 l 1
 60 0 l 1
 127 420 l 1
 119 596 l 1
EndSplineSet
EndChar

StartChar: Sacute
Encoding: 346 346 281
Width: 710
GlyphClass: 2
Flags: W
AnchorPoint: "LatinBelow.mark" 295 0 basechar 0
LayerCount: 2
Fore
SplineSet
599 1002 m 1
 351 850 l 1
 334 879 l 1
 575 1050 l 1
 599 1002 l 1
38 175 m 1
 108 184 l 1
 109 119 164 36 302 36 c 0
 444 36 528 99 543 194 c 0
 544 203 545 211 545 219 c 0
 545 290 491 322 446 336 c 0
 391 352 308 381 251 403 c 0
 193 426 121 472 121 560 c 0
 121 569 121 578 123 588 c 0
 142 710 262 797 422 797 c 0
 588 797 654 687 656 609 c 1
 585 600 l 1
 583 665 532 744 414 744 c 0
 292 744 208 684 193 591 c 0
 192 584 191 577 191 571 c 0
 191 509 243 479 291 460 c 0
 346 439 427 411 480 395 c 0
 545 375 614 326 614 231 c 0
 614 220 613 208 611 196 c 0
 592 73 473 -17 293 -17 c 0
 109 -17 40 96 38 175 c 1
EndSplineSet
EndChar

StartChar: sacute
Encoding: 347 347 282
Width: 570
GlyphClass: 2
Flags: W
AnchorPoint: "LatinBelow.mark" 225 0 basechar 0
LayerCount: 2
Fore
SplineSet
505 852 m 1
 257 700 l 1
 240 729 l 1
 481 900 l 1
 505 852 l 1
21 134 m 1
 87 142 l 1
 87 92 129 32 232 32 c 0
 335 32 399 78 410 149 c 0
 411 155 411 161 411 167 c 0
 411 220 371 246 338 256 c 0
 295 270 232 291 190 307 c 0
 144 324 86 359 86 429 c 0
 86 436 87 444 88 452 c 0
 103 547 196 617 323 617 c 0
 456 617 507 531 508 469 c 1
 442 461 l 1
 441 510 405 568 315 568 c 0
 225 568 163 524 152 454 c 0
 151 449 151 444 151 439 c 0
 151 392 189 368 224 356 c 0
 266 341 331 320 371 307 c 0
 422 291 476 255 476 179 c 0
 476 170 476 161 474 151 c 0
 459 54 362 -17 222 -17 c 0
 76 -17 22 71 21 134 c 1
EndSplineSet
EndChar

StartChar: Scircumflex
Encoding: 348 348 283
Width: 710
GlyphClass: 2
Flags: W
AnchorPoint: "LatinBelow.mark" 295 0 basechar 0
LayerCount: 2
Fore
SplineSet
251 859 m 1
 445 1010 l 1
 465 1010 l 1
 611 859 l 1
 584 835 l 1
 446 950 l 1
 270 835 l 1
 251 859 l 1
38 175 m 1
 108 184 l 1
 109 119 164 36 302 36 c 0
 444 36 528 99 543 194 c 0
 544 203 545 211 545 219 c 0
 545 290 491 322 446 336 c 0
 391 352 308 381 251 403 c 0
 193 426 121 472 121 560 c 0
 121 569 121 578 123 588 c 0
 142 710 262 797 422 797 c 0
 588 797 654 687 656 609 c 1
 585 600 l 1
 583 665 532 744 414 744 c 0
 292 744 208 684 193 591 c 0
 192 584 191 577 191 571 c 0
 191 509 243 479 291 460 c 0
 346 439 427 411 480 395 c 0
 545 375 614 326 614 231 c 0
 614 220 613 208 611 196 c 0
 592 73 473 -17 293 -17 c 0
 109 -17 40 96 38 175 c 1
EndSplineSet
EndChar

StartChar: scircumflex
Encoding: 349 349 284
Width: 570
GlyphClass: 2
Flags: W
AnchorPoint: "LatinBelow.mark" 225 0 basechar 0
LayerCount: 2
Fore
SplineSet
157 709 m 1
 351 860 l 1
 371 860 l 1
 517 709 l 1
 490 685 l 1
 352 800 l 1
 176 685 l 1
 157 709 l 1
21 134 m 1
 87 142 l 1
 87 92 129 32 232 32 c 0
 335 32 399 78 410 149 c 0
 411 155 411 161 411 167 c 0
 411 220 371 246 338 256 c 0
 295 270 232 291 190 307 c 0
 144 324 86 359 86 429 c 0
 86 436 87 444 88 452 c 0
 103 547 196 617 323 617 c 0
 456 617 507 531 508 469 c 1
 442 461 l 1
 441 510 405 568 315 568 c 0
 225 568 163 524 152 454 c 0
 151 449 151 444 151 439 c 0
 151 392 189 368 224 356 c 0
 266 341 331 320 371 307 c 0
 422 291 476 255 476 179 c 0
 476 170 476 161 474 151 c 0
 459 54 362 -17 222 -17 c 0
 76 -17 22 71 21 134 c 1
EndSplineSet
EndChar

StartChar: Scedilla
Encoding: 350 350 285
Width: 710
GlyphClass: 2
Flags: W
AnchorPoint: "LatinAbove.mark" 319 150 basechar 0
LayerCount: 2
Fore
SplineSet
189 -291 m 1
 254 -275 349 -246 360 -175 c 0
 360 -172 361 -170 361 -167 c 0
 361 -144 344 -124 287 -124 c 0
 269 -124 248 -126 237 -128 c 1
 218 -106 l 1
 282 -17 l 1
 107 -13 41 98 38 175 c 1
 108 184 l 1
 109 119 164 36 302 36 c 0
 444 36 528 99 543 194 c 0
 544 203 545 211 545 219 c 0
 545 290 491 322 446 336 c 0
 391 352 308 381 251 403 c 0
 193 426 121 472 121 560 c 0
 121 569 121 578 123 588 c 0
 142 710 262 797 422 797 c 0
 588 797 654 687 656 609 c 1
 585 600 l 1
 583 665 532 744 414 744 c 0
 292 744 208 684 193 591 c 0
 192 584 191 577 191 571 c 0
 191 509 243 479 291 460 c 0
 346 439 427 411 480 395 c 0
 545 375 614 326 614 231 c 0
 614 220 613 208 611 196 c 0
 593 80 486 -6 323 -16 c 1
 271 -91 l 1
 280 -90 291 -90 301 -90 c 0
 371 -90 408 -116 408 -161 c 0
 408 -165 408 -170 407 -175 c 0
 390 -281 251 -310 196 -325 c 1
 189 -291 l 1
EndSplineSet
Substitution2: "Latin.st.cedilla subtable" uni0218
EndChar

StartChar: scedilla
Encoding: 351 351 286
Width: 570
GlyphClass: 2
Flags: W
AnchorPoint: "LatinAbove.mark" 225 0 basechar 0
LayerCount: 2
Fore
SplineSet
119 -291 m 1
 184 -275 279 -246 290 -175 c 0
 290 -172 291 -170 291 -167 c 0
 291 -144 274 -124 217 -124 c 0
 199 -124 178 -126 167 -128 c 1
 148 -106 l 1
 212 -17 l 1
 74 -13 22 72 21 134 c 1
 87 142 l 1
 87 92 129 32 232 32 c 0
 335 32 399 78 410 149 c 0
 411 155 411 161 411 167 c 0
 411 220 371 246 338 256 c 0
 295 270 232 291 190 307 c 0
 144 324 86 359 86 429 c 0
 86 436 87 444 88 452 c 0
 103 547 196 617 323 617 c 0
 456 617 507 531 508 469 c 1
 442 461 l 1
 441 510 405 568 315 568 c 0
 225 568 163 524 152 454 c 0
 151 449 151 444 151 439 c 0
 151 392 189 368 224 356 c 0
 266 341 331 320 371 307 c 0
 422 291 476 255 476 179 c 0
 476 170 476 161 474 151 c 0
 460 62 377 -6 254 -16 c 1
 201 -91 l 1
 210 -90 221 -90 231 -90 c 0
 301 -90 338 -116 338 -161 c 0
 338 -165 338 -170 337 -175 c 0
 320 -281 181 -310 126 -325 c 1
 119 -291 l 1
EndSplineSet
Substitution2: "Latin.st.cedilla subtable" uni0219
EndChar

StartChar: Scaron
Encoding: 352 352 287
Width: 710
GlyphClass: 2
Flags: W
AnchorPoint: "LatinBelow.mark" 295 0 basechar 0
LayerCount: 2
Fore
SplineSet
633 996 m 1
 439 845 l 1
 419 845 l 1
 273 996 l 1
 300 1020 l 1
 439 905 l 1
 614 1020 l 1
 633 996 l 1
38 175 m 1
 108 184 l 1
 109 119 164 36 302 36 c 0
 444 36 528 99 543 194 c 0
 544 203 545 211 545 219 c 0
 545 290 491 322 446 336 c 0
 391 352 308 381 251 403 c 0
 193 426 121 472 121 560 c 0
 121 569 121 578 123 588 c 0
 142 710 262 797 422 797 c 0
 588 797 654 687 656 609 c 1
 585 600 l 1
 583 665 532 744 414 744 c 0
 292 744 208 684 193 591 c 0
 192 584 191 577 191 571 c 0
 191 509 243 479 291 460 c 0
 346 439 427 411 480 395 c 0
 545 375 614 326 614 231 c 0
 614 220 613 208 611 196 c 0
 592 73 473 -17 293 -17 c 0
 109 -17 40 96 38 175 c 1
EndSplineSet
EndChar

StartChar: scaron
Encoding: 353 353 288
Width: 570
GlyphClass: 2
Flags: W
AnchorPoint: "LatinBelow.mark" 225 0 basechar 0
LayerCount: 2
Fore
SplineSet
539 846 m 1
 345 695 l 1
 325 695 l 1
 179 846 l 1
 206 870 l 1
 345 755 l 1
 520 870 l 1
 539 846 l 1
21 134 m 1
 87 142 l 1
 87 92 129 32 232 32 c 0
 335 32 399 78 410 149 c 0
 411 155 411 161 411 167 c 0
 411 220 371 246 338 256 c 0
 295 270 232 291 190 307 c 0
 144 324 86 359 86 429 c 0
 86 436 87 444 88 452 c 0
 103 547 196 617 323 617 c 0
 456 617 507 531 508 469 c 1
 442 461 l 1
 441 510 405 568 315 568 c 0
 225 568 163 524 152 454 c 0
 151 449 151 444 151 439 c 0
 151 392 189 368 224 356 c 0
 266 341 331 320 371 307 c 0
 422 291 476 255 476 179 c 0
 476 170 476 161 474 151 c 0
 459 54 362 -17 222 -17 c 0
 76 -17 22 71 21 134 c 1
EndSplineSet
EndChar

StartChar: uni0162
Encoding: 354 354 289
Width: 620
GlyphClass: 2
Flags: W
AnchorPoint: "LatinAbove.mark" 274 150 basechar 0
LayerCount: 2
Fore
SplineSet
129 -291 m 1
 194 -275 289 -246 300 -175 c 0
 300 -172 301 -170 301 -167 c 0
 301 -144 284 -124 227 -124 c 0
 209 -124 188 -126 177 -128 c 1
 158 -106 l 1
 234 0 l 1
 215 0 l 1
 330 726 l 1
 100 726 l 1
 109 780 l 1
 639 780 l 1
 630 726 l 1
 400 726 l 1
 285 0 l 1
 275 0 l 1
 211 -91 l 1
 220 -90 231 -90 241 -90 c 0
 311 -90 348 -116 348 -161 c 0
 348 -165 348 -170 347 -175 c 0
 330 -281 191 -310 136 -325 c 1
 129 -291 l 1
EndSplineSet
Substitution2: "Latin.st.cedilla subtable" uni021A
EndChar

StartChar: uni0163
Encoding: 355 355 290
Width: 415
GlyphClass: 2
Flags: W
AnchorPoint: "LatinAbove.mark" 139 120 basechar 0
LayerCount: 2
Fore
SplineSet
79 -291 m 1
 144 -275 239 -246 250 -175 c 0
 250 -172 251 -170 251 -167 c 0
 251 -144 234 -124 177 -124 c 0
 159 -124 138 -126 127 -128 c 1
 108 -106 l 1
 177 -10 l 1
 126 -2 95 26 95 83 c 0
 95 93 96 103 98 115 c 2
 168 556 l 1
 68 556 l 1
 75 600 l 1
 177 600 l 1
 198 730 l 1
 262 735 l 1
 241 600 l 1
 405 600 l 1
 398 556 l 1
 235 556 l 1
 166 123 l 2
 164 111 163 101 163 92 c 0
 163 50 184 37 222 37 c 0
 269 37 316 54 334 65 c 1
 343 20 l 1
 317 5 269 -10 217 -12 c 1
 161 -91 l 1
 170 -90 181 -90 191 -90 c 0
 261 -90 298 -116 298 -161 c 0
 298 -165 298 -170 297 -175 c 0
 280 -281 141 -310 86 -325 c 1
 79 -291 l 1
EndSplineSet
Substitution2: "Latin.st.cedilla subtable" uni021B
EndChar

StartChar: Tcaron
Encoding: 356 356 291
Width: 620
GlyphClass: 2
Flags: W
AnchorPoint: "LatinBelow.mark" 250 0 basechar 0
LayerCount: 2
Fore
SplineSet
588 996 m 1
 394 845 l 1
 374 845 l 1
 228 996 l 1
 255 1020 l 1
 394 905 l 1
 569 1020 l 1
 588 996 l 1
100 726 m 1
 109 780 l 1
 639 780 l 1
 630 726 l 1
 400 726 l 1
 285 0 l 1
 215 0 l 1
 330 726 l 1
 100 726 l 1
EndSplineSet
EndChar

StartChar: tcaron
Encoding: 357 357 292
Width: 625
GlyphClass: 2
Flags: W
LayerCount: 2
Fore
SplineSet
68 556 m 1
 75 600 l 1
 177 600 l 1
 198 730 l 1
 262 735 l 1
 241 600 l 1
 405 600 l 1
 398 556 l 1
 235 556 l 1
 166 123 l 2
 164 111 163 101 163 92 c 0
 163 50 184 37 222 37 c 0
 269 37 316 54 334 65 c 1
 343 20 l 1
 315 4 263 -12 207 -12 c 0
 139 -12 95 16 95 84 c 0
 95 93 96 104 98 115 c 2
 168 556 l 1
 68 556 l 1
606 720 m 1
 595 712 580 708 565 708 c 0
 535 708 515 725 515 753 c 0
 515 756 516 760 516 763 c 0
 522 800 549 825 588 825 c 0
 638 825 653 791 653 754 c 0
 653 746 652 738 651 730 c 0
 637 640 563 582 511 560 c 1
 497 585 l 1
 538 603 593 652 606 720 c 1
EndSplineSet
EndChar

StartChar: Utilde
Encoding: 360 360 293
Width: 770
GlyphClass: 2
Flags: W
AnchorPoint: "LatinBelow.mark" 325 0 basechar 0
AnchorPoint: "LatinAbove.mark" 377 330 basechar 0
LayerCount: 2
Fore
SplineSet
286 887 m 1
 310 933 347 1005 407 1005 c 0
 453 1005 476 974 494 951 c 0
 513 929 525 905 547 905 c 0
 581 905 612 970 626 997 c 1
 661 983 l 1
 638 936 598 865 539 865 c 0
 493 865 471 896 453 919 c 0
 434 941 422 965 400 965 c 0
 365 965 336 901 321 873 c 1
 286 887 l 1
72 232 m 2
 159 780 l 1
 230 780 l 1
 143 232 l 2
 141 219 140 207 140 195 c 0
 140 94 215 37 331 37 c 0
 461 37 561 108 581 232 c 2
 668 780 l 1
 739 780 l 1
 652 232 l 2
 629 86 497 -17 322 -17 c 0
 164 -17 69 67 69 191 c 0
 69 204 70 218 72 232 c 2
EndSplineSet
EndChar

StartChar: utilde
Encoding: 361 361 294
Width: 620
GlyphClass: 2
Flags: W
AnchorPoint: "LatinBelow.mark" 250 0 basechar 0
AnchorPoint: "LatinAbove.mark" 279 180 basechar 0
LayerCount: 2
Fore
SplineSet
187 737 m 1
 211 783 248 855 308 855 c 0
 354 855 377 824 395 801 c 0
 414 779 426 755 448 755 c 0
 482 755 513 820 527 847 c 1
 562 833 l 1
 539 786 499 715 440 715 c 0
 394 715 372 746 354 769 c 0
 335 791 323 815 301 815 c 0
 266 815 237 751 222 723 c 1
 187 737 l 1
49 181 m 2
 115 600 l 1
 182 600 l 1
 116 181 l 2
 114 171 114 161 114 152 c 0
 114 75 169 33 255 33 c 0
 351 33 427 86 442 181 c 2
 508 600 l 1
 575 600 l 1
 509 181 l 2
 491 66 387 -17 247 -17 c 0
 121 -17 46 50 46 148 c 0
 46 159 47 170 49 181 c 2
EndSplineSet
EndChar

StartChar: Umacron
Encoding: 362 362 295
Width: 770
GlyphClass: 2
Flags: W
AnchorPoint: "LatinBelow.mark" 325 0 basechar 0
AnchorPoint: "LatinAbove.mark" 377 330 basechar 0
LayerCount: 2
Fore
SplineSet
289 907 m 1
 296 953 l 1
 656 953 l 1
 649 907 l 1
 289 907 l 1
72 232 m 2
 159 780 l 1
 230 780 l 1
 143 232 l 2
 141 219 140 207 140 195 c 0
 140 94 215 37 331 37 c 0
 461 37 561 108 581 232 c 2
 668 780 l 1
 739 780 l 1
 652 232 l 2
 629 86 497 -17 322 -17 c 0
 164 -17 69 67 69 191 c 0
 69 204 70 218 72 232 c 2
EndSplineSet
EndChar

StartChar: umacron
Encoding: 363 363 296
Width: 620
GlyphClass: 2
Flags: W
AnchorPoint: "LatinBelow.mark" 250 0 basechar 0
AnchorPoint: "LatinAbove.mark" 279 180 basechar 0
LayerCount: 2
Fore
SplineSet
190 757 m 1
 197 803 l 1
 557 803 l 1
 550 757 l 1
 190 757 l 1
49 181 m 2
 115 600 l 1
 182 600 l 1
 116 181 l 2
 114 171 114 161 114 152 c 0
 114 75 169 33 255 33 c 0
 351 33 427 86 442 181 c 2
 508 600 l 1
 575 600 l 1
 509 181 l 2
 491 66 387 -17 247 -17 c 0
 121 -17 46 50 46 148 c 0
 46 159 47 170 49 181 c 2
EndSplineSet
EndChar

StartChar: Ubreve
Encoding: 364 364 297
Width: 770
GlyphClass: 2
Flags: W
AnchorPoint: "LatinBelow.mark" 325 0 basechar 0
AnchorPoint: "LatinAbove.mark" 377 330 basechar 0
LayerCount: 2
Fore
SplineSet
302 989 m 1
 348 1005 l 1
 353 953 376 895 467 895 c 0
 558 895 599 953 620 1005 c 1
 662 989 l 1
 633 920 573 850 460 850 c 0
 347 850 309 920 302 989 c 1
72 232 m 2
 159 780 l 1
 230 780 l 1
 143 232 l 2
 141 219 140 207 140 195 c 0
 140 94 215 37 331 37 c 0
 461 37 561 108 581 232 c 2
 668 780 l 1
 739 780 l 1
 652 232 l 2
 629 86 497 -17 322 -17 c 0
 164 -17 69 67 69 191 c 0
 69 204 70 218 72 232 c 2
EndSplineSet
EndChar

StartChar: ubreve
Encoding: 365 365 298
Width: 620
GlyphClass: 2
Flags: W
AnchorPoint: "LatinBelow.mark" 250 0 basechar 0
AnchorPoint: "LatinAbove.mark" 279 180 basechar 0
LayerCount: 2
Fore
SplineSet
203 839 m 1
 249 855 l 1
 254 803 277 745 368 745 c 0
 459 745 500 803 521 855 c 1
 563 839 l 1
 534 770 474 700 361 700 c 0
 248 700 210 770 203 839 c 1
49 181 m 2
 115 600 l 1
 182 600 l 1
 116 181 l 2
 114 171 114 161 114 152 c 0
 114 75 169 33 255 33 c 0
 351 33 427 86 442 181 c 2
 508 600 l 1
 575 600 l 1
 509 181 l 2
 491 66 387 -17 247 -17 c 0
 121 -17 46 50 46 148 c 0
 46 159 47 170 49 181 c 2
EndSplineSet
EndChar

StartChar: Uring
Encoding: 366 366 299
Width: 770
GlyphClass: 2
Flags: W
AnchorPoint: "LatinBelow.mark" 325 0 basechar 0
AnchorPoint: "LatinAbove.mark" 377 330 basechar 0
LayerCount: 2
Fore
SplineSet
454 812 m 0
 396 812 358 846 358 897 c 0
 358 903 359 909 360 915 c 0
 370 976 421 1018 486 1018 c 0
 544 1018 582 984 582 933 c 0
 582 927 581 921 580 915 c 0
 570 854 519 812 454 812 c 0
459 846 m 0
 502 846 535 875 541 915 c 0
 542 919 542 923 542 927 c 0
 542 961 519 984 481 984 c 0
 438 984 405 955 399 915 c 0
 398 911 398 907 398 903 c 0
 398 869 421 846 459 846 c 0
72 232 m 2
 159 780 l 1
 230 780 l 1
 143 232 l 2
 141 219 140 207 140 195 c 0
 140 94 215 37 331 37 c 0
 461 37 561 108 581 232 c 2
 668 780 l 1
 739 780 l 1
 652 232 l 2
 629 86 497 -17 322 -17 c 0
 164 -17 69 67 69 191 c 0
 69 204 70 218 72 232 c 2
EndSplineSet
EndChar

StartChar: uring
Encoding: 367 367 300
Width: 620
GlyphClass: 2
Flags: W
AnchorPoint: "LatinBelow.mark" 250 0 basechar 0
AnchorPoint: "LatinAbove.mark" 279 180 basechar 0
LayerCount: 2
Fore
SplineSet
355 662 m 0
 297 662 259 696 259 747 c 0
 259 753 260 759 261 765 c 0
 271 826 322 868 387 868 c 0
 445 868 483 834 483 783 c 0
 483 777 482 771 481 765 c 0
 471 704 420 662 355 662 c 0
360 696 m 0
 403 696 436 725 442 765 c 0
 443 769 443 773 443 777 c 0
 443 811 420 834 382 834 c 0
 339 834 306 805 300 765 c 0
 299 761 299 757 299 753 c 0
 299 719 322 696 360 696 c 0
49 181 m 2
 115 600 l 1
 182 600 l 1
 116 181 l 2
 114 171 114 161 114 152 c 0
 114 75 169 33 255 33 c 0
 351 33 427 86 442 181 c 2
 508 600 l 1
 575 600 l 1
 509 181 l 2
 491 66 387 -17 247 -17 c 0
 121 -17 46 50 46 148 c 0
 46 159 47 170 49 181 c 2
EndSplineSet
EndChar

StartChar: Uhungarumlaut
Encoding: 368 368 301
Width: 770
GlyphClass: 2
Flags: W
AnchorPoint: "LatinBelow.mark" 325 0 basechar 0
AnchorPoint: "LatinAbove.mark" 377 330 basechar 0
LayerCount: 2
Fore
SplineSet
313 871 m 1
 465 1060 l 1
 503 1028 l 1
 337 850 l 1
 313 871 l 1
508 871 m 1
 660 1060 l 1
 698 1028 l 1
 532 850 l 1
 508 871 l 1
72 232 m 2
 159 780 l 1
 230 780 l 1
 143 232 l 2
 141 219 140 207 140 195 c 0
 140 94 215 37 331 37 c 0
 461 37 561 108 581 232 c 2
 668 780 l 1
 739 780 l 1
 652 232 l 2
 629 86 497 -17 322 -17 c 0
 164 -17 69 67 69 191 c 0
 69 204 70 218 72 232 c 2
EndSplineSet
EndChar

StartChar: uhungarumlaut
Encoding: 369 369 302
Width: 620
GlyphClass: 2
Flags: W
AnchorPoint: "LatinBelow.mark" 250 0 basechar 0
AnchorPoint: "LatinAbove.mark" 279 180 basechar 0
LayerCount: 2
Fore
SplineSet
214 721 m 1
 366 910 l 1
 404 878 l 1
 238 700 l 1
 214 721 l 1
409 721 m 1
 561 910 l 1
 599 878 l 1
 433 700 l 1
 409 721 l 1
49 181 m 2
 115 600 l 1
 182 600 l 1
 116 181 l 2
 114 171 114 161 114 152 c 0
 114 75 169 33 255 33 c 0
 351 33 427 86 442 181 c 2
 508 600 l 1
 575 600 l 1
 509 181 l 2
 491 66 387 -17 247 -17 c 0
 121 -17 46 50 46 148 c 0
 46 159 47 170 49 181 c 2
EndSplineSet
EndChar

StartChar: Uogonek
Encoding: 370 370 303
Width: 770
GlyphClass: 2
Flags: W
AnchorPoint: "LatinAbove.mark" 349 150 basechar 0
LayerCount: 2
Fore
SplineSet
72 232 m 2
 159 780 l 1
 230 780 l 1
 143 232 l 2
 141 219 140 207 140 195 c 0
 140 94 215 37 331 37 c 0
 461 37 561 108 581 232 c 2
 668 780 l 1
 739 780 l 1
 652 232 l 2
 635 124 558 39 448 3 c 1
 412 -32 381 -75 371 -138 c 0
 370 -145 369 -151 369 -157 c 0
 369 -194 391 -212 424 -212 c 0
 453 -212 477 -204 492 -196 c 1
 499 -231 l 1
 473 -244 446 -250 411 -250 c 0
 351 -250 321 -216 321 -166 c 0
 321 -159 322 -151 323 -143 c 0
 332 -87 359 -46 390 -12 c 1
 368 -16 345 -17 322 -17 c 0
 164 -17 69 67 69 191 c 0
 69 204 70 218 72 232 c 2
EndSplineSet
EndChar

StartChar: uogonek
Encoding: 371 371 304
Width: 620
GlyphClass: 2
Flags: W
AnchorPoint: "LatinAbove.mark" 250 0 basechar 0
LayerCount: 2
Fore
SplineSet
49 181 m 2
 115 600 l 1
 182 600 l 1
 116 181 l 2
 114 171 114 161 114 152 c 0
 114 75 169 33 255 33 c 0
 351 33 427 86 442 181 c 2
 508 600 l 1
 575 600 l 1
 509 181 l 2
 495 94 433 25 343 -3 c 1
 310 -37 281 -78 271 -138 c 0
 270 -145 269 -151 269 -157 c 0
 269 -194 291 -212 324 -212 c 0
 353 -212 377 -204 392 -196 c 1
 399 -231 l 1
 373 -244 346 -250 311 -250 c 0
 251 -250 221 -216 221 -166 c 0
 221 -159 222 -151 223 -143 c 0
 232 -88 258 -48 288 -15 c 1
 275 -17 261 -17 247 -17 c 0
 121 -17 46 50 46 148 c 0
 46 159 47 170 49 181 c 2
EndSplineSet
EndChar

StartChar: Wcircumflex
Encoding: 372 372 305
Width: 1060
GlyphClass: 2
Flags: W
AnchorPoint: "LatinBelow.mark" 470 0 basechar 0
LayerCount: 2
Fore
SplineSet
426 859 m 1
 620 1010 l 1
 640 1010 l 1
 786 859 l 1
 759 835 l 1
 621 950 l 1
 445 835 l 1
 426 859 l 1
1082 769 m 1
 728 0 l 1
 665 0 l 1
 574 659 l 1
 275 0 l 1
 212 0 l 1
 102 769 l 1
 102 773 l 1
 182 780 l 1
 263 96 l 1
 560 760 l 1
 620 760 l 1
 707 96 l 1
 1006 780 l 1
 1082 773 l 1
 1082 769 l 1
EndSplineSet
EndChar

StartChar: wcircumflex
Encoding: 373 373 306
Width: 830
GlyphClass: 2
Flags: W
AnchorPoint: "LatinBelow.mark" 355 0 basechar 0
LayerCount: 2
Fore
SplineSet
287 709 m 1
 481 860 l 1
 501 860 l 1
 647 709 l 1
 620 685 l 1
 482 800 l 1
 306 685 l 1
 287 709 l 1
828 590 m 1
 557 0 l 1
 499 0 l 1
 433 490 l 1
 211 0 l 1
 153 0 l 1
 68 590 l 1
 69 594 l 1
 141 600 l 1
 201 93 l 1
 420 585 l 1
 476 585 l 1
 539 93 l 1
 759 600 l 1
 829 594 l 1
 828 590 l 1
EndSplineSet
EndChar

StartChar: Ycircumflex
Encoding: 374 374 307
Width: 670
GlyphClass: 2
Flags: W
AnchorPoint: "LatinBelow.mark" 275 0 basechar 0
AnchorPoint: "LatinAbove.mark" 337 330 basechar 0
LayerCount: 2
Fore
SplineSet
231 859 m 1
 425 1010 l 1
 445 1010 l 1
 591 859 l 1
 564 835 l 1
 426 950 l 1
 250 835 l 1
 231 859 l 1
87 769 m 1
 88 774 l 1
 168 780 l 1
 334 373 l 1
 630 780 l 1
 708 774 l 1
 707 769 l 1
 358 304 l 1
 310 0 l 1
 240 0 l 1
 288 304 l 1
 87 769 l 1
EndSplineSet
EndChar

StartChar: ycircumflex
Encoding: 375 375 308
Width: 600
GlyphClass: 2
Flags: W
AnchorPoint: "LatinBelow.mark" 211 -180 basechar 0
AnchorPoint: "LatinAbove.mark" 269 180 basechar 0
LayerCount: 2
Fore
SplineSet
172 709 m 1
 366 860 l 1
 386 860 l 1
 532 709 l 1
 505 685 l 1
 367 800 l 1
 191 685 l 1
 172 709 l 1
64 591 m 1
 64 595 l 1
 137 600 l 1
 252 74 l 1
 533 600 l 1
 604 595 l 1
 604 591 l 1
 251 -34 l 2
 205 -110 139 -227 43 -227 c 0
 -4 -227 -30 -204 -49 -185 c 1
 -9 -143 l 1
 6 -161 21 -180 49 -180 c 0
 100 -180 149 -101 197 -21 c 2
 211 3 l 1
 64 591 l 1
EndSplineSet
EndChar

StartChar: Ydieresis
Encoding: 376 376 309
Width: 670
GlyphClass: 2
Flags: W
AnchorPoint: "LatinBelow.mark" 275 0 basechar 0
AnchorPoint: "LatinAbove.mark" 337 330 basechar 0
LayerCount: 2
Fore
SplineSet
479 930 m 0
 485 966 515 988 550 988 c 0
 581 988 604 971 604 941 c 0
 604 938 604 934 603 930 c 0
 597 894 566 872 531 872 c 0
 500 872 478 890 478 919 c 0
 478 923 478 926 479 930 c 0
243 930 m 0
 249 966 279 988 314 988 c 0
 345 988 368 971 368 941 c 0
 368 938 368 934 367 930 c 0
 361 894 330 872 295 872 c 0
 264 872 242 890 242 919 c 0
 242 923 242 926 243 930 c 0
87 769 m 1
 88 774 l 1
 168 780 l 1
 334 373 l 1
 630 780 l 1
 708 774 l 1
 707 769 l 1
 358 304 l 1
 310 0 l 1
 240 0 l 1
 288 304 l 1
 87 769 l 1
EndSplineSet
EndChar

StartChar: Zacute
Encoding: 377 377 310
Width: 670
GlyphClass: 2
Flags: W
AnchorPoint: "LatinBelow.mark" 275 0 basechar 0
LayerCount: 2
Fore
SplineSet
579 1002 m 1
 331 850 l 1
 314 879 l 1
 555 1050 l 1
 579 1002 l 1
-4 41 m 1
 570 724 l 1
 127 724 l 1
 136 780 l 1
 668 780 l 1
 667 739 l 1
 94 56 l 1
 569 56 l 1
 560 0 l 1
 -5 0 l 1
 -4 41 l 1
EndSplineSet
EndChar

StartChar: zacute
Encoding: 378 378 311
Width: 530
GlyphClass: 2
Flags: W
AnchorPoint: "LatinBelow.mark" 205 0 basechar 0
LayerCount: 2
Fore
SplineSet
485 852 m 1
 237 700 l 1
 220 729 l 1
 461 900 l 1
 485 852 l 1
-9 36 m 1
 416 551 l 1
 90 551 l 1
 98 600 l 1
 508 600 l 1
 507 564 l 1
 82 49 l 1
 433 49 l 1
 425 0 l 1
 -11 0 l 1
 -9 36 l 1
EndSplineSet
EndChar

StartChar: Zdotaccent
Encoding: 379 379 312
Width: 670
GlyphClass: 2
Flags: W
AnchorPoint: "LatinBelow.mark" 275 0 basechar 0
LayerCount: 2
Fore
SplineSet
432 991 m 0
 465 991 489 972 489 941 c 0
 489 938 489 934 488 930 c 0
 482 893 450 869 413 869 c 0
 380 869 357 888 357 919 c 0
 357 923 357 926 358 930 c 0
 364 967 395 991 432 991 c 0
-4 41 m 1
 570 724 l 1
 127 724 l 1
 136 780 l 1
 668 780 l 1
 667 739 l 1
 94 56 l 1
 569 56 l 1
 560 0 l 1
 -5 0 l 1
 -4 41 l 1
EndSplineSet
EndChar

StartChar: zdotaccent
Encoding: 380 380 313
Width: 530
GlyphClass: 2
Flags: W
AnchorPoint: "LatinBelow.mark" 205 0 basechar 0
LayerCount: 2
Fore
SplineSet
338 841 m 0
 371 841 395 822 395 791 c 0
 395 788 395 784 394 780 c 0
 388 743 356 719 319 719 c 0
 286 719 263 738 263 769 c 0
 263 773 263 776 264 780 c 0
 270 817 301 841 338 841 c 0
-9 36 m 1
 416 551 l 1
 90 551 l 1
 98 600 l 1
 508 600 l 1
 507 564 l 1
 82 49 l 1
 433 49 l 1
 425 0 l 1
 -11 0 l 1
 -9 36 l 1
EndSplineSet
EndChar

StartChar: Zcaron
Encoding: 381 381 314
Width: 670
GlyphClass: 2
Flags: W
AnchorPoint: "LatinBelow.mark" 275 0 basechar 0
LayerCount: 2
Fore
SplineSet
613 996 m 1
 419 845 l 1
 399 845 l 1
 253 996 l 1
 280 1020 l 1
 419 905 l 1
 594 1020 l 1
 613 996 l 1
-4 41 m 1
 570 724 l 1
 127 724 l 1
 136 780 l 1
 668 780 l 1
 667 739 l 1
 94 56 l 1
 569 56 l 1
 560 0 l 1
 -5 0 l 1
 -4 41 l 1
EndSplineSet
EndChar

StartChar: zcaron
Encoding: 382 382 315
Width: 530
GlyphClass: 2
Flags: W
AnchorPoint: "LatinBelow.mark" 205 0 basechar 0
LayerCount: 2
Fore
SplineSet
519 846 m 1
 325 695 l 1
 305 695 l 1
 159 846 l 1
 186 870 l 1
 325 755 l 1
 500 870 l 1
 519 846 l 1
-9 36 m 1
 416 551 l 1
 90 551 l 1
 98 600 l 1
 508 600 l 1
 507 564 l 1
 82 49 l 1
 433 49 l 1
 425 0 l 1
 -11 0 l 1
 -9 36 l 1
EndSplineSet
EndChar

StartChar: uni018F
Encoding: 399 399 316
Width: 780
GlyphClass: 2
Flags: W
AnchorPoint: "LatinBelow.mark" 315 0 basechar 0
AnchorPoint: "LatinAbove.mark" 339 150 basechar 0
LayerCount: 2
Fore
SplineSet
710 408 m 2
 704 372 l 2
 674 183 564 -17 312 -17 c 0
 130 -17 48 92 48 238 c 0
 48 260 49 283 53 306 c 0
 58 336 66 368 77 399 c 1
 640 399 l 1
 642 408 l 2
 647 440 650 471 650 500 c 0
 650 642 586 744 433 744 c 0
 296 744 212 653 190 588 c 1
 122 594 l 1
 149 674 255 797 441 797 c 0
 650 797 718 660 718 505 c 0
 718 473 715 440 710 408 c 2
633 351 m 1
 132 351 l 1
 127 335 123 320 121 306 c 0
 117 283 115 261 115 241 c 0
 115 112 188 35 321 35 c 0
 499 35 599 172 633 351 c 1
EndSplineSet
EndChar

StartChar: florin
Encoding: 402 402 317
Width: 400
GlyphClass: 2
Flags: W
AnchorPoint: "LatinBelow.mark" 120 0 basechar 0
AnchorPoint: "LatinAbove.mark" 239 180 basechar 0
LayerCount: 2
Fore
SplineSet
68 556 m 1
 75 600 l 1
 175 600 l 1
 189 688 l 2
 199 748 247 827 354 827 c 0
 429 827 467 795 479 785 c 1
 442 748 l 1
 430 757 403 779 350 779 c 0
 294 779 262 737 254 688 c 2
 240 600 l 1
 405 600 l 1
 398 556 l 1
 235 556 l 1
 143 -27 l 2
 126 -132 40 -191 -55 -222 c 1
 -69 -178 l 1
 5 -151 63 -109 76 -24 c 2
 168 556 l 1
 68 556 l 1
EndSplineSet
EndChar

StartChar: Ohorn
Encoding: 416 416 318
Width: 820
GlyphClass: 3
Flags: W
AnchorPoint: "LatinBelow.mark" 350 0 basechar 0
AnchorPoint: "LatinAbove.mark" 374 150 basechar 0
LayerCount: 2
Fore
SplineSet
74 372 m 2
 80 408 l 2
 110 599 222 797 476 797 c 0
 573 797 640 768 685 721 c 1
 714 733 756 764 765 821 c 0
 766 827 766 832 766 837 c 0
 766 859 758 875 750 886 c 1
 797 911 l 1
 809 896 817 874 817 846 c 0
 817 838 816 830 815 822 c 0
 804 755 752 713 706 695 c 1
 743 642 758 573 758 501 c 0
 758 470 755 439 750 408 c 2
 744 372 l 2
 714 181 601 -17 347 -17 c 0
 136 -17 66 120 66 276 c 0
 66 307 69 340 74 372 c 2
356 37 m 0
 541 37 641 183 671 372 c 2
 677 408 l 2
 682 440 685 471 685 500 c 0
 685 642 621 743 468 743 c 0
 283 743 183 597 153 408 c 2
 147 372 l 2
 142 340 139 309 139 280 c 0
 139 138 203 37 356 37 c 0
EndSplineSet
Ligature2: "Latin.horn subtable" O uni031B
Ligature2: "Latin.horn subtable" O uni200D uni031B
EndChar

StartChar: ohorn
Encoding: 417 417 319
Width: 660
GlyphClass: 3
Flags: W
AnchorPoint: "LatinBelow.mark" 270 0 basechar 0
AnchorPoint: "LatinAbove.mark" 270 0 basechar 0
LayerCount: 2
Fore
SplineSet
55 286 m 2
 60 314 l 2
 83 460 168 617 368 617 c 0
 453 617 507 588 541 545 c 1
 569 559 604 590 612 641 c 0
 613 647 613 652 613 657 c 0
 613 679 605 695 597 706 c 1
 644 731 l 1
 656 716 664 694 664 666 c 0
 664 658 663 650 662 642 c 0
 652 578 603 537 559 518 c 1
 578 481 586 436 586 390 c 0
 586 365 584 339 580 314 c 2
 575 286 l 2
 552 140 467 -17 267 -17 c 0
 101 -17 49 91 49 211 c 0
 49 236 51 261 55 286 c 2
275 33 m 0
 409 33 485 140 508 286 c 2
 513 314 l 2
 517 339 519 363 519 385 c 0
 519 493 471 567 360 567 c 0
 226 567 150 460 127 314 c 2
 122 286 l 2
 118 261 116 237 116 215 c 0
 116 107 164 33 275 33 c 0
EndSplineSet
Ligature2: "Latin.horn subtable" o uni031B
Ligature2: "Latin.horn subtable" o uni200D uni031B
EndChar

StartChar: Uhorn
Encoding: 431 431 320
Width: 780
GlyphClass: 3
Flags: W
AnchorPoint: "LatinBelow.mark" 325 0 basechar 0
AnchorPoint: "LatinAbove.mark" 349 150 basechar 0
LayerCount: 2
Fore
SplineSet
72 232 m 2
 159 780 l 1
 230 780 l 1
 143 232 l 2
 141 219 140 207 140 195 c 0
 140 94 215 37 331 37 c 0
 461 37 561 108 581 232 c 2
 660 730 l 1
 674 730 l 1
 701 724 l 1
 730 737 766 767 775 821 c 0
 776 827 776 832 776 837 c 0
 776 859 768 875 760 886 c 1
 807 911 l 1
 819 896 827 874 827 846 c 0
 827 838 826 830 825 822 c 0
 815 759 769 719 726 699 c 1
 652 232 l 2
 629 86 497 -17 322 -17 c 0
 164 -17 69 67 69 191 c 0
 69 204 70 218 72 232 c 2
EndSplineSet
Ligature2: "Latin.horn subtable" U uni031B
Ligature2: "Latin.horn subtable" U uni200D uni031B
EndChar

StartChar: uhorn
Encoding: 432 432 321
Width: 635
GlyphClass: 3
Flags: W
AnchorPoint: "LatinBelow.mark" 250 0 basechar 0
AnchorPoint: "LatinAbove.mark" 250 0 basechar 0
LayerCount: 2
Fore
SplineSet
49 181 m 2
 115 600 l 1
 182 600 l 1
 116 181 l 2
 114 171 114 161 114 152 c 0
 114 75 169 33 255 33 c 0
 351 33 427 86 442 181 c 2
 500 550 l 1
 514 550 l 1
 538 544 l 1
 567 557 604 588 612 641 c 0
 613 647 613 652 613 657 c 0
 613 679 605 695 597 706 c 1
 644 731 l 1
 656 716 664 694 664 666 c 0
 664 658 663 650 662 642 c 0
 652 579 605 539 562 519 c 1
 509 181 l 2
 491 66 387 -17 247 -17 c 0
 121 -17 46 50 46 148 c 0
 46 159 47 170 49 181 c 2
EndSplineSet
Ligature2: "Latin.horn subtable" u uni031B
Ligature2: "Latin.horn subtable" u uni200D uni031B
EndChar

StartChar: uni01CD
Encoding: 461 461 322
Width: 750
GlyphClass: 2
Flags: W
AnchorPoint: "LatinBelow.mark" 315 0 basechar 0
AnchorPoint: "LatinAbove.mark" 367 330 basechar 0
LayerCount: 2
Fore
SplineSet
653 996 m 1
 459 845 l 1
 439 845 l 1
 293 996 l 1
 320 1020 l 1
 459 905 l 1
 634 1020 l 1
 653 996 l 1
660 0 m 1
 580 0 l 1
 539 184 l 1
 149 184 l 1
 50 0 l 1
 -30 0 l 1
 -29 5 l 1
 408 780 l 1
 470 780 l 1
 661 5 l 1
 660 0 l 1
527 236 m 1
 426 698 l 1
 177 236 l 1
 527 236 l 1
EndSplineSet
EndChar

StartChar: uni01CE
Encoding: 462 462 323
Width: 625
GlyphClass: 2
Flags: W
AnchorPoint: "LatinBelow.mark" 270 0 basechar 0
AnchorPoint: "LatinAbove.mark" 279 180 basechar 0
LayerCount: 2
Fore
SplineSet
564 846 m 1
 370 695 l 1
 350 695 l 1
 204 846 l 1
 231 870 l 1
 370 755 l 1
 545 870 l 1
 564 846 l 1
37 171 m 0
 49 249 122 316 240 316 c 0
 321 316 397 309 448 302 c 1
 467 425 l 2
 469 435 469 444 469 453 c 0
 469 528 414 567 330 567 c 0
 238 567 176 513 151 433 c 1
 84 438 l 1
 112 531 200 617 338 617 c 0
 461 617 535 553 535 457 c 0
 535 447 534 436 532 425 c 2
 486 132 l 2
 484 120 483 110 483 100 c 0
 483 58 502 38 545 33 c 1
 521 -12 l 1
 476 -6 426 16 426 90 c 2
 426 103 l 1
 382 43 315 -12 215 -12 c 0
 104 -12 34 43 34 138 c 0
 34 149 35 159 37 171 c 0
444 259 m 1
 399 265 327 275 237 275 c 0
 168 275 112 236 102 171 c 0
 100 161 100 152 100 143 c 0
 100 68 155 31 228 31 c 0
 341 31 406 126 435 204 c 1
 444 259 l 1
EndSplineSet
MultipleSubs2: "Latin.a.decomp subtable" uni0251 uni030C
EndChar

StartChar: uni01CF
Encoding: 463 463 324
Width: 320
GlyphClass: 2
Flags: W
AnchorPoint: "LatinBelow.mark" 100 0 basechar 0
AnchorPoint: "LatinAbove.mark" 152 330 basechar 0
LayerCount: 2
Fore
SplineSet
438 996 m 1
 244 845 l 1
 224 845 l 1
 78 996 l 1
 105 1020 l 1
 244 905 l 1
 419 1020 l 1
 438 996 l 1
65 0 m 1
 189 780 l 1
 259 780 l 1
 135 0 l 1
 65 0 l 1
EndSplineSet
EndChar

StartChar: uni01D0
Encoding: 464 464 325
Width: 300
GlyphClass: 2
Flags: W
AnchorPoint: "LatinBelow.mark" 90 0 basechar 0
AnchorPoint: "LatinAbove.mark" 119 180 basechar 0
LayerCount: 2
Fore
SplineSet
404 846 m 1
 210 695 l 1
 190 695 l 1
 44 846 l 1
 71 870 l 1
 210 755 l 1
 385 870 l 1
 404 846 l 1
56 0 m 1
 151 600 l 1
 219 600 l 1
 124 0 l 1
 56 0 l 1
EndSplineSet
EndChar

StartChar: uni01D1
Encoding: 465 465 326
Width: 820
GlyphClass: 2
Flags: W
AnchorPoint: "LatinBelow.mark" 350 0 basechar 0
AnchorPoint: "LatinAbove.mark" 402 330 basechar 0
LayerCount: 2
Fore
SplineSet
688 996 m 1
 494 845 l 1
 474 845 l 1
 328 996 l 1
 355 1020 l 1
 494 905 l 1
 669 1020 l 1
 688 996 l 1
74 372 m 2
 80 408 l 2
 110 599 222 797 476 797 c 0
 688 797 758 659 758 503 c 0
 758 472 755 440 750 408 c 2
 744 372 l 2
 714 181 601 -17 347 -17 c 0
 136 -17 66 120 66 276 c 0
 66 307 69 340 74 372 c 2
356 37 m 0
 541 37 641 183 671 372 c 2
 677 408 l 2
 682 440 685 471 685 500 c 0
 685 642 621 743 468 743 c 0
 283 743 183 597 153 408 c 2
 147 372 l 2
 142 340 139 309 139 280 c 0
 139 138 203 37 356 37 c 0
EndSplineSet
EndChar

StartChar: uni01D2
Encoding: 466 466 327
Width: 660
GlyphClass: 2
Flags: W
AnchorPoint: "LatinBelow.mark" 270 0 basechar 0
AnchorPoint: "LatinAbove.mark" 299 180 basechar 0
LayerCount: 2
Fore
SplineSet
584 846 m 1
 390 695 l 1
 370 695 l 1
 224 846 l 1
 251 870 l 1
 390 755 l 1
 565 870 l 1
 584 846 l 1
55 286 m 2
 60 314 l 2
 83 460 168 617 368 617 c 0
 534 617 586 509 586 389 c 0
 586 364 584 339 580 314 c 2
 575 286 l 2
 552 140 467 -17 267 -17 c 0
 101 -17 49 91 49 211 c 0
 49 236 51 261 55 286 c 2
275 33 m 0
 409 33 485 140 508 286 c 2
 513 314 l 2
 517 339 519 363 519 385 c 0
 519 493 471 567 360 567 c 0
 226 567 150 460 127 314 c 2
 122 286 l 2
 118 261 116 237 116 215 c 0
 116 107 164 33 275 33 c 0
EndSplineSet
EndChar

StartChar: uni01D3
Encoding: 467 467 328
Width: 770
GlyphClass: 2
Flags: W
AnchorPoint: "LatinBelow.mark" 325 0 basechar 0
AnchorPoint: "LatinAbove.mark" 377 330 basechar 0
LayerCount: 2
Fore
SplineSet
663 996 m 1
 469 845 l 1
 449 845 l 1
 303 996 l 1
 330 1020 l 1
 469 905 l 1
 644 1020 l 1
 663 996 l 1
72 232 m 2
 159 780 l 1
 230 780 l 1
 143 232 l 2
 141 219 140 207 140 195 c 0
 140 94 215 37 331 37 c 0
 461 37 561 108 581 232 c 2
 668 780 l 1
 739 780 l 1
 652 232 l 2
 629 86 497 -17 322 -17 c 0
 164 -17 69 67 69 191 c 0
 69 204 70 218 72 232 c 2
EndSplineSet
EndChar

